<?xml version="1.0" encoding="UTF-8" standalone="no"?>
<!-- Created with Inkscape (http://www.inkscape.org/) -->

<svg
   width="210mm"
   height="297mm"
   viewBox="0 0 210 297"
   version="1.1"
   id="svg5"
   inkscape:version="1.3 (0e150ed6c4, 2023-07-21)"
   sodipodi:docname="temperature module veroboard.svg"
   xmlns:inkscape="http://www.inkscape.org/namespaces/inkscape"
   xmlns:sodipodi="http://sodipodi.sourceforge.net/DTD/sodipodi-0.dtd"
   xmlns="http://www.w3.org/2000/svg"
   xmlns:svg="http://www.w3.org/2000/svg">
  <sodipodi:namedview
     id="namedview7"
     pagecolor="#ffffff"
     bordercolor="#666666"
     borderopacity="1.0"
     inkscape:pageshadow="2"
     inkscape:pageopacity="0.0"
     inkscape:pagecheckerboard="0"
     inkscape:document-units="mm"
     showgrid="true"
     inkscape:lockguides="true"
     inkscape:zoom="8.7762224"
     inkscape:cx="196.55382"
     inkscape:cy="319.49965"
     inkscape:window-width="1918"
     inkscape:window-height="2080"
     inkscape:window-x="-7"
     inkscape:window-y="0"
     inkscape:window-maximized="1"
     inkscape:current-layer="layer2"
     inkscape:snap-grids="true"
     inkscape:showpageshadow="2"
     inkscape:deskcolor="#d1d1d1"
     showguides="true">
    <inkscape:grid
       type="xygrid"
       id="grid824"
       units="in"
       spacingx="0.254"
       spacingy="0.254"
       empspacing="10"
       dotted="true"
       originx="0"
       originy="0"
       visible="true" />
    <sodipodi:guide
       position="15.24,238.58001"
       orientation="0,-1"
       id="guide7"
       inkscape:locked="true" />
    <sodipodi:guide
       position="36.830001,239.59601"
       orientation="0,-1"
       id="guide8"
       inkscape:locked="true" />
    <sodipodi:guide
       position="113.03,234.77001"
       orientation="1,0"
       id="guide36"
       inkscape:locked="true" />
    <sodipodi:guide
       position="110.998,229.43601"
       orientation="0,-1"
       id="guide37"
       inkscape:locked="true" />
  </sodipodi:namedview>
  <defs
     id="defs2">
    <rect
       x="64.255068"
       y="330.69923"
       width="59.195614"
       height="41.78522"
       id="rect27" />
    <marker
       style="overflow:visible"
       id="marker10339"
       refX="0.0"
       refY="0.0"
       orient="auto"
       inkscape:stockid="DotS"
       inkscape:isstock="true">
      <path
         transform="scale(0.2) translate(7.4, 1)"
         style="fill-rule:evenodd;fill:context-stroke;stroke:context-stroke;stroke-width:1.0pt"
         d="M -2.5,-1.0 C -2.5,1.7600000 -4.7400000,4.0 -7.5,4.0 C -10.260000,4.0 -12.5,1.7600000 -12.5,-1.0 C -12.5,-3.7600000 -10.260000,-6.0 -7.5,-6.0 C -4.7400000,-6.0 -2.5,-3.7600000 -2.5,-1.0 z "
         id="path10337" />
    </marker>
    <marker
       style="overflow:visible"
       id="marker10329"
       refX="0.0"
       refY="0.0"
       orient="auto"
       inkscape:stockid="DotS"
       inkscape:isstock="true">
      <path
         transform="scale(0.2) translate(7.4, 1)"
         style="fill-rule:evenodd;fill:context-stroke;stroke:context-stroke;stroke-width:1.0pt"
         d="M -2.5,-1.0 C -2.5,1.7600000 -4.7400000,4.0 -7.5,4.0 C -10.260000,4.0 -12.5,1.7600000 -12.5,-1.0 C -12.5,-3.7600000 -10.260000,-6.0 -7.5,-6.0 C -4.7400000,-6.0 -2.5,-3.7600000 -2.5,-1.0 z "
         id="path10327" />
    </marker>
    <marker
       style="overflow:visible;"
       id="Arrow2Send"
       refX="0.0"
       refY="0.0"
       orient="auto"
       inkscape:stockid="Arrow2Send"
       inkscape:isstock="true">
      <path
         transform="scale(0.3) rotate(180) translate(-2.3,0)"
         d="M 8.7185878,4.0337352 L -2.2072895,0.016013256 L 8.7185884,-4.0017078 C 6.9730900,-1.6296469 6.9831476,1.6157441 8.7185878,4.0337352 z "
         style="stroke:context-stroke;fill-rule:evenodd;fill:context-stroke;stroke-width:0.62500000;stroke-linejoin:round;"
         id="path4744" />
    </marker>
    <marker
       style="overflow:visible"
       id="marker5005"
       refX="0.0"
       refY="0.0"
       orient="auto"
       inkscape:stockid="DotS"
       inkscape:isstock="true">
      <path
         transform="scale(0.2) translate(7.4, 1)"
         style="fill-rule:evenodd;fill:context-stroke;stroke:context-stroke;stroke-width:1.0pt"
         d="M -2.5,-1.0 C -2.5,1.7600000 -4.7400000,4.0 -7.5,4.0 C -10.260000,4.0 -12.5,1.7600000 -12.5,-1.0 C -12.5,-3.7600000 -10.260000,-6.0 -7.5,-6.0 C -4.7400000,-6.0 -2.5,-3.7600000 -2.5,-1.0 z "
         id="path5003" />
    </marker>
    <marker
       style="overflow:visible;"
       id="Arrow1Send"
       refX="0.0"
       refY="0.0"
       orient="auto"
       inkscape:stockid="Arrow1Send"
       inkscape:isstock="true">
      <path
         transform="scale(0.2) rotate(180) translate(6,0)"
         style="fill-rule:evenodd;fill:context-stroke;stroke:context-stroke;stroke-width:1.0pt;"
         d="M 0.0,0.0 L 5.0,-5.0 L -12.5,0.0 L 5.0,5.0 L 0.0,0.0 z "
         id="path4726" />
    </marker>
    <marker
       style="overflow:visible"
       id="DotS"
       refX="0.0"
       refY="0.0"
       orient="auto"
       inkscape:stockid="DotS"
       inkscape:isstock="true">
      <path
         transform="scale(0.2) translate(7.4, 1)"
         style="fill-rule:evenodd;fill:context-stroke;stroke:context-stroke;stroke-width:1.0pt"
         d="M -2.5,-1.0 C -2.5,1.7600000 -4.7400000,4.0 -7.5,4.0 C -10.260000,4.0 -12.5,1.7600000 -12.5,-1.0 C -12.5,-3.7600000 -10.260000,-6.0 -7.5,-6.0 C -4.7400000,-6.0 -2.5,-3.7600000 -2.5,-1.0 z "
         id="path4778" />
    </marker>
    <marker
       style="overflow:visible"
       id="DotM"
       refX="0.0"
       refY="0.0"
       orient="auto"
       inkscape:stockid="DotM"
       inkscape:isstock="true">
      <path
         transform="scale(0.4) translate(7.4, 1)"
         style="fill-rule:evenodd;fill:context-stroke;stroke:context-stroke;stroke-width:1.0pt"
         d="M -2.5,-1.0 C -2.5,1.7600000 -4.7400000,4.0 -7.5,4.0 C -10.260000,4.0 -12.5,1.7600000 -12.5,-1.0 C -12.5,-3.7600000 -10.260000,-6.0 -7.5,-6.0 C -4.7400000,-6.0 -2.5,-3.7600000 -2.5,-1.0 z "
         id="path4775" />
    </marker>
    <marker
       style="overflow:visible"
       id="DotL"
       refX="0.0"
       refY="0.0"
       orient="auto"
       inkscape:stockid="DotL"
       inkscape:isstock="true">
      <path
         transform="scale(0.8) translate(7.4, 1)"
         style="fill-rule:evenodd;fill:context-stroke;stroke:context-stroke;stroke-width:1.0pt"
         d="M -2.5,-1.0 C -2.5,1.7600000 -4.7400000,4.0 -7.5,4.0 C -10.260000,4.0 -12.5,1.7600000 -12.5,-1.0 C -12.5,-3.7600000 -10.260000,-6.0 -7.5,-6.0 C -4.7400000,-6.0 -2.5,-3.7600000 -2.5,-1.0 z "
         id="path4772" />
    </marker>
  </defs>
  <g
     inkscape:groupmode="layer"
     id="layer2"
     inkscape:label="Board">
    <g
       id="g30">
      <path
         id="path1714"
         style="fill:#ffd42a;stroke-width:1.5"
         d="m 42.163835,57.403731 v 45.200339 h 2.031917 V 57.403731 Z m 1.015958,0.508496 a 0.50799994,0.50799994 0 0 1 0.50798,0.50798 0.50799994,0.50799994 0 0 1 -0.50798,0.507979 0.50799994,0.50799994 0 0 1 -0.507979,-0.507979 0.50799994,0.50799994 0 0 1 0.507979,-0.50798 z m 0,2.539897 a 0.50799994,0.50799994 0 0 1 0.50798,0.507979 0.50799994,0.50799994 0 0 1 -0.50798,0.50798 0.50799994,0.50799994 0 0 1 -0.507979,-0.50798 0.50799994,0.50799994 0 0 1 0.507979,-0.507979 z m 0,2.539897 A 0.50799994,0.50799994 0 0 1 43.687773,63.5 0.50799994,0.50799994 0 0 1 43.179793,64.007979 0.50799994,0.50799994 0 0 1 42.671814,63.5 0.50799994,0.50799994 0 0 1 43.179793,62.992021 Z m 0,2.539896 a 0.50799994,0.50799994 0 0 1 0.50798,0.50798 0.50799994,0.50799994 0 0 1 -0.50798,0.507979 0.50799994,0.50799994 0 0 1 -0.507979,-0.507979 0.50799994,0.50799994 0 0 1 0.507979,-0.50798 z m 0,2.539897 a 0.50799994,0.50799994 0 0 1 0.50798,0.507979 0.50799994,0.50799994 0 0 1 -0.50798,0.50798 0.50799994,0.50799994 0 0 1 -0.507979,-0.50798 0.50799994,0.50799994 0 0 1 0.507979,-0.507979 z m 0,2.540413 a 0.50799994,0.50799994 0 0 1 0.50798,0.50798 0.50799994,0.50799994 0 0 1 -0.50798,0.507979 0.50799994,0.50799994 0 0 1 -0.507979,-0.507979 0.50799994,0.50799994 0 0 1 0.507979,-0.50798 z m 0,2.539897 a 0.50799994,0.50799994 0 0 1 0.50798,0.507979 0.50799994,0.50799994 0 0 1 -0.50798,0.50798 0.50799994,0.50799994 0 0 1 -0.507979,-0.50798 0.50799994,0.50799994 0 0 1 0.507979,-0.507979 z m 0,2.539897 A 0.50799994,0.50799994 0 0 1 43.687773,76.2 0.50799994,0.50799994 0 0 1 43.179793,76.707979 0.50799994,0.50799994 0 0 1 42.671814,76.2 0.50799994,0.50799994 0 0 1 43.179793,75.692021 Z m 0,2.539896 a 0.50799994,0.50799994 0 0 1 0.50798,0.50798 0.50799994,0.50799994 0 0 1 -0.50798,0.507979 0.50799994,0.50799994 0 0 1 -0.507979,-0.507979 0.50799994,0.50799994 0 0 1 0.507979,-0.50798 z m 0,2.539897 a 0.50799994,0.50799994 0 0 1 0.50798,0.507979 0.50799994,0.50799994 0 0 1 -0.50798,0.50798 0.50799994,0.50799994 0 0 1 -0.507979,-0.50798 0.50799994,0.50799994 0 0 1 0.507979,-0.507979 z m 0,2.540413 a 0.50799994,0.50799994 0 0 1 0.50798,0.50798 0.50799994,0.50799994 0 0 1 -0.50798,0.507979 0.50799994,0.50799994 0 0 1 -0.507979,-0.507979 0.50799994,0.50799994 0 0 1 0.507979,-0.50798 z m 0,2.539897 a 0.50799994,0.50799994 0 0 1 0.50798,0.507979 0.50799994,0.50799994 0 0 1 -0.50798,0.50798 0.50799994,0.50799994 0 0 1 -0.507979,-0.50798 0.50799994,0.50799994 0 0 1 0.507979,-0.507979 z m 0,2.539897 A 0.50799994,0.50799994 0 0 1 43.687773,88.9 0.50799994,0.50799994 0 0 1 43.179793,89.407979 0.50799994,0.50799994 0 0 1 42.671814,88.9 0.50799994,0.50799994 0 0 1 43.179793,88.392021 Z m 0,2.539896 a 0.50799994,0.50799994 0 0 1 0.50798,0.50798 0.50799994,0.50799994 0 0 1 -0.50798,0.507979 0.50799994,0.50799994 0 0 1 -0.507979,-0.507979 0.50799994,0.50799994 0 0 1 0.507979,-0.50798 z m 0,2.539897 a 0.50799994,0.50799994 0 0 1 0.50798,0.507979 0.50799994,0.50799994 0 0 1 -0.50798,0.50798 0.50799994,0.50799994 0 0 1 -0.507979,-0.50798 0.50799994,0.50799994 0 0 1 0.507979,-0.507979 z m 0,2.540413 a 0.50799994,0.50799994 0 0 1 0.50798,0.50798 0.50799994,0.50799994 0 0 1 -0.50798,0.507979 0.50799994,0.50799994 0 0 1 -0.507979,-0.507979 0.50799994,0.50799994 0 0 1 0.507979,-0.50798 z m 0,2.539897 a 0.50799994,0.50799994 0 0 1 0.50798,0.507979 0.50799994,0.50799994 0 0 1 -0.50798,0.50798 0.50799994,0.50799994 0 0 1 -0.507979,-0.50798 0.50799994,0.50799994 0 0 1 0.507979,-0.507979 z m 0,2.539896 a 0.50799994,0.50799994 0 0 1 0.50798,0.50798 0.50799994,0.50799994 0 0 1 -0.50798,0.50798 0.50799994,0.50799994 0 0 1 -0.507979,-0.50798 0.50799994,0.50799994 0 0 1 0.507979,-0.50798 z" />
      <path
         id="path1716"
         style="fill:#ffd42a;stroke-width:1.5"
         d="m 44.703731,57.403731 v 45.200339 h 2.031918 V 57.403731 Z m 1.015959,0.508496 a 0.50799994,0.50799994 0 0 1 0.507979,0.50798 0.50799994,0.50799994 0 0 1 -0.507979,0.507979 0.50799994,0.50799994 0 0 1 -0.507979,-0.507979 0.50799994,0.50799994 0 0 1 0.507979,-0.50798 z m 0,2.539897 a 0.50799994,0.50799994 0 0 1 0.507979,0.507979 0.50799994,0.50799994 0 0 1 -0.507979,0.50798 0.50799994,0.50799994 0 0 1 -0.507979,-0.50798 0.50799994,0.50799994 0 0 1 0.507979,-0.507979 z m 0,2.539897 A 0.50799994,0.50799994 0 0 1 46.227669,63.5 0.50799994,0.50799994 0 0 1 45.71969,64.007979 0.50799994,0.50799994 0 0 1 45.211711,63.5 0.50799994,0.50799994 0 0 1 45.71969,62.992021 Z m 0,2.539896 a 0.50799994,0.50799994 0 0 1 0.507979,0.50798 0.50799994,0.50799994 0 0 1 -0.507979,0.507979 0.50799994,0.50799994 0 0 1 -0.507979,-0.507979 0.50799994,0.50799994 0 0 1 0.507979,-0.50798 z m 0,2.539897 a 0.50799994,0.50799994 0 0 1 0.507979,0.507979 0.50799994,0.50799994 0 0 1 -0.507979,0.50798 0.50799994,0.50799994 0 0 1 -0.507979,-0.50798 0.50799994,0.50799994 0 0 1 0.507979,-0.507979 z m 0,2.540413 a 0.50799994,0.50799994 0 0 1 0.507979,0.50798 0.50799994,0.50799994 0 0 1 -0.507979,0.507979 0.50799994,0.50799994 0 0 1 -0.507979,-0.507979 0.50799994,0.50799994 0 0 1 0.507979,-0.50798 z m 0,2.539897 a 0.50799994,0.50799994 0 0 1 0.507979,0.507979 0.50799994,0.50799994 0 0 1 -0.507979,0.50798 0.50799994,0.50799994 0 0 1 -0.507979,-0.50798 0.50799994,0.50799994 0 0 1 0.507979,-0.507979 z m 0,2.539897 A 0.50799994,0.50799994 0 0 1 46.227669,76.2 0.50799994,0.50799994 0 0 1 45.71969,76.707979 0.50799994,0.50799994 0 0 1 45.211711,76.2 0.50799994,0.50799994 0 0 1 45.71969,75.692021 Z m 0,2.539896 a 0.50799994,0.50799994 0 0 1 0.507979,0.50798 0.50799994,0.50799994 0 0 1 -0.507979,0.507979 0.50799994,0.50799994 0 0 1 -0.507979,-0.507979 0.50799994,0.50799994 0 0 1 0.507979,-0.50798 z m 0,2.539897 a 0.50799994,0.50799994 0 0 1 0.507979,0.507979 0.50799994,0.50799994 0 0 1 -0.507979,0.50798 0.50799994,0.50799994 0 0 1 -0.507979,-0.50798 0.50799994,0.50799994 0 0 1 0.507979,-0.507979 z m 0,2.540413 a 0.50799994,0.50799994 0 0 1 0.507979,0.50798 0.50799994,0.50799994 0 0 1 -0.507979,0.507979 0.50799994,0.50799994 0 0 1 -0.507979,-0.507979 0.50799994,0.50799994 0 0 1 0.507979,-0.50798 z m 0,2.539897 a 0.50799994,0.50799994 0 0 1 0.507979,0.507979 0.50799994,0.50799994 0 0 1 -0.507979,0.50798 0.50799994,0.50799994 0 0 1 -0.507979,-0.50798 0.50799994,0.50799994 0 0 1 0.507979,-0.507979 z m 0,2.539897 A 0.50799994,0.50799994 0 0 1 46.227669,88.9 0.50799994,0.50799994 0 0 1 45.71969,89.407979 0.50799994,0.50799994 0 0 1 45.211711,88.9 0.50799994,0.50799994 0 0 1 45.71969,88.392021 Z m 0,2.539896 a 0.50799994,0.50799994 0 0 1 0.507979,0.50798 0.50799994,0.50799994 0 0 1 -0.507979,0.507979 0.50799994,0.50799994 0 0 1 -0.507979,-0.507979 0.50799994,0.50799994 0 0 1 0.507979,-0.50798 z m 0,2.539897 a 0.50799994,0.50799994 0 0 1 0.507979,0.507979 0.50799994,0.50799994 0 0 1 -0.507979,0.50798 0.50799994,0.50799994 0 0 1 -0.507979,-0.50798 0.50799994,0.50799994 0 0 1 0.507979,-0.507979 z m 0,2.540413 a 0.50799994,0.50799994 0 0 1 0.507979,0.50798 0.50799994,0.50799994 0 0 1 -0.507979,0.507979 0.50799994,0.50799994 0 0 1 -0.507979,-0.507979 0.50799994,0.50799994 0 0 1 0.507979,-0.50798 z m 0,2.539897 a 0.50799994,0.50799994 0 0 1 0.507979,0.507979 0.50799994,0.50799994 0 0 1 -0.507979,0.50798 0.50799994,0.50799994 0 0 1 -0.507979,-0.50798 0.50799994,0.50799994 0 0 1 0.507979,-0.507979 z m 0,2.539896 A 0.50799994,0.50799994 0 0 1 46.227669,101.6 0.50799994,0.50799994 0 0 1 45.71969,102.10798 0.50799994,0.50799994 0 0 1 45.211711,101.6 0.50799994,0.50799994 0 0 1 45.71969,101.09202 Z" />
      <path
         id="path1718"
         style="fill:#ffd42a;stroke-width:1.5"
         d="m 47.244145,57.403731 v 45.200339 h 2.031917 V 57.403731 Z m 1.015958,0.508496 a 0.50799994,0.50799994 0 0 1 0.50798,0.50798 0.50799994,0.50799994 0 0 1 -0.50798,0.507979 0.50799994,0.50799994 0 0 1 -0.507979,-0.507979 0.50799994,0.50799994 0 0 1 0.507979,-0.50798 z m 0,2.539897 a 0.50799994,0.50799994 0 0 1 0.50798,0.507979 0.50799994,0.50799994 0 0 1 -0.50798,0.50798 0.50799994,0.50799994 0 0 1 -0.507979,-0.50798 0.50799994,0.50799994 0 0 1 0.507979,-0.507979 z m 0,2.539897 A 0.50799994,0.50799994 0 0 1 48.768083,63.5 0.50799994,0.50799994 0 0 1 48.260103,64.007979 0.50799994,0.50799994 0 0 1 47.752124,63.5 0.50799994,0.50799994 0 0 1 48.260103,62.992021 Z m 0,2.539896 a 0.50799994,0.50799994 0 0 1 0.50798,0.50798 0.50799994,0.50799994 0 0 1 -0.50798,0.507979 0.50799994,0.50799994 0 0 1 -0.507979,-0.507979 0.50799994,0.50799994 0 0 1 0.507979,-0.50798 z m 0,2.539897 a 0.50799994,0.50799994 0 0 1 0.50798,0.507979 0.50799994,0.50799994 0 0 1 -0.50798,0.50798 0.50799994,0.50799994 0 0 1 -0.507979,-0.50798 0.50799994,0.50799994 0 0 1 0.507979,-0.507979 z m 0,2.540413 a 0.50799994,0.50799994 0 0 1 0.50798,0.50798 0.50799994,0.50799994 0 0 1 -0.50798,0.507979 0.50799994,0.50799994 0 0 1 -0.507979,-0.507979 0.50799994,0.50799994 0 0 1 0.507979,-0.50798 z m 0,2.539897 a 0.50799994,0.50799994 0 0 1 0.50798,0.507979 0.50799994,0.50799994 0 0 1 -0.50798,0.50798 0.50799994,0.50799994 0 0 1 -0.507979,-0.50798 0.50799994,0.50799994 0 0 1 0.507979,-0.507979 z m 0,2.539897 A 0.50799994,0.50799994 0 0 1 48.768083,76.2 0.50799994,0.50799994 0 0 1 48.260103,76.707979 0.50799994,0.50799994 0 0 1 47.752124,76.2 0.50799994,0.50799994 0 0 1 48.260103,75.692021 Z m 0,2.539896 a 0.50799994,0.50799994 0 0 1 0.50798,0.50798 0.50799994,0.50799994 0 0 1 -0.50798,0.507979 0.50799994,0.50799994 0 0 1 -0.507979,-0.507979 0.50799994,0.50799994 0 0 1 0.507979,-0.50798 z m 0,2.539897 a 0.50799994,0.50799994 0 0 1 0.50798,0.507979 0.50799994,0.50799994 0 0 1 -0.50798,0.50798 0.50799994,0.50799994 0 0 1 -0.507979,-0.50798 0.50799994,0.50799994 0 0 1 0.507979,-0.507979 z m 0,2.540413 a 0.50799994,0.50799994 0 0 1 0.50798,0.50798 0.50799994,0.50799994 0 0 1 -0.50798,0.507979 0.50799994,0.50799994 0 0 1 -0.507979,-0.507979 0.50799994,0.50799994 0 0 1 0.507979,-0.50798 z m 0,2.539897 a 0.50799994,0.50799994 0 0 1 0.50798,0.507979 0.50799994,0.50799994 0 0 1 -0.50798,0.50798 0.50799994,0.50799994 0 0 1 -0.507979,-0.50798 0.50799994,0.50799994 0 0 1 0.507979,-0.507979 z m 0,2.539897 A 0.50799994,0.50799994 0 0 1 48.768083,88.9 0.50799994,0.50799994 0 0 1 48.260103,89.407979 0.50799994,0.50799994 0 0 1 47.752124,88.9 0.50799994,0.50799994 0 0 1 48.260103,88.392021 Z m 0,2.539896 a 0.50799994,0.50799994 0 0 1 0.50798,0.50798 0.50799994,0.50799994 0 0 1 -0.50798,0.507979 0.50799994,0.50799994 0 0 1 -0.507979,-0.507979 0.50799994,0.50799994 0 0 1 0.507979,-0.50798 z m 0,2.539897 a 0.50799994,0.50799994 0 0 1 0.50798,0.507979 0.50799994,0.50799994 0 0 1 -0.50798,0.50798 0.50799994,0.50799994 0 0 1 -0.507979,-0.50798 0.50799994,0.50799994 0 0 1 0.507979,-0.507979 z m 0,2.540413 a 0.50799994,0.50799994 0 0 1 0.50798,0.50798 0.50799994,0.50799994 0 0 1 -0.50798,0.507979 0.50799994,0.50799994 0 0 1 -0.507979,-0.507979 0.50799994,0.50799994 0 0 1 0.507979,-0.50798 z m 0,2.539897 a 0.50799994,0.50799994 0 0 1 0.50798,0.507979 0.50799994,0.50799994 0 0 1 -0.50798,0.50798 0.50799994,0.50799994 0 0 1 -0.507979,-0.50798 0.50799994,0.50799994 0 0 1 0.507979,-0.507979 z m 0,2.539896 a 0.50799994,0.50799994 0 0 1 0.50798,0.50798 0.50799994,0.50799994 0 0 1 -0.50798,0.50798 0.50799994,0.50799994 0 0 1 -0.507979,-0.50798 0.50799994,0.50799994 0 0 1 0.507979,-0.50798 z" />
      <path
         id="path1720"
         style="fill:#ffd42a;stroke-width:1.5"
         d="m 49.784041,57.403731 v 45.200339 h 2.031918 V 57.403731 Z M 50.8,57.912227 a 0.50799994,0.50799994 0 0 1 0.507979,0.50798 A 0.50799994,0.50799994 0 0 1 50.8,58.928186 0.50799994,0.50799994 0 0 1 50.292021,58.420207 0.50799994,0.50799994 0 0 1 50.8,57.912227 Z m 0,2.539897 A 0.50799994,0.50799994 0 0 1 51.307979,60.960103 0.50799994,0.50799994 0 0 1 50.8,61.468083 0.50799994,0.50799994 0 0 1 50.292021,60.960103 0.50799994,0.50799994 0 0 1 50.8,60.452124 Z m 0,2.539897 A 0.50799994,0.50799994 0 0 1 51.307979,63.5 0.50799994,0.50799994 0 0 1 50.8,64.007979 0.50799994,0.50799994 0 0 1 50.292021,63.5 0.50799994,0.50799994 0 0 1 50.8,62.992021 Z m 0,2.539896 a 0.50799994,0.50799994 0 0 1 0.507979,0.50798 A 0.50799994,0.50799994 0 0 1 50.8,66.547876 0.50799994,0.50799994 0 0 1 50.292021,66.039897 0.50799994,0.50799994 0 0 1 50.8,65.531917 Z m 0,2.539897 A 0.50799994,0.50799994 0 0 1 51.307979,68.579793 0.50799994,0.50799994 0 0 1 50.8,69.087773 0.50799994,0.50799994 0 0 1 50.292021,68.579793 0.50799994,0.50799994 0 0 1 50.8,68.071814 Z m 0,2.540413 a 0.50799994,0.50799994 0 0 1 0.507979,0.50798 A 0.50799994,0.50799994 0 0 1 50.8,71.628186 0.50799994,0.50799994 0 0 1 50.292021,71.120207 0.50799994,0.50799994 0 0 1 50.8,70.612227 Z m 0,2.539897 A 0.50799994,0.50799994 0 0 1 51.307979,73.660103 0.50799994,0.50799994 0 0 1 50.8,74.168083 0.50799994,0.50799994 0 0 1 50.292021,73.660103 0.50799994,0.50799994 0 0 1 50.8,73.152124 Z m 0,2.539897 A 0.50799994,0.50799994 0 0 1 51.307979,76.2 0.50799994,0.50799994 0 0 1 50.8,76.707979 0.50799994,0.50799994 0 0 1 50.292021,76.2 0.50799994,0.50799994 0 0 1 50.8,75.692021 Z m 0,2.539896 a 0.50799994,0.50799994 0 0 1 0.507979,0.50798 A 0.50799994,0.50799994 0 0 1 50.8,79.247876 0.50799994,0.50799994 0 0 1 50.292021,78.739897 0.50799994,0.50799994 0 0 1 50.8,78.231917 Z m 0,2.539897 A 0.50799994,0.50799994 0 0 1 51.307979,81.279793 0.50799994,0.50799994 0 0 1 50.8,81.787773 0.50799994,0.50799994 0 0 1 50.292021,81.279793 0.50799994,0.50799994 0 0 1 50.8,80.771814 Z m 0,2.540413 a 0.50799994,0.50799994 0 0 1 0.507979,0.50798 A 0.50799994,0.50799994 0 0 1 50.8,84.328186 0.50799994,0.50799994 0 0 1 50.292021,83.820207 0.50799994,0.50799994 0 0 1 50.8,83.312227 Z m 0,2.539897 A 0.50799994,0.50799994 0 0 1 51.307979,86.360103 0.50799994,0.50799994 0 0 1 50.8,86.868083 0.50799994,0.50799994 0 0 1 50.292021,86.360103 0.50799994,0.50799994 0 0 1 50.8,85.852124 Z m 0,2.539897 A 0.50799994,0.50799994 0 0 1 51.307979,88.9 0.50799994,0.50799994 0 0 1 50.8,89.407979 0.50799994,0.50799994 0 0 1 50.292021,88.9 0.50799994,0.50799994 0 0 1 50.8,88.392021 Z m 0,2.539896 a 0.50799994,0.50799994 0 0 1 0.507979,0.50798 A 0.50799994,0.50799994 0 0 1 50.8,91.947876 0.50799994,0.50799994 0 0 1 50.292021,91.439897 0.50799994,0.50799994 0 0 1 50.8,90.931917 Z m 0,2.539897 A 0.50799994,0.50799994 0 0 1 51.307979,93.979793 0.50799994,0.50799994 0 0 1 50.8,94.487773 0.50799994,0.50799994 0 0 1 50.292021,93.979793 0.50799994,0.50799994 0 0 1 50.8,93.471814 Z m 0,2.540413 a 0.50799994,0.50799994 0 0 1 0.507979,0.50798 A 0.50799994,0.50799994 0 0 1 50.8,97.028186 0.50799994,0.50799994 0 0 1 50.292021,96.520207 0.50799994,0.50799994 0 0 1 50.8,96.012227 Z m 0,2.539897 A 0.50799994,0.50799994 0 0 1 51.307979,99.060103 0.50799994,0.50799994 0 0 1 50.8,99.568083 0.50799994,0.50799994 0 0 1 50.292021,99.060103 0.50799994,0.50799994 0 0 1 50.8,98.552124 Z m 0,2.539896 A 0.50799994,0.50799994 0 0 1 51.307979,101.6 0.50799994,0.50799994 0 0 1 50.8,102.10798 0.50799994,0.50799994 0 0 1 50.292021,101.6 0.50799994,0.50799994 0 0 1 50.8,101.09202 Z" />
      <path
         id="path1722"
         style="fill:#ffd42a;stroke-width:1.5"
         d="m 52.323938,57.403731 v 45.200339 h 2.031917 V 57.403731 Z m 1.015959,0.508496 a 0.50799994,0.50799994 0 0 1 0.507979,0.50798 0.50799994,0.50799994 0 0 1 -0.507979,0.507979 0.50799994,0.50799994 0 0 1 -0.50798,-0.507979 0.50799994,0.50799994 0 0 1 0.50798,-0.50798 z m 0,2.539897 a 0.50799994,0.50799994 0 0 1 0.507979,0.507979 0.50799994,0.50799994 0 0 1 -0.507979,0.50798 0.50799994,0.50799994 0 0 1 -0.50798,-0.50798 0.50799994,0.50799994 0 0 1 0.50798,-0.507979 z m 0,2.539897 A 0.50799994,0.50799994 0 0 1 53.847876,63.5 0.50799994,0.50799994 0 0 1 53.339897,64.007979 0.50799994,0.50799994 0 0 1 52.831917,63.5 a 0.50799994,0.50799994 0 0 1 0.50798,-0.507979 z m 0,2.539896 a 0.50799994,0.50799994 0 0 1 0.507979,0.50798 0.50799994,0.50799994 0 0 1 -0.507979,0.507979 0.50799994,0.50799994 0 0 1 -0.50798,-0.507979 0.50799994,0.50799994 0 0 1 0.50798,-0.50798 z m 0,2.539897 a 0.50799994,0.50799994 0 0 1 0.507979,0.507979 0.50799994,0.50799994 0 0 1 -0.507979,0.50798 0.50799994,0.50799994 0 0 1 -0.50798,-0.50798 0.50799994,0.50799994 0 0 1 0.50798,-0.507979 z m 0,2.540413 a 0.50799994,0.50799994 0 0 1 0.507979,0.50798 0.50799994,0.50799994 0 0 1 -0.507979,0.507979 0.50799994,0.50799994 0 0 1 -0.50798,-0.507979 0.50799994,0.50799994 0 0 1 0.50798,-0.50798 z m 0,2.539897 a 0.50799994,0.50799994 0 0 1 0.507979,0.507979 0.50799994,0.50799994 0 0 1 -0.507979,0.50798 0.50799994,0.50799994 0 0 1 -0.50798,-0.50798 0.50799994,0.50799994 0 0 1 0.50798,-0.507979 z m 0,2.539897 A 0.50799994,0.50799994 0 0 1 53.847876,76.2 0.50799994,0.50799994 0 0 1 53.339897,76.707979 0.50799994,0.50799994 0 0 1 52.831917,76.2 a 0.50799994,0.50799994 0 0 1 0.50798,-0.507979 z m 0,2.539896 a 0.50799994,0.50799994 0 0 1 0.507979,0.50798 0.50799994,0.50799994 0 0 1 -0.507979,0.507979 0.50799994,0.50799994 0 0 1 -0.50798,-0.507979 0.50799994,0.50799994 0 0 1 0.50798,-0.50798 z m 0,2.539897 a 0.50799994,0.50799994 0 0 1 0.507979,0.507979 0.50799994,0.50799994 0 0 1 -0.507979,0.50798 0.50799994,0.50799994 0 0 1 -0.50798,-0.50798 0.50799994,0.50799994 0 0 1 0.50798,-0.507979 z m 0,2.540413 a 0.50799994,0.50799994 0 0 1 0.507979,0.50798 0.50799994,0.50799994 0 0 1 -0.507979,0.507979 0.50799994,0.50799994 0 0 1 -0.50798,-0.507979 0.50799994,0.50799994 0 0 1 0.50798,-0.50798 z m 0,2.539897 a 0.50799994,0.50799994 0 0 1 0.507979,0.507979 0.50799994,0.50799994 0 0 1 -0.507979,0.50798 0.50799994,0.50799994 0 0 1 -0.50798,-0.50798 0.50799994,0.50799994 0 0 1 0.50798,-0.507979 z m 0,2.539897 A 0.50799994,0.50799994 0 0 1 53.847876,88.9 0.50799994,0.50799994 0 0 1 53.339897,89.407979 0.50799994,0.50799994 0 0 1 52.831917,88.9 a 0.50799994,0.50799994 0 0 1 0.50798,-0.507979 z m 0,2.539896 a 0.50799994,0.50799994 0 0 1 0.507979,0.50798 0.50799994,0.50799994 0 0 1 -0.507979,0.507979 0.50799994,0.50799994 0 0 1 -0.50798,-0.507979 0.50799994,0.50799994 0 0 1 0.50798,-0.50798 z m 0,2.539897 a 0.50799994,0.50799994 0 0 1 0.507979,0.507979 0.50799994,0.50799994 0 0 1 -0.507979,0.50798 0.50799994,0.50799994 0 0 1 -0.50798,-0.50798 0.50799994,0.50799994 0 0 1 0.50798,-0.507979 z m 0,2.540413 a 0.50799994,0.50799994 0 0 1 0.507979,0.50798 0.50799994,0.50799994 0 0 1 -0.507979,0.507979 0.50799994,0.50799994 0 0 1 -0.50798,-0.507979 0.50799994,0.50799994 0 0 1 0.50798,-0.50798 z m 0,2.539897 a 0.50799994,0.50799994 0 0 1 0.507979,0.507979 0.50799994,0.50799994 0 0 1 -0.507979,0.50798 0.50799994,0.50799994 0 0 1 -0.50798,-0.50798 0.50799994,0.50799994 0 0 1 0.50798,-0.507979 z m 0,2.539896 a 0.50799994,0.50799994 0 0 1 0.507979,0.50798 0.50799994,0.50799994 0 0 1 -0.507979,0.50798 0.50799994,0.50799994 0 0 1 -0.50798,-0.50798 0.50799994,0.50799994 0 0 1 0.50798,-0.50798 z" />
      <path
         id="path1724"
         style="fill:#ffd42a;stroke-width:1.5"
         d="m 54.863835,57.403731 v 45.200339 h 2.031917 V 57.403731 Z m 1.015958,0.508496 a 0.50799994,0.50799994 0 0 1 0.50798,0.50798 0.50799994,0.50799994 0 0 1 -0.50798,0.507979 0.50799994,0.50799994 0 0 1 -0.507979,-0.507979 0.50799994,0.50799994 0 0 1 0.507979,-0.50798 z m 0,2.539897 a 0.50799994,0.50799994 0 0 1 0.50798,0.507979 0.50799994,0.50799994 0 0 1 -0.50798,0.50798 0.50799994,0.50799994 0 0 1 -0.507979,-0.50798 0.50799994,0.50799994 0 0 1 0.507979,-0.507979 z m 0,2.539897 A 0.50799994,0.50799994 0 0 1 56.387773,63.5 0.50799994,0.50799994 0 0 1 55.879793,64.007979 0.50799994,0.50799994 0 0 1 55.371814,63.5 0.50799994,0.50799994 0 0 1 55.879793,62.992021 Z m 0,2.539896 a 0.50799994,0.50799994 0 0 1 0.50798,0.50798 0.50799994,0.50799994 0 0 1 -0.50798,0.507979 0.50799994,0.50799994 0 0 1 -0.507979,-0.507979 0.50799994,0.50799994 0 0 1 0.507979,-0.50798 z m 0,2.539897 a 0.50799994,0.50799994 0 0 1 0.50798,0.507979 0.50799994,0.50799994 0 0 1 -0.50798,0.50798 0.50799994,0.50799994 0 0 1 -0.507979,-0.50798 0.50799994,0.50799994 0 0 1 0.507979,-0.507979 z m 0,2.540413 a 0.50799994,0.50799994 0 0 1 0.50798,0.50798 0.50799994,0.50799994 0 0 1 -0.50798,0.507979 0.50799994,0.50799994 0 0 1 -0.507979,-0.507979 0.50799994,0.50799994 0 0 1 0.507979,-0.50798 z m 0,2.539897 a 0.50799994,0.50799994 0 0 1 0.50798,0.507979 0.50799994,0.50799994 0 0 1 -0.50798,0.50798 0.50799994,0.50799994 0 0 1 -0.507979,-0.50798 0.50799994,0.50799994 0 0 1 0.507979,-0.507979 z m 0,2.539897 A 0.50799994,0.50799994 0 0 1 56.387773,76.2 0.50799994,0.50799994 0 0 1 55.879793,76.707979 0.50799994,0.50799994 0 0 1 55.371814,76.2 0.50799994,0.50799994 0 0 1 55.879793,75.692021 Z m 0,2.539896 a 0.50799994,0.50799994 0 0 1 0.50798,0.50798 0.50799994,0.50799994 0 0 1 -0.50798,0.507979 0.50799994,0.50799994 0 0 1 -0.507979,-0.507979 0.50799994,0.50799994 0 0 1 0.507979,-0.50798 z m 0,2.539897 a 0.50799994,0.50799994 0 0 1 0.50798,0.507979 0.50799994,0.50799994 0 0 1 -0.50798,0.50798 0.50799994,0.50799994 0 0 1 -0.507979,-0.50798 0.50799994,0.50799994 0 0 1 0.507979,-0.507979 z m 0,2.540413 a 0.50799994,0.50799994 0 0 1 0.50798,0.50798 0.50799994,0.50799994 0 0 1 -0.50798,0.507979 0.50799994,0.50799994 0 0 1 -0.507979,-0.507979 0.50799994,0.50799994 0 0 1 0.507979,-0.50798 z m 0,2.539897 a 0.50799994,0.50799994 0 0 1 0.50798,0.507979 0.50799994,0.50799994 0 0 1 -0.50798,0.50798 0.50799994,0.50799994 0 0 1 -0.507979,-0.50798 0.50799994,0.50799994 0 0 1 0.507979,-0.507979 z m 0,2.539897 A 0.50799994,0.50799994 0 0 1 56.387773,88.9 0.50799994,0.50799994 0 0 1 55.879793,89.407979 0.50799994,0.50799994 0 0 1 55.371814,88.9 0.50799994,0.50799994 0 0 1 55.879793,88.392021 Z m 0,2.539896 a 0.50799994,0.50799994 0 0 1 0.50798,0.50798 0.50799994,0.50799994 0 0 1 -0.50798,0.507979 0.50799994,0.50799994 0 0 1 -0.507979,-0.507979 0.50799994,0.50799994 0 0 1 0.507979,-0.50798 z m 0,2.539897 a 0.50799994,0.50799994 0 0 1 0.50798,0.507979 0.50799994,0.50799994 0 0 1 -0.50798,0.50798 0.50799994,0.50799994 0 0 1 -0.507979,-0.50798 0.50799994,0.50799994 0 0 1 0.507979,-0.507979 z m 0,2.540413 a 0.50799994,0.50799994 0 0 1 0.50798,0.50798 0.50799994,0.50799994 0 0 1 -0.50798,0.507979 0.50799994,0.50799994 0 0 1 -0.507979,-0.507979 0.50799994,0.50799994 0 0 1 0.507979,-0.50798 z m 0,2.539897 a 0.50799994,0.50799994 0 0 1 0.50798,0.507979 0.50799994,0.50799994 0 0 1 -0.50798,0.50798 0.50799994,0.50799994 0 0 1 -0.507979,-0.50798 0.50799994,0.50799994 0 0 1 0.507979,-0.507979 z m 0,2.539896 a 0.50799994,0.50799994 0 0 1 0.50798,0.50798 0.50799994,0.50799994 0 0 1 -0.50798,0.50798 0.50799994,0.50799994 0 0 1 -0.507979,-0.50798 0.50799994,0.50799994 0 0 1 0.507979,-0.50798 z" />
      <path
         id="path1726"
         style="fill:#ffd42a;stroke-width:1.5"
         d="m 57.403731,57.403731 v 45.200339 h 2.031918 V 57.403731 Z m 1.015959,0.508496 a 0.50799994,0.50799994 0 0 1 0.507979,0.50798 0.50799994,0.50799994 0 0 1 -0.507979,0.507979 0.50799994,0.50799994 0 0 1 -0.507979,-0.507979 0.50799994,0.50799994 0 0 1 0.507979,-0.50798 z m 0,2.539897 a 0.50799994,0.50799994 0 0 1 0.507979,0.507979 0.50799994,0.50799994 0 0 1 -0.507979,0.50798 0.50799994,0.50799994 0 0 1 -0.507979,-0.50798 0.50799994,0.50799994 0 0 1 0.507979,-0.507979 z m 0,2.539897 A 0.50799994,0.50799994 0 0 1 58.927669,63.5 0.50799994,0.50799994 0 0 1 58.41969,64.007979 0.50799994,0.50799994 0 0 1 57.911711,63.5 0.50799994,0.50799994 0 0 1 58.41969,62.992021 Z m 0,2.539896 a 0.50799994,0.50799994 0 0 1 0.507979,0.50798 0.50799994,0.50799994 0 0 1 -0.507979,0.507979 0.50799994,0.50799994 0 0 1 -0.507979,-0.507979 0.50799994,0.50799994 0 0 1 0.507979,-0.50798 z m 0,2.539897 a 0.50799994,0.50799994 0 0 1 0.507979,0.507979 0.50799994,0.50799994 0 0 1 -0.507979,0.50798 0.50799994,0.50799994 0 0 1 -0.507979,-0.50798 0.50799994,0.50799994 0 0 1 0.507979,-0.507979 z m 0,2.540413 a 0.50799994,0.50799994 0 0 1 0.507979,0.50798 0.50799994,0.50799994 0 0 1 -0.507979,0.507979 0.50799994,0.50799994 0 0 1 -0.507979,-0.507979 0.50799994,0.50799994 0 0 1 0.507979,-0.50798 z m 0,2.539897 a 0.50799994,0.50799994 0 0 1 0.507979,0.507979 0.50799994,0.50799994 0 0 1 -0.507979,0.50798 0.50799994,0.50799994 0 0 1 -0.507979,-0.50798 0.50799994,0.50799994 0 0 1 0.507979,-0.507979 z m 0,2.539897 A 0.50799994,0.50799994 0 0 1 58.927669,76.2 0.50799994,0.50799994 0 0 1 58.41969,76.707979 0.50799994,0.50799994 0 0 1 57.911711,76.2 0.50799994,0.50799994 0 0 1 58.41969,75.692021 Z m 0,2.539896 a 0.50799994,0.50799994 0 0 1 0.507979,0.50798 0.50799994,0.50799994 0 0 1 -0.507979,0.507979 0.50799994,0.50799994 0 0 1 -0.507979,-0.507979 0.50799994,0.50799994 0 0 1 0.507979,-0.50798 z m 0,2.539897 a 0.50799994,0.50799994 0 0 1 0.507979,0.507979 0.50799994,0.50799994 0 0 1 -0.507979,0.50798 0.50799994,0.50799994 0 0 1 -0.507979,-0.50798 0.50799994,0.50799994 0 0 1 0.507979,-0.507979 z m 0,2.540413 a 0.50799994,0.50799994 0 0 1 0.507979,0.50798 0.50799994,0.50799994 0 0 1 -0.507979,0.507979 0.50799994,0.50799994 0 0 1 -0.507979,-0.507979 0.50799994,0.50799994 0 0 1 0.507979,-0.50798 z m 0,2.539897 a 0.50799994,0.50799994 0 0 1 0.507979,0.507979 0.50799994,0.50799994 0 0 1 -0.507979,0.50798 0.50799994,0.50799994 0 0 1 -0.507979,-0.50798 0.50799994,0.50799994 0 0 1 0.507979,-0.507979 z m 0,2.539897 A 0.50799994,0.50799994 0 0 1 58.927669,88.9 0.50799994,0.50799994 0 0 1 58.41969,89.407979 0.50799994,0.50799994 0 0 1 57.911711,88.9 0.50799994,0.50799994 0 0 1 58.41969,88.392021 Z m 0,2.539896 a 0.50799994,0.50799994 0 0 1 0.507979,0.50798 0.50799994,0.50799994 0 0 1 -0.507979,0.507979 0.50799994,0.50799994 0 0 1 -0.507979,-0.507979 0.50799994,0.50799994 0 0 1 0.507979,-0.50798 z m 0,2.539897 a 0.50799994,0.50799994 0 0 1 0.507979,0.507979 0.50799994,0.50799994 0 0 1 -0.507979,0.50798 0.50799994,0.50799994 0 0 1 -0.507979,-0.50798 0.50799994,0.50799994 0 0 1 0.507979,-0.507979 z m 0,2.540413 a 0.50799994,0.50799994 0 0 1 0.507979,0.50798 0.50799994,0.50799994 0 0 1 -0.507979,0.507979 0.50799994,0.50799994 0 0 1 -0.507979,-0.507979 0.50799994,0.50799994 0 0 1 0.507979,-0.50798 z m 0,2.539897 a 0.50799994,0.50799994 0 0 1 0.507979,0.507979 0.50799994,0.50799994 0 0 1 -0.507979,0.50798 0.50799994,0.50799994 0 0 1 -0.507979,-0.50798 0.50799994,0.50799994 0 0 1 0.507979,-0.507979 z m 0,2.539896 A 0.50799994,0.50799994 0 0 1 58.927669,101.6 0.50799994,0.50799994 0 0 1 58.41969,102.10798 0.50799994,0.50799994 0 0 1 57.911711,101.6 0.50799994,0.50799994 0 0 1 58.41969,101.09202 Z" />
      <path
         id="path1728"
         style="fill:#ffd42a;stroke-width:1.5"
         d="m 59.944145,57.403731 v 45.200339 h 2.031917 V 57.403731 Z m 1.015958,0.508496 a 0.50799994,0.50799994 0 0 1 0.50798,0.50798 0.50799994,0.50799994 0 0 1 -0.50798,0.507979 0.50799994,0.50799994 0 0 1 -0.507979,-0.507979 0.50799994,0.50799994 0 0 1 0.507979,-0.50798 z m 0,2.539897 a 0.50799994,0.50799994 0 0 1 0.50798,0.507979 0.50799994,0.50799994 0 0 1 -0.50798,0.50798 0.50799994,0.50799994 0 0 1 -0.507979,-0.50798 0.50799994,0.50799994 0 0 1 0.507979,-0.507979 z m 0,2.539897 A 0.50799994,0.50799994 0 0 1 61.468083,63.5 0.50799994,0.50799994 0 0 1 60.960103,64.007979 0.50799994,0.50799994 0 0 1 60.452124,63.5 0.50799994,0.50799994 0 0 1 60.960103,62.992021 Z m 0,2.539896 a 0.50799994,0.50799994 0 0 1 0.50798,0.50798 0.50799994,0.50799994 0 0 1 -0.50798,0.507979 0.50799994,0.50799994 0 0 1 -0.507979,-0.507979 0.50799994,0.50799994 0 0 1 0.507979,-0.50798 z m 0,2.539897 a 0.50799994,0.50799994 0 0 1 0.50798,0.507979 0.50799994,0.50799994 0 0 1 -0.50798,0.50798 0.50799994,0.50799994 0 0 1 -0.507979,-0.50798 0.50799994,0.50799994 0 0 1 0.507979,-0.507979 z m 0,2.540413 a 0.50799994,0.50799994 0 0 1 0.50798,0.50798 0.50799994,0.50799994 0 0 1 -0.50798,0.507979 0.50799994,0.50799994 0 0 1 -0.507979,-0.507979 0.50799994,0.50799994 0 0 1 0.507979,-0.50798 z m 0,2.539897 a 0.50799994,0.50799994 0 0 1 0.50798,0.507979 0.50799994,0.50799994 0 0 1 -0.50798,0.50798 0.50799994,0.50799994 0 0 1 -0.507979,-0.50798 0.50799994,0.50799994 0 0 1 0.507979,-0.507979 z m 0,2.539897 A 0.50799994,0.50799994 0 0 1 61.468083,76.2 0.50799994,0.50799994 0 0 1 60.960103,76.707979 0.50799994,0.50799994 0 0 1 60.452124,76.2 0.50799994,0.50799994 0 0 1 60.960103,75.692021 Z m 0,2.539896 a 0.50799994,0.50799994 0 0 1 0.50798,0.50798 0.50799994,0.50799994 0 0 1 -0.50798,0.507979 0.50799994,0.50799994 0 0 1 -0.507979,-0.507979 0.50799994,0.50799994 0 0 1 0.507979,-0.50798 z m 0,2.539897 a 0.50799994,0.50799994 0 0 1 0.50798,0.507979 0.50799994,0.50799994 0 0 1 -0.50798,0.50798 0.50799994,0.50799994 0 0 1 -0.507979,-0.50798 0.50799994,0.50799994 0 0 1 0.507979,-0.507979 z m 0,2.540413 a 0.50799994,0.50799994 0 0 1 0.50798,0.50798 0.50799994,0.50799994 0 0 1 -0.50798,0.507979 0.50799994,0.50799994 0 0 1 -0.507979,-0.507979 0.50799994,0.50799994 0 0 1 0.507979,-0.50798 z m 0,2.539897 a 0.50799994,0.50799994 0 0 1 0.50798,0.507979 0.50799994,0.50799994 0 0 1 -0.50798,0.50798 0.50799994,0.50799994 0 0 1 -0.507979,-0.50798 0.50799994,0.50799994 0 0 1 0.507979,-0.507979 z m 0,2.539897 A 0.50799994,0.50799994 0 0 1 61.468083,88.9 0.50799994,0.50799994 0 0 1 60.960103,89.407979 0.50799994,0.50799994 0 0 1 60.452124,88.9 0.50799994,0.50799994 0 0 1 60.960103,88.392021 Z m 0,2.539896 a 0.50799994,0.50799994 0 0 1 0.50798,0.50798 0.50799994,0.50799994 0 0 1 -0.50798,0.507979 0.50799994,0.50799994 0 0 1 -0.507979,-0.507979 0.50799994,0.50799994 0 0 1 0.507979,-0.50798 z m 0,2.539897 a 0.50799994,0.50799994 0 0 1 0.50798,0.507979 0.50799994,0.50799994 0 0 1 -0.50798,0.50798 0.50799994,0.50799994 0 0 1 -0.507979,-0.50798 0.50799994,0.50799994 0 0 1 0.507979,-0.507979 z m 0,2.540413 a 0.50799994,0.50799994 0 0 1 0.50798,0.50798 0.50799994,0.50799994 0 0 1 -0.50798,0.507979 0.50799994,0.50799994 0 0 1 -0.507979,-0.507979 0.50799994,0.50799994 0 0 1 0.507979,-0.50798 z m 0,2.539897 a 0.50799994,0.50799994 0 0 1 0.50798,0.507979 0.50799994,0.50799994 0 0 1 -0.50798,0.50798 0.50799994,0.50799994 0 0 1 -0.507979,-0.50798 0.50799994,0.50799994 0 0 1 0.507979,-0.507979 z m 0,2.539896 a 0.50799994,0.50799994 0 0 1 0.50798,0.50798 0.50799994,0.50799994 0 0 1 -0.50798,0.50798 0.50799994,0.50799994 0 0 1 -0.507979,-0.50798 0.50799994,0.50799994 0 0 1 0.507979,-0.50798 z" />
      <path
         id="path1730"
         style="fill:#ffd42a;stroke-width:1.5"
         d="m 62.484041,57.403731 v 45.200339 h 2.031918 V 57.403731 Z M 63.5,57.912227 a 0.50799994,0.50799994 0 0 1 0.507979,0.50798 A 0.50799994,0.50799994 0 0 1 63.5,58.928186 0.50799994,0.50799994 0 0 1 62.992021,58.420207 0.50799994,0.50799994 0 0 1 63.5,57.912227 Z m 0,2.539897 A 0.50799994,0.50799994 0 0 1 64.007979,60.960103 0.50799994,0.50799994 0 0 1 63.5,61.468083 0.50799994,0.50799994 0 0 1 62.992021,60.960103 0.50799994,0.50799994 0 0 1 63.5,60.452124 Z m 0,2.539897 A 0.50799994,0.50799994 0 0 1 64.007979,63.5 0.50799994,0.50799994 0 0 1 63.5,64.007979 0.50799994,0.50799994 0 0 1 62.992021,63.5 0.50799994,0.50799994 0 0 1 63.5,62.992021 Z m 0,2.539896 a 0.50799994,0.50799994 0 0 1 0.507979,0.50798 A 0.50799994,0.50799994 0 0 1 63.5,66.547876 0.50799994,0.50799994 0 0 1 62.992021,66.039897 0.50799994,0.50799994 0 0 1 63.5,65.531917 Z m 0,2.539897 A 0.50799994,0.50799994 0 0 1 64.007979,68.579793 0.50799994,0.50799994 0 0 1 63.5,69.087773 0.50799994,0.50799994 0 0 1 62.992021,68.579793 0.50799994,0.50799994 0 0 1 63.5,68.071814 Z m 0,2.540413 a 0.50799994,0.50799994 0 0 1 0.507979,0.50798 A 0.50799994,0.50799994 0 0 1 63.5,71.628186 0.50799994,0.50799994 0 0 1 62.992021,71.120207 0.50799994,0.50799994 0 0 1 63.5,70.612227 Z m 0,2.539897 A 0.50799994,0.50799994 0 0 1 64.007979,73.660103 0.50799994,0.50799994 0 0 1 63.5,74.168083 0.50799994,0.50799994 0 0 1 62.992021,73.660103 0.50799994,0.50799994 0 0 1 63.5,73.152124 Z m 0,2.539897 A 0.50799994,0.50799994 0 0 1 64.007979,76.2 0.50799994,0.50799994 0 0 1 63.5,76.707979 0.50799994,0.50799994 0 0 1 62.992021,76.2 0.50799994,0.50799994 0 0 1 63.5,75.692021 Z m 0,2.539896 a 0.50799994,0.50799994 0 0 1 0.507979,0.50798 A 0.50799994,0.50799994 0 0 1 63.5,79.247876 0.50799994,0.50799994 0 0 1 62.992021,78.739897 0.50799994,0.50799994 0 0 1 63.5,78.231917 Z m 0,2.539897 A 0.50799994,0.50799994 0 0 1 64.007979,81.279793 0.50799994,0.50799994 0 0 1 63.5,81.787773 0.50799994,0.50799994 0 0 1 62.992021,81.279793 0.50799994,0.50799994 0 0 1 63.5,80.771814 Z m 0,2.540413 a 0.50799994,0.50799994 0 0 1 0.507979,0.50798 A 0.50799994,0.50799994 0 0 1 63.5,84.328186 0.50799994,0.50799994 0 0 1 62.992021,83.820207 0.50799994,0.50799994 0 0 1 63.5,83.312227 Z m 0,2.539897 A 0.50799994,0.50799994 0 0 1 64.007979,86.360103 0.50799994,0.50799994 0 0 1 63.5,86.868083 0.50799994,0.50799994 0 0 1 62.992021,86.360103 0.50799994,0.50799994 0 0 1 63.5,85.852124 Z m 0,2.539897 A 0.50799994,0.50799994 0 0 1 64.007979,88.9 0.50799994,0.50799994 0 0 1 63.5,89.407979 0.50799994,0.50799994 0 0 1 62.992021,88.9 0.50799994,0.50799994 0 0 1 63.5,88.392021 Z m 0,2.539896 a 0.50799994,0.50799994 0 0 1 0.507979,0.50798 A 0.50799994,0.50799994 0 0 1 63.5,91.947876 0.50799994,0.50799994 0 0 1 62.992021,91.439897 0.50799994,0.50799994 0 0 1 63.5,90.931917 Z m 0,2.539897 A 0.50799994,0.50799994 0 0 1 64.007979,93.979793 0.50799994,0.50799994 0 0 1 63.5,94.487773 0.50799994,0.50799994 0 0 1 62.992021,93.979793 0.50799994,0.50799994 0 0 1 63.5,93.471814 Z m 0,2.540413 a 0.50799994,0.50799994 0 0 1 0.507979,0.50798 A 0.50799994,0.50799994 0 0 1 63.5,97.028186 0.50799994,0.50799994 0 0 1 62.992021,96.520207 0.50799994,0.50799994 0 0 1 63.5,96.012227 Z m 0,2.539897 A 0.50799994,0.50799994 0 0 1 64.007979,99.060103 0.50799994,0.50799994 0 0 1 63.5,99.568083 0.50799994,0.50799994 0 0 1 62.992021,99.060103 0.50799994,0.50799994 0 0 1 63.5,98.552124 Z m 0,2.539896 A 0.50799994,0.50799994 0 0 1 64.007979,101.6 0.50799994,0.50799994 0 0 1 63.5,102.10798 0.50799994,0.50799994 0 0 1 62.992021,101.6 0.50799994,0.50799994 0 0 1 63.5,101.09202 Z" />
    </g>
    <rect
       style="fill:none;stroke:#0000ff;stroke-width:0.254311;stroke-linejoin:round"
       id="rect8"
       width="24.382698"
       height="47.364288"
       x="41.148003"
       y="56.267712"
       inkscape:label="board outline" />
  </g>
  <g
     inkscape:groupmode="layer"
     id="layer3"
     inkscape:label="Board cuts">
    <circle
       style="fill:#b3b3b3;stroke:none;stroke-width:0.755906;stroke-linejoin:round;stroke-miterlimit:4;stroke-dasharray:none"
       id="circle30"
       cx="45.725704"
       cy="91.447258"
       r="1.143" />
    <circle
       style="fill:#b3b3b3;stroke:none;stroke-width:0.755906;stroke-linejoin:round;stroke-miterlimit:4;stroke-dasharray:none"
       id="circle3180"
       cx="60.959846"
       cy="91.440002"
       r="1.143" />
    <circle
       style="fill:#b3b3b3;stroke:none;stroke-width:0.755906;stroke-linejoin:round;stroke-miterlimit:4;stroke-dasharray:none"
       id="circle32"
       cx="53.345707"
       cy="91.447258"
       r="1.143" />
    <circle
       style="fill:#b3b3b3;stroke:none;stroke-width:0.755906;stroke-linejoin:round;stroke-miterlimit:4;stroke-dasharray:none"
       id="circle45"
       cx="48.259842"
       cy="81.279999"
       r="1.143" />
    <circle
       style="fill:#b3b3b3;stroke:none;stroke-width:0.755906;stroke-linejoin:round;stroke-miterlimit:4;stroke-dasharray:none"
       id="circle46"
       cx="53.339844"
       cy="81.279999"
       r="1.143" />
    <circle
       style="fill:#b3b3b3;stroke:none;stroke-width:0.755906;stroke-linejoin:round;stroke-miterlimit:4;stroke-dasharray:none"
       id="circle53"
       cx="43.17984"
       cy="73.659996"
       r="1.143" />
    <circle
       style="fill:#b3b3b3;stroke:none;stroke-width:0.755906;stroke-linejoin:round;stroke-miterlimit:4;stroke-dasharray:none"
       id="circle55"
       cx="48.259842"
       cy="73.659996"
       r="1.143" />
    <circle
       style="fill:#b3b3b3;stroke:none;stroke-width:0.755906;stroke-linejoin:round;stroke-miterlimit:4;stroke-dasharray:none"
       id="circle60"
       cx="63.499847"
       cy="68.579994"
       r="1.143" />
    <circle
       style="fill:#b3b3b3;stroke:none;stroke-width:0.755906;stroke-linejoin:round;stroke-miterlimit:4;stroke-dasharray:none"
       id="circle61"
       cx="48.265705"
       cy="91.447258"
       r="1.143" />
    <text
       xml:space="preserve"
       transform="scale(0.26458333)"
       id="text27"
       style="font-size:13.3333px;line-height:1.25;font-family:Bahnschrift;-inkscape-font-specification:Bahnschrift;text-align:center;white-space:pre;shape-inside:url(#rect27);display:inline" />
    <text
       xml:space="preserve"
       style="font-size:2.11667px;line-height:1.25;font-family:'Palatino Linotype';-inkscape-font-specification:'Palatino Linotype';text-align:center;text-anchor:middle;stroke-width:0.264583"
       x="101.62568"
       y="-14.948777"
       id="text34"
       transform="rotate(70)"><tspan
         sodipodi:role="line"
         id="tspan34"
         style="font-style:normal;font-variant:normal;font-weight:normal;font-stretch:normal;font-size:2.11667px;font-family:Bahnschrift;-inkscape-font-specification:Bahnschrift;stroke-width:0.264583"
         x="101.62568"
         y="-14.948777">R6</tspan></text>
    <circle
       style="fill:#b3b3b3;stroke:none;stroke-width:0.755906;stroke-linejoin:round;stroke-miterlimit:4;stroke-dasharray:none"
       id="circle34"
       cx="58.419846"
       cy="73.659996"
       r="1.143" />
  </g>
  <g
     inkscape:label="Layer 1"
     inkscape:groupmode="layer"
     id="layer1">
    <path
       style="fill:none;stroke:#000000;stroke-width:0.265;stroke-linecap:butt;stroke-linejoin:miter;stroke-miterlimit:4;stroke-dasharray:none;stroke-opacity:1;marker-start:url(#DotS);marker-end:url(#marker5005)"
       d="m 50.800003,88.9 h 5.08"
       id="path9322" />
    <g
       id="g47"
       transform="rotate(180,45.720002,90.164708)">
      <text
         xml:space="preserve"
         style="font-size:2.11667px;line-height:1.25;font-family:'Palatino Linotype';-inkscape-font-specification:'Palatino Linotype';text-align:center;text-anchor:middle;stroke-width:0.264583"
         x="-90.185379"
         y="46.471378"
         id="text61"
         transform="rotate(-90)"><tspan
           sodipodi:role="line"
           id="tspan61"
           style="font-style:normal;font-variant:normal;font-weight:normal;font-stretch:normal;font-size:2.11667px;font-family:Bahnschrift;-inkscape-font-specification:Bahnschrift;stroke-width:0.264583"
           x="-90.185379"
           y="46.471378">R3</tspan></text>
      <g
         id="g10350"
         transform="translate(-50.799996,27.940001)"
         inkscape:label="R3">
        <rect
           style="fill:none;stroke:#000000;stroke-width:0.264999;stroke-linejoin:round;stroke-miterlimit:4;stroke-dasharray:none"
           id="rect10151"
           width="2.0319998"
           height="5.0799999"
           x="95.503998"
           y="59.690002" />
        <path
           style="fill:none;stroke:#000000;stroke-width:0.264583px;stroke-linecap:butt;stroke-linejoin:miter;stroke-opacity:1;marker-start:url(#marker10329)"
           d="m 96.519999,58.419999 v 1.27"
           id="path10186" />
        <path
           style="fill:none;stroke:#000000;stroke-width:0.264583px;stroke-linecap:butt;stroke-linejoin:miter;stroke-opacity:1;marker-end:url(#marker10339)"
           d="m 96.519999,64.769999 v 1.27"
           id="path10188" />
      </g>
    </g>
    <g
       id="g7"
       transform="translate(2.5421261,-2.5388461)"
       inkscape:label="Connector">
      <ellipse
         style="fill:#000000;stroke:none;stroke-width:0.2;stroke-linejoin:round;stroke-miterlimit:4;stroke-dasharray:none"
         id="circle2278"
         ry="0.50682354"
         rx="0.50598139"
         cy="101.59885"
         cx="40.637981" />
      <ellipse
         style="fill:#000000;stroke:none;stroke-width:0.2;stroke-linejoin:round;stroke-miterlimit:4;stroke-dasharray:none"
         id="ellipse1"
         ry="0.50682354"
         rx="0.50598139"
         cy="101.59885"
         cx="43.179897" />
      <ellipse
         style="fill:#000000;stroke:none;stroke-width:0.2;stroke-linejoin:round;stroke-miterlimit:4;stroke-dasharray:none"
         id="ellipse2"
         ry="0.50682354"
         rx="0.50598139"
         cy="101.59885"
         cx="45.721813" />
      <ellipse
         style="fill:#000000;stroke:none;stroke-width:0.2;stroke-linejoin:round;stroke-miterlimit:4;stroke-dasharray:none"
         id="ellipse3"
         ry="0.50682354"
         rx="0.50598139"
         cy="101.59885"
         cx="48.259895" />
      <ellipse
         style="fill:#000000;stroke:none;stroke-width:0.2;stroke-linejoin:round;stroke-miterlimit:4;stroke-dasharray:none"
         id="ellipse4"
         ry="0.50682354"
         rx="0.50598139"
         cy="101.6"
         cx="50.802021" />
      <ellipse
         style="fill:#000000;stroke:none;stroke-width:0.2;stroke-linejoin:round;stroke-miterlimit:4;stroke-dasharray:none"
         id="ellipse5"
         ry="0.50682354"
         rx="0.50598139"
         cy="101.59882"
         cx="53.340004" />
      <ellipse
         style="fill:#000000;stroke:none;stroke-width:0.2;stroke-linejoin:round;stroke-miterlimit:4;stroke-dasharray:none"
         id="ellipse6"
         ry="0.50682354"
         rx="0.50598139"
         cy="101.59885"
         cx="55.879894" />
      <ellipse
         style="fill:#000000;stroke:none;stroke-width:0.2;stroke-linejoin:round;stroke-miterlimit:4;stroke-dasharray:none"
         id="ellipse7"
         ry="0.50682354"
         rx="0.50598139"
         cy="101.59882"
         cx="58.420002" />
      <rect
         style="fill:none;stroke:#0000ff;stroke-width:0.264999;stroke-linejoin:round"
         id="rect7"
         width="19.812063"
         height="2.0356436"
         x="39.623936"
         y="100.58036" />
    </g>
    <text
       xml:space="preserve"
       style="font-size:2.11667px;line-height:1.25;font-family:'Palatino Linotype';-inkscape-font-specification:'Palatino Linotype';text-align:end;text-anchor:end;stroke-width:0.264583"
       x="-104.17506"
       y="43.898624"
       id="text22"
       transform="rotate(-90)"><tspan
         sodipodi:role="line"
         id="tspan22"
         style="font-size:2.11667px;text-align:end;text-anchor:end;stroke-width:0.264583"
         x="-104.17506"
         y="43.898624">In Lo</tspan></text>
    <text
       xml:space="preserve"
       style="font-size:2.11667px;line-height:1.25;font-family:'Palatino Linotype';-inkscape-font-specification:'Palatino Linotype';text-align:end;text-anchor:end;stroke-width:0.264583"
       x="-104.19366"
       y="46.47583"
       id="text23"
       transform="rotate(-90)"><tspan
         sodipodi:role="line"
         id="tspan23"
         style="font-size:2.11667px;text-align:end;text-anchor:end;stroke-width:0.264583"
         x="-104.19366"
         y="46.47583">In Hi</tspan></text>
    <text
       xml:space="preserve"
       style="font-size:2.11667px;line-height:1.25;font-family:'Palatino Linotype';-inkscape-font-specification:'Palatino Linotype';text-align:end;text-anchor:end;stroke-width:0.264583"
       x="-104.22466"
       y="48.98896"
       id="text24"
       transform="rotate(-90)"><tspan
         sodipodi:role="line"
         id="tspan24"
         style="font-size:2.11667px;text-align:end;text-anchor:end;stroke-width:0.264583"
         x="-104.22466"
         y="48.98896">Common</tspan></text>
    <text
       xml:space="preserve"
       style="font-size:2.11667px;line-height:1.25;font-family:'Palatino Linotype';-inkscape-font-specification:'Palatino Linotype';text-align:end;text-anchor:end;stroke-width:0.264583"
       x="-104.18643"
       y="51.555832"
       id="text25"
       transform="rotate(-90)"><tspan
         sodipodi:role="line"
         id="tspan25"
         style="font-size:2.11667px;text-align:end;text-anchor:end;stroke-width:0.264583"
         x="-104.18643"
         y="51.555832">V-</tspan></text>
    <text
       xml:space="preserve"
       style="font-size:2.11667px;line-height:1.25;font-family:'Palatino Linotype';-inkscape-font-specification:'Palatino Linotype';text-align:end;text-anchor:end;stroke-width:0.264583"
       x="-104.21433"
       y="54.100998"
       id="text26"
       transform="rotate(-90)"><tspan
         sodipodi:role="line"
         id="tspan26"
         style="font-size:2.11667px;text-align:end;text-anchor:end;stroke-width:0.264583"
         x="-104.21433"
         y="54.100998">V+</tspan></text>
    <text
       xml:space="preserve"
       style="font-size:2.11667px;line-height:1.25;font-family:'Palatino Linotype';-inkscape-font-specification:'Palatino Linotype';text-align:end;text-anchor:end;stroke-width:0.264583"
       x="-104.17506"
       y="56.624462"
       id="text28"
       transform="rotate(-90)"><tspan
         sodipodi:role="line"
         id="tspan28"
         style="font-size:2.11667px;text-align:end;text-anchor:end;stroke-width:0.264583"
         x="-104.17506"
         y="56.624462">Ref Lo</tspan></text>
    <text
       xml:space="preserve"
       style="font-size:2.11667px;line-height:1.25;font-family:'Palatino Linotype';-inkscape-font-specification:'Palatino Linotype';text-align:end;text-anchor:end;stroke-width:0.264583"
       x="-104.19366"
       y="59.176865"
       id="text29"
       transform="rotate(-90)"><tspan
         sodipodi:role="line"
         id="tspan29"
         style="font-size:2.11667px;text-align:end;text-anchor:end;stroke-width:0.264583"
         x="-104.19366"
         y="59.176865">Ref Hi</tspan></text>
    <text
       xml:space="preserve"
       style="font-size:2.11667px;line-height:1.25;font-family:'Palatino Linotype';-inkscape-font-specification:'Palatino Linotype';text-align:end;text-anchor:end;stroke-width:0.264583"
       x="-104.2288"
       y="61.718933"
       id="text30"
       transform="rotate(-90)"><tspan
         sodipodi:role="line"
         id="tspan30"
         style="font-size:2.11667px;text-align:end;text-anchor:end;stroke-width:0.264583"
         x="-104.2288"
         y="61.718933">Test</tspan></text>
    <path
       style="fill:none;stroke:#000000;stroke-width:0.265;stroke-linecap:butt;stroke-linejoin:miter;stroke-miterlimit:4;stroke-dasharray:none;stroke-opacity:1;marker-start:url(#DotS);marker-end:url(#marker5005)"
       d="M 53.345352,93.972741 63.500003,93.98"
       id="path30"
       sodipodi:nodetypes="cc" />
    <g
       id="g37"
       transform="translate(-58.42)">
      <circle
         style="fill:#000000;stroke:none;stroke-width:0.2;stroke-linejoin:round;stroke-miterlimit:4;stroke-dasharray:none"
         id="circle2260"
         cx="101.60001"
         cy="63.5"
         r="0.50799996" />
      <circle
         style="fill:#000000;stroke:none;stroke-width:0.2;stroke-linejoin:round;stroke-miterlimit:4;stroke-dasharray:none"
         id="circle35"
         cx="104.14001"
         cy="63.5"
         r="0.50799996" />
      <circle
         style="fill:#000000;stroke:none;stroke-width:0.2;stroke-linejoin:round;stroke-miterlimit:4;stroke-dasharray:none"
         id="circle36"
         cx="106.68001"
         cy="63.5"
         r="0.50799996" />
      <path
         id="path36"
         style="fill:none;stroke:#1a1a1a;stroke-width:0.264999;stroke-linejoin:round"
         d="m 106.46572,62.478912 a 2.54,2.54 0 0 1 -0.76676,3.026388 2.54,2.54 0 0 1 -3.122,-0.0032 2.54,2.54 0 0 1 -0.7606,-3.027941 z" />
    </g>
    <g
       id="g40"
       transform="translate(0,2.54)">
      <text
         xml:space="preserve"
         style="font-size:2.11667px;line-height:1.25;font-family:'Palatino Linotype';-inkscape-font-specification:'Palatino Linotype';text-align:center;text-anchor:middle;stroke-width:0.264583"
         x="45.671898"
         y="79.49189"
         id="text64"><tspan
           sodipodi:role="line"
           id="tspan64"
           style="font-style:normal;font-variant:normal;font-weight:normal;font-stretch:normal;font-size:2.11667px;font-family:Bahnschrift;-inkscape-font-specification:Bahnschrift;stroke-width:0.264583"
           x="45.671898"
           y="79.49189">RV1</tspan></text>
      <g
         id="g41"
         transform="translate(-63.5,5.08)">
        <circle
           style="fill:#000000;stroke:none;stroke-width:0.2;stroke-linejoin:round;stroke-miterlimit:4;stroke-dasharray:none"
           id="circle2262"
           cx="111.76001"
           cy="76.200005"
           r="0.50799996"
           inkscape:transform-center-x="0.79512684" />
        <circle
           style="fill:#000000;stroke:none;stroke-width:0.2;stroke-linejoin:round;stroke-miterlimit:4;stroke-dasharray:none"
           id="circle39"
           cx="111.76001"
           cy="71.120003"
           r="0.50799996"
           inkscape:transform-center-x="0.79512684" />
        <circle
           style="fill:#000000;stroke:none;stroke-width:0.2;stroke-linejoin:round;stroke-miterlimit:4;stroke-dasharray:none"
           id="circle40"
           cx="106.68001"
           cy="73.660004"
           r="0.50799996"
           inkscape:transform-center-x="0.79512684" />
        <circle
           style="fill:none;stroke:#1a1a1a;stroke-width:0.264999;stroke-linejoin:round"
           id="path40"
           cx="109.22"
           cy="73.659996"
           r="2.54" />
        <rect
           style="fill:none;stroke:#1a1a1a;stroke-width:0.264999;stroke-linejoin:round"
           id="rect41"
           width="6.1922126"
           height="6.0959978"
           x="106.07579"
           y="70.612" />
      </g>
    </g>
    <g
       id="g42"
       transform="translate(0,2.54)">
      <text
         xml:space="preserve"
         style="font-size:2.11667px;line-height:1.25;font-family:'Palatino Linotype';-inkscape-font-specification:'Palatino Linotype';text-align:center;text-anchor:middle;stroke-width:0.264583"
         x="55.831902"
         y="79.49189"
         id="text65"><tspan
           sodipodi:role="line"
           style="font-style:normal;font-variant:normal;font-weight:normal;font-stretch:normal;font-size:2.11667px;font-family:Bahnschrift;-inkscape-font-specification:Bahnschrift;stroke-width:0.264583"
           x="55.831902"
           y="79.49189"
           id="tspan66">RV2</tspan></text>
      <g
         id="g44"
         transform="rotate(180,82.501897,76.199998)">
        <circle
           style="fill:#000000;stroke:none;stroke-width:0.2;stroke-linejoin:round;stroke-miterlimit:4;stroke-dasharray:none"
           id="circle41"
           cx="111.76001"
           cy="76.200005"
           r="0.50799996"
           inkscape:transform-center-x="0.79512684" />
        <circle
           style="fill:#000000;stroke:none;stroke-width:0.2;stroke-linejoin:round;stroke-miterlimit:4;stroke-dasharray:none"
           id="circle42"
           cx="111.76001"
           cy="71.120003"
           r="0.50799996"
           inkscape:transform-center-x="0.79512684" />
        <circle
           style="fill:#000000;stroke:none;stroke-width:0.2;stroke-linejoin:round;stroke-miterlimit:4;stroke-dasharray:none"
           id="circle43"
           cx="106.68001"
           cy="73.660004"
           r="0.50799996"
           inkscape:transform-center-x="0.79512684" />
        <circle
           style="fill:none;stroke:#1a1a1a;stroke-width:0.264999;stroke-linejoin:round"
           id="circle44"
           cx="109.22"
           cy="73.659996"
           r="2.54" />
        <rect
           style="fill:none;stroke:#1a1a1a;stroke-width:0.264999;stroke-linejoin:round"
           id="rect44"
           width="6.1922126"
           height="6.0959978"
           x="106.07579"
           y="70.612" />
      </g>
    </g>
    <g
       id="g46"
       transform="translate(0,2.54)">
      <text
         xml:space="preserve"
         style="font-size:2.11667px;line-height:1.25;font-family:'Palatino Linotype';-inkscape-font-specification:'Palatino Linotype';text-align:center;text-anchor:middle;stroke-width:0.264583"
         x="54.599792"
         y="74.404144"
         id="text63"><tspan
           sodipodi:role="line"
           id="tspan63"
           style="font-style:normal;font-variant:normal;font-weight:normal;font-stretch:normal;font-size:2.11667px;font-family:Bahnschrift;-inkscape-font-specification:Bahnschrift;stroke-width:0.264583"
           x="54.599792"
           y="74.404144">R5</tspan></text>
      <g
         id="g49"
         transform="rotate(90,69.850002,46.990004)"
         inkscape:label="R3">
        <rect
           style="fill:none;stroke:#000000;stroke-width:0.264999;stroke-linejoin:round;stroke-miterlimit:4;stroke-dasharray:none"
           id="rect47"
           width="2.0319998"
           height="5.0799999"
           x="95.503998"
           y="59.690002" />
        <path
           style="fill:none;stroke:#000000;stroke-width:0.264583px;stroke-linecap:butt;stroke-linejoin:miter;stroke-opacity:1;marker-start:url(#marker10329)"
           d="m 96.519999,55.880003 v 3.809996"
           id="path48"
           sodipodi:nodetypes="cc" />
        <path
           style="fill:none;stroke:#000000;stroke-width:0.264583px;stroke-linecap:butt;stroke-linejoin:miter;stroke-opacity:1;marker-end:url(#marker10339)"
           d="m 96.519999,64.769999 -10e-7,3.810004"
           id="path49"
           sodipodi:nodetypes="cc" />
      </g>
    </g>
    <g
       id="g39"
       transform="translate(0,2.54)">
      <text
         xml:space="preserve"
         style="font-size:2.11667px;line-height:1.25;font-family:'Palatino Linotype';-inkscape-font-specification:'Palatino Linotype';text-align:center;text-anchor:middle;stroke-width:0.264583"
         x="57.139793"
         y="84.564148"
         id="text68"><tspan
           sodipodi:role="line"
           id="tspan68"
           style="font-style:normal;font-variant:normal;font-weight:normal;font-stretch:normal;font-size:2.11667px;font-family:Bahnschrift;-inkscape-font-specification:Bahnschrift;stroke-width:0.264583"
           x="57.139793"
           y="84.564148">R7</tspan></text>
      <g
         id="g51"
         transform="rotate(90,66.040002,53.340004)"
         inkscape:label="R3">
        <rect
           style="fill:none;stroke:#000000;stroke-width:0.264999;stroke-linejoin:round;stroke-miterlimit:4;stroke-dasharray:none"
           id="rect49"
           width="2.0319998"
           height="5.0799999"
           x="95.503998"
           y="59.690002" />
        <path
           style="fill:none;stroke:#000000;stroke-width:0.264583px;stroke-linecap:butt;stroke-linejoin:miter;stroke-opacity:1;marker-start:url(#marker10329)"
           d="m 96.519999,58.419999 v 1.27"
           id="path50" />
        <path
           style="fill:none;stroke:#000000;stroke-width:0.264583px;stroke-linecap:butt;stroke-linejoin:miter;stroke-opacity:1;marker-end:url(#marker10339)"
           d="m 96.519999,64.769999 v 1.27"
           id="path51" />
      </g>
    </g>
    <g
       id="g35">
      <text
         xml:space="preserve"
         style="font-size:2.11667px;line-height:1.25;font-family:'Palatino Linotype';-inkscape-font-specification:'Palatino Linotype';text-align:center;text-anchor:middle;stroke-width:0.264583"
         x="48.236591"
         y="69.331375"
         id="text69"><tspan
           sodipodi:role="line"
           id="tspan69"
           style="font-style:normal;font-variant:normal;font-weight:normal;font-stretch:normal;font-size:2.11667px;font-family:Bahnschrift;-inkscape-font-specification:Bahnschrift;stroke-width:0.264583"
           x="48.236591"
           y="69.331375">R8</tspan></text>
      <g
         id="g53"
         transform="rotate(90,68.580002,40.640004)"
         inkscape:label="R3">
        <rect
           style="fill:none;stroke:#000000;stroke-width:0.264999;stroke-linejoin:round;stroke-miterlimit:4;stroke-dasharray:none"
           id="rect51"
           width="2.0319998"
           height="5.0799999"
           x="95.503998"
           y="58.420002" />
        <path
           style="fill:none;stroke:#000000;stroke-width:0.264583px;stroke-linecap:butt;stroke-linejoin:miter;stroke-opacity:1;marker-start:url(#marker10329)"
           d="m 96.519999,55.880003 -10e-7,2.54"
           id="path52"
           sodipodi:nodetypes="cc" />
        <path
           style="fill:none;stroke:#000000;stroke-width:0.264583px;stroke-linecap:butt;stroke-linejoin:miter;stroke-opacity:1;marker-end:url(#marker10339)"
           d="m 96.519998,63.500003 v 2.540001"
           id="path53"
           sodipodi:nodetypes="cc" />
      </g>
    </g>
    <path
       style="fill:none;stroke:#000000;stroke-width:0.265;stroke-linecap:butt;stroke-linejoin:miter;stroke-miterlimit:4;stroke-dasharray:none;stroke-opacity:1;marker-start:url(#DotS);marker-end:url(#marker5005)"
       d="m 43.180003,66.04 h 7.62"
       id="path54"
       sodipodi:nodetypes="cc" />
    <path
       style="fill:none;stroke:#000000;stroke-width:0.265;stroke-linecap:butt;stroke-linejoin:miter;stroke-miterlimit:4;stroke-dasharray:none;stroke-opacity:1;marker-start:url(#DotS);marker-end:url(#marker5005)"
       d="M 48.260002,71.12 H 63.500003"
       id="path55"
       sodipodi:nodetypes="cc" />
    <g
       id="g58"
       transform="translate(-43.18,2.54)">
      <circle
         style="fill:#000000;stroke:none;stroke-width:0.2;stroke-linejoin:round;stroke-miterlimit:4;stroke-dasharray:none"
         id="circle56"
         cx="101.60001"
         cy="63.5"
         r="0.50799996" />
      <circle
         style="fill:#000000;stroke:none;stroke-width:0.2;stroke-linejoin:round;stroke-miterlimit:4;stroke-dasharray:none"
         id="circle57"
         cx="104.14001"
         cy="63.5"
         r="0.50799996" />
      <circle
         style="fill:#000000;stroke:none;stroke-width:0.2;stroke-linejoin:round;stroke-miterlimit:4;stroke-dasharray:none"
         id="circle58"
         cx="106.68001"
         cy="63.5"
         r="0.50799996" />
      <path
         id="path58"
         style="fill:none;stroke:#1a1a1a;stroke-width:0.264999;stroke-linejoin:round"
         d="m 106.46572,62.478912 a 2.54,2.54 0 0 1 -0.76676,3.026388 2.54,2.54 0 0 1 -3.122,-0.0032 2.54,2.54 0 0 1 -0.7606,-3.027941 z" />
    </g>
    <g
       id="g43"
       transform="translate(0,2.54)">
      <text
         xml:space="preserve"
         style="font-size:2.11667px;line-height:1.25;font-family:'Palatino Linotype';-inkscape-font-specification:'Palatino Linotype';text-align:center;text-anchor:middle;stroke-width:0.264583"
         x="96.42205"
         y="-30.357803"
         id="text62"
         transform="rotate(70)"><tspan
           sodipodi:role="line"
           id="tspan62"
           style="font-style:normal;font-variant:normal;font-weight:normal;font-stretch:normal;font-size:2.11667px;font-family:Bahnschrift;-inkscape-font-specification:Bahnschrift;stroke-width:0.264583"
           x="96.42205"
           y="-30.357803">R4</tspan></text>
      <g
         id="g60"
         transform="matrix(-0.95943224,0.34569513,-0.33202149,-0.99894454,175.4911,108.8038)"
         inkscape:label="R3"
         inkscape:transform-center-x="1.2599991"
         inkscape:transform-center-y="-3.8124087">
        <rect
           style="fill:none;stroke:#000000;stroke-width:0.264999;stroke-linejoin:round;stroke-miterlimit:4;stroke-dasharray:none"
           id="rect58"
           width="2.0319998"
           height="5.0799999"
           x="95.503998"
           y="59.690002" />
        <path
           style="fill:none;stroke:#000000;stroke-width:0.264583px;stroke-linecap:butt;stroke-linejoin:miter;stroke-opacity:1;marker-start:url(#marker10329)"
           d="m 96.519999,58.419999 v 1.27"
           id="path59" />
        <path
           style="fill:none;stroke:#000000;stroke-width:0.264583px;stroke-linecap:butt;stroke-linejoin:miter;stroke-opacity:1;marker-end:url(#marker10339)"
           d="m 96.519999,64.769999 v 1.27"
           id="path60" />
      </g>
    </g>
    <path
       style="fill:none;stroke:#000000;stroke-width:0.265;stroke-linecap:butt;stroke-linejoin:miter;stroke-miterlimit:4;stroke-dasharray:none;stroke-opacity:1;marker-start:url(#DotS);marker-end:url(#marker5005)"
       d="m 55.880003,68.58 h 2.54"
       id="path61"
       sodipodi:nodetypes="cc" />
    <g
       id="g45"
       transform="translate(0,1.27)">
      <text
         xml:space="preserve"
         style="font-size:2.11667px;line-height:1.25;font-family:'Palatino Linotype';-inkscape-font-specification:'Palatino Linotype';text-align:center;text-anchor:middle;stroke-width:0.264583"
         x="39.479752"
         y="73.144089"
         id="text20"><tspan
           sodipodi:role="line"
           id="tspan20"
           style="font-style:normal;font-variant:normal;font-weight:normal;font-stretch:normal;font-size:2.11667px;font-family:Bahnschrift;-inkscape-font-specification:Bahnschrift;stroke-width:0.264583"
           x="39.479752"
           y="73.144089">C8</tspan></text>
      <g
         id="g16"
         transform="rotate(-90,31.148148,65.947326)">
        <ellipse
           style="fill:none;stroke:#1a1a1a;stroke-width:0.264999;stroke-linejoin:round"
           id="path1"
           cx="24.704515"
           cy="77.978592"
           rx="1.9999853"
           ry="1.9988095" />
        <g
           id="g15"
           transform="translate(5.6557847,-14.864578)" />
        <text
           xml:space="preserve"
           style="font-size:3.52777px;line-height:1.25;font-family:Bahnschrift;-inkscape-font-specification:Bahnschrift;text-align:center;text-anchor:middle;stroke-width:0.264583"
           x="23.994797"
           y="78.495888"
           id="text15"><tspan
             sodipodi:role="line"
             id="tspan15"
             style="stroke-width:0.264583"
             x="23.994797"
             y="78.495888">+</tspan></text>
      </g>
    </g>
    <g
       id="g38"
       transform="translate(0,2.54)">
      <text
         xml:space="preserve"
         style="font-size:2.11667px;line-height:1.25;font-family:'Palatino Linotype';-inkscape-font-specification:'Palatino Linotype';text-align:center;text-anchor:middle;stroke-width:0.264583"
         x="60.648167"
         y="89.656258"
         id="text21"><tspan
           sodipodi:role="line"
           id="tspan21"
           style="font-style:normal;font-variant:normal;font-weight:normal;font-stretch:normal;font-size:2.11667px;font-family:Bahnschrift;-inkscape-font-specification:Bahnschrift;stroke-width:0.264583"
           x="60.648167"
           y="89.656258">C9</tspan></text>
      <g
         id="g20"
         transform="translate(32.447452,10.921408)">
        <ellipse
           style="fill:none;stroke:#1a1a1a;stroke-width:0.264999;stroke-linejoin:round"
           id="ellipse17"
           cx="24.704515"
           cy="77.978592"
           rx="1.9999853"
           ry="1.9988095" />
        <g
           id="g19"
           transform="translate(5.6557847,-14.864578)">
          <ellipse
             style="fill:#000000;stroke:none;stroke-width:0.1;stroke-linejoin:round;stroke-miterlimit:4;stroke-dasharray:none"
             id="ellipse18"
             ry="0.25341177"
             rx="0.25299069"
             cy="92.84317"
             cx="17.777773" />
          <ellipse
             style="fill:#000000;stroke:none;stroke-width:0.1;stroke-linejoin:round;stroke-miterlimit:4;stroke-dasharray:none"
             id="ellipse19"
             ry="0.25341177"
             rx="0.25299069"
             cy="92.84317"
             cx="20.319689" />
        </g>
        <text
           xml:space="preserve"
           style="font-size:3.52777px;line-height:1.25;font-family:Bahnschrift;-inkscape-font-specification:Bahnschrift;text-align:center;text-anchor:middle;stroke-width:0.264583"
           x="25.395256"
           y="79.702759"
           id="text19"><tspan
             sodipodi:role="line"
             id="tspan19"
             style="stroke-width:0.264583"
             x="25.395256"
             y="79.702759">+</tspan></text>
      </g>
    </g>
    <g
       id="g34"
       transform="matrix(-0.95943224,0.34569513,-0.33202149,-0.99894454,162.7911,118.9638)"
       inkscape:label="R3"
       inkscape:transform-center-x="1.2599991"
       inkscape:transform-center-y="-3.8124087">
      <rect
         style="fill:none;stroke:#000000;stroke-width:0.264999;stroke-linejoin:round;stroke-miterlimit:4;stroke-dasharray:none"
         id="rect33"
         width="2.0319998"
         height="5.0799999"
         x="95.503998"
         y="59.690002" />
      <path
         style="fill:none;stroke:#000000;stroke-width:0.264583px;stroke-linecap:butt;stroke-linejoin:miter;stroke-opacity:1;marker-start:url(#marker10329)"
         d="m 96.519999,58.419999 v 1.27"
         id="path33" />
      <path
         style="fill:none;stroke:#000000;stroke-width:0.264583px;stroke-linecap:butt;stroke-linejoin:miter;stroke-opacity:1;marker-end:url(#marker10339)"
         d="m 96.519999,64.769999 v 1.27"
         id="path34" />
    </g>
    <path
       style="fill:none;stroke:#000000;stroke-width:0.265;stroke-linecap:round;stroke-linejoin:miter;stroke-miterlimit:4;stroke-dasharray:none;stroke-opacity:1;marker-end:url(#marker5005)"
       d="m 43.176813,72.387587 v 0 L 43.180013,71.12"
       id="path45"
       sodipodi:nodetypes="ccc" />
    <path
       style="fill:none;stroke:#000000;stroke-width:0.265;stroke-linecap:round;stroke-linejoin:miter;stroke-miterlimit:4;stroke-dasharray:none;stroke-opacity:1;marker-end:url(#marker5005)"
       d="m 43.180002,74.93 1.1e-5,1.27"
       id="path46"
       sodipodi:nodetypes="cc" />
  </g>
</svg>
