%TF.GenerationSoftware,KiCad,Pcbnew,7.0.8*%
%TF.CreationDate,2023-11-30T20:00:48+00:00*%
%TF.ProjectId,thermo_module,74686572-6d6f-45f6-9d6f-64756c652e6b,rev?*%
%TF.SameCoordinates,Original*%
%TF.FileFunction,Legend,Bot*%
%TF.FilePolarity,Positive*%
%FSLAX46Y46*%
G04 Gerber Fmt 4.6, Leading zero omitted, Abs format (unit mm)*
G04 Created by KiCad (PCBNEW 7.0.8) date 2023-11-30 20:00:48*
%MOMM*%
%LPD*%
G01*
G04 APERTURE LIST*
%ADD10C,0.120000*%
%ADD11C,1.400000*%
%ADD12O,1.400000X1.400000*%
%ADD13R,1.500000X1.500000*%
%ADD14C,1.500000*%
%ADD15R,1.600000X1.600000*%
%ADD16C,1.600000*%
%ADD17C,1.440000*%
%ADD18C,3.000000*%
%ADD19R,1.700000X1.700000*%
%ADD20O,1.700000X1.700000*%
G04 APERTURE END LIST*
D10*
%TO.C,J5*%
X162937500Y-78045000D02*
X162937500Y-80705000D01*
X145097500Y-78045000D02*
X162937500Y-78045000D01*
X145097500Y-78045000D02*
X145097500Y-80705000D01*
X143827500Y-78045000D02*
X142497500Y-78045000D01*
X142497500Y-78045000D02*
X142497500Y-79375000D01*
X145097500Y-80705000D02*
X162937500Y-80705000D01*
%TD*%
%LPC*%
D11*
%TO.C,R9*%
X153987500Y-74295000D03*
D12*
X146367500Y-74295000D03*
%TD*%
D13*
%TO.C,IC4*%
X156527500Y-48895000D03*
D14*
X153987500Y-48895000D03*
X151447500Y-48895000D03*
%TD*%
D11*
%TO.C,R10*%
X166687500Y-64135000D03*
D12*
X159067500Y-64135000D03*
%TD*%
D11*
%TO.C,R12*%
X166687500Y-61595000D03*
D12*
X159067500Y-61595000D03*
%TD*%
D15*
%TO.C,C11*%
X164107500Y-69215000D03*
D16*
X161607500Y-69215000D03*
%TD*%
D15*
%TO.C,C10*%
X146367500Y-69215000D03*
D16*
X143867500Y-69215000D03*
%TD*%
D11*
%TO.C,R11*%
X148907500Y-64135000D03*
D12*
X141287500Y-64135000D03*
%TD*%
D17*
%TO.C,RV2*%
X156527500Y-61595000D03*
X153987500Y-61595000D03*
X151447500Y-61595000D03*
%TD*%
D18*
%TO.C,REF\u002A\u002A*%
X141287500Y-48895000D03*
%TD*%
D11*
%TO.C,R13*%
X148907500Y-61595000D03*
D12*
X141287500Y-61595000D03*
%TD*%
D11*
%TO.C,R7*%
X141287500Y-66675000D03*
D12*
X141287500Y-74295000D03*
%TD*%
D13*
%TO.C,IC3*%
X161607500Y-74295000D03*
D14*
X159067500Y-74295000D03*
X156527500Y-74295000D03*
%TD*%
D17*
%TO.C,RV1*%
X156527500Y-66675000D03*
X153987500Y-66675000D03*
X151447500Y-66675000D03*
%TD*%
D18*
%TO.C,REF\u002A\u002A*%
X164147500Y-48895000D03*
%TD*%
D11*
%TO.C,R8*%
X166687500Y-74295000D03*
D12*
X166687500Y-66675000D03*
%TD*%
D19*
%TO.C,J5*%
X143827500Y-79375000D03*
D20*
X146367500Y-79375000D03*
X148907500Y-79375000D03*
X151447500Y-79375000D03*
X153987500Y-79375000D03*
X156527500Y-79375000D03*
X159067500Y-79375000D03*
X161607500Y-79375000D03*
%TD*%
%LPD*%
M02*
