M48
; DRILL file {KiCad 7.0.8} date Thu Dec 28 22:34:22 2023
; FORMAT={-:-/ absolute / metric / decimal}
; #@! TF.CreationDate,2023-12-28T22:34:22+00:00
; #@! TF.GenerationSoftware,Kicad,Pcbnew,7.0.8
; #@! TF.FileFunction,Plated,1,2,PTH
FMAT,2
METRIC
; #@! TA.AperFunction,Plated,PTH,ComponentDrill
T1C0.700
; #@! TA.AperFunction,Plated,PTH,ComponentDrill
T2C0.800
; #@! TA.AperFunction,Plated,PTH,ComponentDrill
T3C1.000
%
G90
G05
T1
X144.145Y-66.675
X144.145Y-69.215
X144.145Y-83.185
X149.225Y-85.725
X151.765Y-66.675
X151.765Y-69.215
X151.765Y-83.185
X154.305Y-66.675
X154.305Y-69.215
X154.305Y-83.185
X156.845Y-85.725
X161.925Y-66.675
X161.925Y-69.215
X161.925Y-83.185
T2
X144.145Y-74.295
X146.685Y-74.295
X149.225Y-74.295
X150.495Y-62.23
X150.505Y-91.44
X153.035Y-62.23
X153.045Y-91.44
X155.575Y-62.23
X155.585Y-91.44
X156.845Y-74.295
X159.385Y-74.295
X161.925Y-74.295
T3
X144.16Y-79.375
X146.7Y-79.375
X149.24Y-79.375
X151.78Y-79.375
X154.32Y-79.375
X156.86Y-79.375
X159.4Y-79.375
X161.94Y-79.375
T0
M30
