M48
; DRILL file {KiCad 7.0.8} date Thu Nov 30 20:00:31 2023
; FORMAT={-:-/ absolute / metric / decimal}
; #@! TF.CreationDate,2023-11-30T20:00:31+00:00
; #@! TF.GenerationSoftware,Kicad,Pcbnew,7.0.8
; #@! TF.FileFunction,Plated,1,2,PTH
FMAT,2
METRIC
; #@! TA.AperFunction,Plated,PTH,ComponentDrill
T1C0.700
; #@! TA.AperFunction,Plated,PTH,ComponentDrill
T2C0.800
; #@! TA.AperFunction,Plated,PTH,ComponentDrill
T3C1.000
%
G90
G05
T1
X141.287Y-61.595
X141.287Y-64.135
X141.287Y-66.675
X141.287Y-74.295
X146.368Y-74.295
X148.907Y-61.595
X148.907Y-64.135
X153.987Y-74.295
X159.067Y-61.595
X159.067Y-64.135
X166.688Y-61.595
X166.688Y-64.135
X166.688Y-66.675
X166.688Y-74.295
T2
X143.868Y-69.215
X146.368Y-69.215
X151.447Y-48.895
X151.447Y-61.595
X151.447Y-66.675
X153.987Y-48.895
X153.987Y-61.595
X153.987Y-66.675
X156.528Y-48.895
X156.528Y-61.595
X156.528Y-66.675
X156.528Y-74.295
X159.067Y-74.295
X161.607Y-69.215
X161.607Y-74.295
X164.107Y-69.215
T3
X143.827Y-79.375
X146.368Y-79.375
X148.907Y-79.375
X151.447Y-79.375
X153.987Y-79.375
X156.528Y-79.375
X159.067Y-79.375
X161.607Y-79.375
T0
M30
