%TF.GenerationSoftware,KiCad,Pcbnew,7.0.8*%
%TF.CreationDate,2023-12-28T22:34:25+00:00*%
%TF.ProjectId,thermo_module,74686572-6d6f-45f6-9d6f-64756c652e6b,rev?*%
%TF.SameCoordinates,Original*%
%TF.FileFunction,Drillmap*%
%TF.FilePolarity,Positive*%
%FSLAX45Y45*%
G04 Gerber Fmt 4.5, Leading zero omitted, Abs format (unit mm)*
G04 Created by KiCad (PCBNEW 7.0.8) date 2023-12-28 22:34:25*
%MOMM*%
%LPD*%
G01*
G04 APERTURE LIST*
%ADD10C,0.100000*%
%ADD11C,0.200000*%
%ADD12C,0.070000*%
%ADD13C,0.080000*%
G04 APERTURE END LIST*
D10*
X13779500Y-4508500D02*
X16827500Y-4508500D01*
X16827500Y-9461500D01*
X13779500Y-9461500D01*
X13779500Y-4508500D01*
D11*
D12*
X14379500Y-6632500D02*
X14449500Y-6702500D01*
X14449500Y-6632500D02*
X14379500Y-6702500D01*
X14379500Y-6886500D02*
X14449500Y-6956500D01*
X14449500Y-6886500D02*
X14379500Y-6956500D01*
X14379500Y-8283500D02*
X14449500Y-8353500D01*
X14449500Y-8283500D02*
X14379500Y-8353500D01*
X14887500Y-8537500D02*
X14957500Y-8607500D01*
X14957500Y-8537500D02*
X14887500Y-8607500D01*
X15141500Y-6632500D02*
X15211500Y-6702500D01*
X15211500Y-6632500D02*
X15141500Y-6702500D01*
X15141500Y-6886500D02*
X15211500Y-6956500D01*
X15211500Y-6886500D02*
X15141500Y-6956500D01*
X15141500Y-8283500D02*
X15211500Y-8353500D01*
X15211500Y-8283500D02*
X15141500Y-8353500D01*
X15395500Y-6632500D02*
X15465500Y-6702500D01*
X15465500Y-6632500D02*
X15395500Y-6702500D01*
X15395500Y-6886500D02*
X15465500Y-6956500D01*
X15465500Y-6886500D02*
X15395500Y-6956500D01*
X15395500Y-8283500D02*
X15465500Y-8353500D01*
X15465500Y-8283500D02*
X15395500Y-8353500D01*
X15649500Y-8537500D02*
X15719500Y-8607500D01*
X15719500Y-8537500D02*
X15649500Y-8607500D01*
X16157500Y-6632500D02*
X16227500Y-6702500D01*
X16227500Y-6632500D02*
X16157500Y-6702500D01*
X16157500Y-6886500D02*
X16227500Y-6956500D01*
X16227500Y-6886500D02*
X16157500Y-6956500D01*
X16157500Y-8283500D02*
X16227500Y-8353500D01*
X16227500Y-8283500D02*
X16157500Y-8353500D01*
D13*
X14454500Y-7429500D02*
G75*
G03*
X14454500Y-7429500I-40000J0D01*
G01*
X14708500Y-7429500D02*
G75*
G03*
X14708500Y-7429500I-40000J0D01*
G01*
X14962500Y-7429500D02*
G75*
G03*
X14962500Y-7429500I-40000J0D01*
G01*
X15089500Y-6223000D02*
G75*
G03*
X15089500Y-6223000I-40000J0D01*
G01*
X15090500Y-9144000D02*
G75*
G03*
X15090500Y-9144000I-40000J0D01*
G01*
X15343500Y-6223000D02*
G75*
G03*
X15343500Y-6223000I-40000J0D01*
G01*
X15344500Y-9144000D02*
G75*
G03*
X15344500Y-9144000I-40000J0D01*
G01*
X15597500Y-6223000D02*
G75*
G03*
X15597500Y-6223000I-40000J0D01*
G01*
X15598500Y-9144000D02*
G75*
G03*
X15598500Y-9144000I-40000J0D01*
G01*
X15724500Y-7429500D02*
G75*
G03*
X15724500Y-7429500I-40000J0D01*
G01*
X15978500Y-7429500D02*
G75*
G03*
X15978500Y-7429500I-40000J0D01*
G01*
X16232500Y-7429500D02*
G75*
G03*
X16232500Y-7429500I-40000J0D01*
G01*
D10*
X14416000Y-7887500D02*
X14416000Y-7987500D01*
X14366000Y-7937500D02*
X14466000Y-7937500D01*
X14670000Y-7887500D02*
X14670000Y-7987500D01*
X14620000Y-7937500D02*
X14720000Y-7937500D01*
X14924000Y-7887500D02*
X14924000Y-7987500D01*
X14874000Y-7937500D02*
X14974000Y-7937500D01*
X15178000Y-7887500D02*
X15178000Y-7987500D01*
X15128000Y-7937500D02*
X15228000Y-7937500D01*
X15432000Y-7887500D02*
X15432000Y-7987500D01*
X15382000Y-7937500D02*
X15482000Y-7937500D01*
X15686000Y-7887500D02*
X15686000Y-7987500D01*
X15636000Y-7937500D02*
X15736000Y-7937500D01*
X15940000Y-7887500D02*
X15940000Y-7987500D01*
X15890000Y-7937500D02*
X15990000Y-7937500D01*
X16194000Y-7887500D02*
X16194000Y-7987500D01*
X16144000Y-7937500D02*
X16244000Y-7937500D01*
D11*
X14035277Y-9777984D02*
X14035277Y-9577984D01*
X14035277Y-9577984D02*
X14082896Y-9577984D01*
X14082896Y-9577984D02*
X14111467Y-9587508D01*
X14111467Y-9587508D02*
X14130515Y-9606555D01*
X14130515Y-9606555D02*
X14140039Y-9625603D01*
X14140039Y-9625603D02*
X14149562Y-9663698D01*
X14149562Y-9663698D02*
X14149562Y-9692270D01*
X14149562Y-9692270D02*
X14140039Y-9730365D01*
X14140039Y-9730365D02*
X14130515Y-9749412D01*
X14130515Y-9749412D02*
X14111467Y-9768460D01*
X14111467Y-9768460D02*
X14082896Y-9777984D01*
X14082896Y-9777984D02*
X14035277Y-9777984D01*
X14235277Y-9777984D02*
X14235277Y-9644650D01*
X14235277Y-9682746D02*
X14244801Y-9663698D01*
X14244801Y-9663698D02*
X14254324Y-9654174D01*
X14254324Y-9654174D02*
X14273372Y-9644650D01*
X14273372Y-9644650D02*
X14292420Y-9644650D01*
X14359086Y-9777984D02*
X14359086Y-9644650D01*
X14359086Y-9577984D02*
X14349562Y-9587508D01*
X14349562Y-9587508D02*
X14359086Y-9597031D01*
X14359086Y-9597031D02*
X14368610Y-9587508D01*
X14368610Y-9587508D02*
X14359086Y-9577984D01*
X14359086Y-9577984D02*
X14359086Y-9597031D01*
X14482896Y-9777984D02*
X14463848Y-9768460D01*
X14463848Y-9768460D02*
X14454324Y-9749412D01*
X14454324Y-9749412D02*
X14454324Y-9577984D01*
X14587658Y-9777984D02*
X14568610Y-9768460D01*
X14568610Y-9768460D02*
X14559086Y-9749412D01*
X14559086Y-9749412D02*
X14559086Y-9577984D01*
X14816229Y-9777984D02*
X14816229Y-9577984D01*
X14816229Y-9577984D02*
X14882896Y-9720841D01*
X14882896Y-9720841D02*
X14949562Y-9577984D01*
X14949562Y-9577984D02*
X14949562Y-9777984D01*
X15130515Y-9777984D02*
X15130515Y-9673222D01*
X15130515Y-9673222D02*
X15120991Y-9654174D01*
X15120991Y-9654174D02*
X15101943Y-9644650D01*
X15101943Y-9644650D02*
X15063848Y-9644650D01*
X15063848Y-9644650D02*
X15044801Y-9654174D01*
X15130515Y-9768460D02*
X15111467Y-9777984D01*
X15111467Y-9777984D02*
X15063848Y-9777984D01*
X15063848Y-9777984D02*
X15044801Y-9768460D01*
X15044801Y-9768460D02*
X15035277Y-9749412D01*
X15035277Y-9749412D02*
X15035277Y-9730365D01*
X15035277Y-9730365D02*
X15044801Y-9711317D01*
X15044801Y-9711317D02*
X15063848Y-9701793D01*
X15063848Y-9701793D02*
X15111467Y-9701793D01*
X15111467Y-9701793D02*
X15130515Y-9692270D01*
X15225753Y-9644650D02*
X15225753Y-9844650D01*
X15225753Y-9654174D02*
X15244801Y-9644650D01*
X15244801Y-9644650D02*
X15282896Y-9644650D01*
X15282896Y-9644650D02*
X15301943Y-9654174D01*
X15301943Y-9654174D02*
X15311467Y-9663698D01*
X15311467Y-9663698D02*
X15320991Y-9682746D01*
X15320991Y-9682746D02*
X15320991Y-9739889D01*
X15320991Y-9739889D02*
X15311467Y-9758936D01*
X15311467Y-9758936D02*
X15301943Y-9768460D01*
X15301943Y-9768460D02*
X15282896Y-9777984D01*
X15282896Y-9777984D02*
X15244801Y-9777984D01*
X15244801Y-9777984D02*
X15225753Y-9768460D01*
X15406705Y-9758936D02*
X15416229Y-9768460D01*
X15416229Y-9768460D02*
X15406705Y-9777984D01*
X15406705Y-9777984D02*
X15397182Y-9768460D01*
X15397182Y-9768460D02*
X15406705Y-9758936D01*
X15406705Y-9758936D02*
X15406705Y-9777984D01*
X15406705Y-9654174D02*
X15416229Y-9663698D01*
X15416229Y-9663698D02*
X15406705Y-9673222D01*
X15406705Y-9673222D02*
X15397182Y-9663698D01*
X15397182Y-9663698D02*
X15406705Y-9654174D01*
X15406705Y-9654174D02*
X15406705Y-9673222D01*
D12*
X13704500Y-10071500D02*
X13774500Y-10141500D01*
X13774500Y-10071500D02*
X13704500Y-10141500D01*
D11*
X14073372Y-9997984D02*
X14092420Y-9997984D01*
X14092420Y-9997984D02*
X14111467Y-10007508D01*
X14111467Y-10007508D02*
X14120991Y-10017031D01*
X14120991Y-10017031D02*
X14130515Y-10036079D01*
X14130515Y-10036079D02*
X14140039Y-10074174D01*
X14140039Y-10074174D02*
X14140039Y-10121793D01*
X14140039Y-10121793D02*
X14130515Y-10159889D01*
X14130515Y-10159889D02*
X14120991Y-10178936D01*
X14120991Y-10178936D02*
X14111467Y-10188460D01*
X14111467Y-10188460D02*
X14092420Y-10197984D01*
X14092420Y-10197984D02*
X14073372Y-10197984D01*
X14073372Y-10197984D02*
X14054324Y-10188460D01*
X14054324Y-10188460D02*
X14044801Y-10178936D01*
X14044801Y-10178936D02*
X14035277Y-10159889D01*
X14035277Y-10159889D02*
X14025753Y-10121793D01*
X14025753Y-10121793D02*
X14025753Y-10074174D01*
X14025753Y-10074174D02*
X14035277Y-10036079D01*
X14035277Y-10036079D02*
X14044801Y-10017031D01*
X14044801Y-10017031D02*
X14054324Y-10007508D01*
X14054324Y-10007508D02*
X14073372Y-9997984D01*
X14225753Y-10178936D02*
X14235277Y-10188460D01*
X14235277Y-10188460D02*
X14225753Y-10197984D01*
X14225753Y-10197984D02*
X14216229Y-10188460D01*
X14216229Y-10188460D02*
X14225753Y-10178936D01*
X14225753Y-10178936D02*
X14225753Y-10197984D01*
X14301943Y-9997984D02*
X14435277Y-9997984D01*
X14435277Y-9997984D02*
X14349562Y-10197984D01*
X14549562Y-9997984D02*
X14568610Y-9997984D01*
X14568610Y-9997984D02*
X14587658Y-10007508D01*
X14587658Y-10007508D02*
X14597182Y-10017031D01*
X14597182Y-10017031D02*
X14606705Y-10036079D01*
X14606705Y-10036079D02*
X14616229Y-10074174D01*
X14616229Y-10074174D02*
X14616229Y-10121793D01*
X14616229Y-10121793D02*
X14606705Y-10159889D01*
X14606705Y-10159889D02*
X14597182Y-10178936D01*
X14597182Y-10178936D02*
X14587658Y-10188460D01*
X14587658Y-10188460D02*
X14568610Y-10197984D01*
X14568610Y-10197984D02*
X14549562Y-10197984D01*
X14549562Y-10197984D02*
X14530515Y-10188460D01*
X14530515Y-10188460D02*
X14520991Y-10178936D01*
X14520991Y-10178936D02*
X14511467Y-10159889D01*
X14511467Y-10159889D02*
X14501943Y-10121793D01*
X14501943Y-10121793D02*
X14501943Y-10074174D01*
X14501943Y-10074174D02*
X14511467Y-10036079D01*
X14511467Y-10036079D02*
X14520991Y-10017031D01*
X14520991Y-10017031D02*
X14530515Y-10007508D01*
X14530515Y-10007508D02*
X14549562Y-9997984D01*
X14740039Y-9997984D02*
X14759086Y-9997984D01*
X14759086Y-9997984D02*
X14778134Y-10007508D01*
X14778134Y-10007508D02*
X14787658Y-10017031D01*
X14787658Y-10017031D02*
X14797182Y-10036079D01*
X14797182Y-10036079D02*
X14806705Y-10074174D01*
X14806705Y-10074174D02*
X14806705Y-10121793D01*
X14806705Y-10121793D02*
X14797182Y-10159889D01*
X14797182Y-10159889D02*
X14787658Y-10178936D01*
X14787658Y-10178936D02*
X14778134Y-10188460D01*
X14778134Y-10188460D02*
X14759086Y-10197984D01*
X14759086Y-10197984D02*
X14740039Y-10197984D01*
X14740039Y-10197984D02*
X14720991Y-10188460D01*
X14720991Y-10188460D02*
X14711467Y-10178936D01*
X14711467Y-10178936D02*
X14701943Y-10159889D01*
X14701943Y-10159889D02*
X14692420Y-10121793D01*
X14692420Y-10121793D02*
X14692420Y-10074174D01*
X14692420Y-10074174D02*
X14701943Y-10036079D01*
X14701943Y-10036079D02*
X14711467Y-10017031D01*
X14711467Y-10017031D02*
X14720991Y-10007508D01*
X14720991Y-10007508D02*
X14740039Y-9997984D01*
X14892420Y-10197984D02*
X14892420Y-10064650D01*
X14892420Y-10083698D02*
X14901943Y-10074174D01*
X14901943Y-10074174D02*
X14920991Y-10064650D01*
X14920991Y-10064650D02*
X14949563Y-10064650D01*
X14949563Y-10064650D02*
X14968610Y-10074174D01*
X14968610Y-10074174D02*
X14978134Y-10093222D01*
X14978134Y-10093222D02*
X14978134Y-10197984D01*
X14978134Y-10093222D02*
X14987658Y-10074174D01*
X14987658Y-10074174D02*
X15006705Y-10064650D01*
X15006705Y-10064650D02*
X15035277Y-10064650D01*
X15035277Y-10064650D02*
X15054324Y-10074174D01*
X15054324Y-10074174D02*
X15063848Y-10093222D01*
X15063848Y-10093222D02*
X15063848Y-10197984D01*
X15159086Y-10197984D02*
X15159086Y-10064650D01*
X15159086Y-10083698D02*
X15168610Y-10074174D01*
X15168610Y-10074174D02*
X15187658Y-10064650D01*
X15187658Y-10064650D02*
X15216229Y-10064650D01*
X15216229Y-10064650D02*
X15235277Y-10074174D01*
X15235277Y-10074174D02*
X15244801Y-10093222D01*
X15244801Y-10093222D02*
X15244801Y-10197984D01*
X15244801Y-10093222D02*
X15254324Y-10074174D01*
X15254324Y-10074174D02*
X15273372Y-10064650D01*
X15273372Y-10064650D02*
X15301943Y-10064650D01*
X15301943Y-10064650D02*
X15320991Y-10074174D01*
X15320991Y-10074174D02*
X15330515Y-10093222D01*
X15330515Y-10093222D02*
X15330515Y-10197984D01*
X15720991Y-9988460D02*
X15549563Y-10245603D01*
X15978134Y-9997984D02*
X15997182Y-9997984D01*
X15997182Y-9997984D02*
X16016229Y-10007508D01*
X16016229Y-10007508D02*
X16025753Y-10017031D01*
X16025753Y-10017031D02*
X16035277Y-10036079D01*
X16035277Y-10036079D02*
X16044801Y-10074174D01*
X16044801Y-10074174D02*
X16044801Y-10121793D01*
X16044801Y-10121793D02*
X16035277Y-10159889D01*
X16035277Y-10159889D02*
X16025753Y-10178936D01*
X16025753Y-10178936D02*
X16016229Y-10188460D01*
X16016229Y-10188460D02*
X15997182Y-10197984D01*
X15997182Y-10197984D02*
X15978134Y-10197984D01*
X15978134Y-10197984D02*
X15959086Y-10188460D01*
X15959086Y-10188460D02*
X15949563Y-10178936D01*
X15949563Y-10178936D02*
X15940039Y-10159889D01*
X15940039Y-10159889D02*
X15930515Y-10121793D01*
X15930515Y-10121793D02*
X15930515Y-10074174D01*
X15930515Y-10074174D02*
X15940039Y-10036079D01*
X15940039Y-10036079D02*
X15949563Y-10017031D01*
X15949563Y-10017031D02*
X15959086Y-10007508D01*
X15959086Y-10007508D02*
X15978134Y-9997984D01*
X16130515Y-10178936D02*
X16140039Y-10188460D01*
X16140039Y-10188460D02*
X16130515Y-10197984D01*
X16130515Y-10197984D02*
X16120991Y-10188460D01*
X16120991Y-10188460D02*
X16130515Y-10178936D01*
X16130515Y-10178936D02*
X16130515Y-10197984D01*
X16263848Y-9997984D02*
X16282896Y-9997984D01*
X16282896Y-9997984D02*
X16301944Y-10007508D01*
X16301944Y-10007508D02*
X16311467Y-10017031D01*
X16311467Y-10017031D02*
X16320991Y-10036079D01*
X16320991Y-10036079D02*
X16330515Y-10074174D01*
X16330515Y-10074174D02*
X16330515Y-10121793D01*
X16330515Y-10121793D02*
X16320991Y-10159889D01*
X16320991Y-10159889D02*
X16311467Y-10178936D01*
X16311467Y-10178936D02*
X16301944Y-10188460D01*
X16301944Y-10188460D02*
X16282896Y-10197984D01*
X16282896Y-10197984D02*
X16263848Y-10197984D01*
X16263848Y-10197984D02*
X16244801Y-10188460D01*
X16244801Y-10188460D02*
X16235277Y-10178936D01*
X16235277Y-10178936D02*
X16225753Y-10159889D01*
X16225753Y-10159889D02*
X16216229Y-10121793D01*
X16216229Y-10121793D02*
X16216229Y-10074174D01*
X16216229Y-10074174D02*
X16225753Y-10036079D01*
X16225753Y-10036079D02*
X16235277Y-10017031D01*
X16235277Y-10017031D02*
X16244801Y-10007508D01*
X16244801Y-10007508D02*
X16263848Y-9997984D01*
X16406706Y-10017031D02*
X16416229Y-10007508D01*
X16416229Y-10007508D02*
X16435277Y-9997984D01*
X16435277Y-9997984D02*
X16482896Y-9997984D01*
X16482896Y-9997984D02*
X16501944Y-10007508D01*
X16501944Y-10007508D02*
X16511467Y-10017031D01*
X16511467Y-10017031D02*
X16520991Y-10036079D01*
X16520991Y-10036079D02*
X16520991Y-10055127D01*
X16520991Y-10055127D02*
X16511467Y-10083698D01*
X16511467Y-10083698D02*
X16397182Y-10197984D01*
X16397182Y-10197984D02*
X16520991Y-10197984D01*
X16587658Y-9997984D02*
X16720991Y-9997984D01*
X16720991Y-9997984D02*
X16635277Y-10197984D01*
X16882896Y-9997984D02*
X16844801Y-9997984D01*
X16844801Y-9997984D02*
X16825753Y-10007508D01*
X16825753Y-10007508D02*
X16816229Y-10017031D01*
X16816229Y-10017031D02*
X16797182Y-10045603D01*
X16797182Y-10045603D02*
X16787658Y-10083698D01*
X16787658Y-10083698D02*
X16787658Y-10159889D01*
X16787658Y-10159889D02*
X16797182Y-10178936D01*
X16797182Y-10178936D02*
X16806706Y-10188460D01*
X16806706Y-10188460D02*
X16825753Y-10197984D01*
X16825753Y-10197984D02*
X16863849Y-10197984D01*
X16863849Y-10197984D02*
X16882896Y-10188460D01*
X16882896Y-10188460D02*
X16892420Y-10178936D01*
X16892420Y-10178936D02*
X16901944Y-10159889D01*
X16901944Y-10159889D02*
X16901944Y-10112270D01*
X16901944Y-10112270D02*
X16892420Y-10093222D01*
X16892420Y-10093222D02*
X16882896Y-10083698D01*
X16882896Y-10083698D02*
X16863849Y-10074174D01*
X16863849Y-10074174D02*
X16825753Y-10074174D01*
X16825753Y-10074174D02*
X16806706Y-10083698D01*
X16806706Y-10083698D02*
X16797182Y-10093222D01*
X16797182Y-10093222D02*
X16787658Y-10112270D01*
X16978134Y-9997984D02*
X16978134Y-10036079D01*
X17054325Y-9997984D02*
X17054325Y-10036079D01*
X17349563Y-10274174D02*
X17340039Y-10264650D01*
X17340039Y-10264650D02*
X17320991Y-10236079D01*
X17320991Y-10236079D02*
X17311468Y-10217031D01*
X17311468Y-10217031D02*
X17301944Y-10188460D01*
X17301944Y-10188460D02*
X17292420Y-10140841D01*
X17292420Y-10140841D02*
X17292420Y-10102746D01*
X17292420Y-10102746D02*
X17301944Y-10055127D01*
X17301944Y-10055127D02*
X17311468Y-10026555D01*
X17311468Y-10026555D02*
X17320991Y-10007508D01*
X17320991Y-10007508D02*
X17340039Y-9978936D01*
X17340039Y-9978936D02*
X17349563Y-9969412D01*
X17530515Y-10197984D02*
X17416230Y-10197984D01*
X17473372Y-10197984D02*
X17473372Y-9997984D01*
X17473372Y-9997984D02*
X17454325Y-10026555D01*
X17454325Y-10026555D02*
X17435277Y-10045603D01*
X17435277Y-10045603D02*
X17416230Y-10055127D01*
X17701944Y-10064650D02*
X17701944Y-10197984D01*
X17654325Y-9988460D02*
X17606706Y-10131317D01*
X17606706Y-10131317D02*
X17730515Y-10131317D01*
X17959087Y-10197984D02*
X17959087Y-9997984D01*
X18044801Y-10197984D02*
X18044801Y-10093222D01*
X18044801Y-10093222D02*
X18035277Y-10074174D01*
X18035277Y-10074174D02*
X18016230Y-10064650D01*
X18016230Y-10064650D02*
X17987658Y-10064650D01*
X17987658Y-10064650D02*
X17968611Y-10074174D01*
X17968611Y-10074174D02*
X17959087Y-10083698D01*
X18168611Y-10197984D02*
X18149563Y-10188460D01*
X18149563Y-10188460D02*
X18140039Y-10178936D01*
X18140039Y-10178936D02*
X18130515Y-10159889D01*
X18130515Y-10159889D02*
X18130515Y-10102746D01*
X18130515Y-10102746D02*
X18140039Y-10083698D01*
X18140039Y-10083698D02*
X18149563Y-10074174D01*
X18149563Y-10074174D02*
X18168611Y-10064650D01*
X18168611Y-10064650D02*
X18197182Y-10064650D01*
X18197182Y-10064650D02*
X18216230Y-10074174D01*
X18216230Y-10074174D02*
X18225753Y-10083698D01*
X18225753Y-10083698D02*
X18235277Y-10102746D01*
X18235277Y-10102746D02*
X18235277Y-10159889D01*
X18235277Y-10159889D02*
X18225753Y-10178936D01*
X18225753Y-10178936D02*
X18216230Y-10188460D01*
X18216230Y-10188460D02*
X18197182Y-10197984D01*
X18197182Y-10197984D02*
X18168611Y-10197984D01*
X18349563Y-10197984D02*
X18330515Y-10188460D01*
X18330515Y-10188460D02*
X18320992Y-10169412D01*
X18320992Y-10169412D02*
X18320992Y-9997984D01*
X18501944Y-10188460D02*
X18482896Y-10197984D01*
X18482896Y-10197984D02*
X18444801Y-10197984D01*
X18444801Y-10197984D02*
X18425753Y-10188460D01*
X18425753Y-10188460D02*
X18416230Y-10169412D01*
X18416230Y-10169412D02*
X18416230Y-10093222D01*
X18416230Y-10093222D02*
X18425753Y-10074174D01*
X18425753Y-10074174D02*
X18444801Y-10064650D01*
X18444801Y-10064650D02*
X18482896Y-10064650D01*
X18482896Y-10064650D02*
X18501944Y-10074174D01*
X18501944Y-10074174D02*
X18511468Y-10093222D01*
X18511468Y-10093222D02*
X18511468Y-10112270D01*
X18511468Y-10112270D02*
X18416230Y-10131317D01*
X18587658Y-10188460D02*
X18606706Y-10197984D01*
X18606706Y-10197984D02*
X18644801Y-10197984D01*
X18644801Y-10197984D02*
X18663849Y-10188460D01*
X18663849Y-10188460D02*
X18673373Y-10169412D01*
X18673373Y-10169412D02*
X18673373Y-10159889D01*
X18673373Y-10159889D02*
X18663849Y-10140841D01*
X18663849Y-10140841D02*
X18644801Y-10131317D01*
X18644801Y-10131317D02*
X18616230Y-10131317D01*
X18616230Y-10131317D02*
X18597182Y-10121793D01*
X18597182Y-10121793D02*
X18587658Y-10102746D01*
X18587658Y-10102746D02*
X18587658Y-10093222D01*
X18587658Y-10093222D02*
X18597182Y-10074174D01*
X18597182Y-10074174D02*
X18616230Y-10064650D01*
X18616230Y-10064650D02*
X18644801Y-10064650D01*
X18644801Y-10064650D02*
X18663849Y-10074174D01*
X18740039Y-10274174D02*
X18749563Y-10264650D01*
X18749563Y-10264650D02*
X18768611Y-10236079D01*
X18768611Y-10236079D02*
X18778134Y-10217031D01*
X18778134Y-10217031D02*
X18787658Y-10188460D01*
X18787658Y-10188460D02*
X18797182Y-10140841D01*
X18797182Y-10140841D02*
X18797182Y-10102746D01*
X18797182Y-10102746D02*
X18787658Y-10055127D01*
X18787658Y-10055127D02*
X18778134Y-10026555D01*
X18778134Y-10026555D02*
X18768611Y-10007508D01*
X18768611Y-10007508D02*
X18749563Y-9978936D01*
X18749563Y-9978936D02*
X18740039Y-9969412D01*
D13*
X13774500Y-10370500D02*
G75*
G03*
X13774500Y-10370500I-40000J0D01*
G01*
D11*
X14073372Y-10261984D02*
X14092420Y-10261984D01*
X14092420Y-10261984D02*
X14111467Y-10271508D01*
X14111467Y-10271508D02*
X14120991Y-10281031D01*
X14120991Y-10281031D02*
X14130515Y-10300079D01*
X14130515Y-10300079D02*
X14140039Y-10338174D01*
X14140039Y-10338174D02*
X14140039Y-10385793D01*
X14140039Y-10385793D02*
X14130515Y-10423889D01*
X14130515Y-10423889D02*
X14120991Y-10442936D01*
X14120991Y-10442936D02*
X14111467Y-10452460D01*
X14111467Y-10452460D02*
X14092420Y-10461984D01*
X14092420Y-10461984D02*
X14073372Y-10461984D01*
X14073372Y-10461984D02*
X14054324Y-10452460D01*
X14054324Y-10452460D02*
X14044801Y-10442936D01*
X14044801Y-10442936D02*
X14035277Y-10423889D01*
X14035277Y-10423889D02*
X14025753Y-10385793D01*
X14025753Y-10385793D02*
X14025753Y-10338174D01*
X14025753Y-10338174D02*
X14035277Y-10300079D01*
X14035277Y-10300079D02*
X14044801Y-10281031D01*
X14044801Y-10281031D02*
X14054324Y-10271508D01*
X14054324Y-10271508D02*
X14073372Y-10261984D01*
X14225753Y-10442936D02*
X14235277Y-10452460D01*
X14235277Y-10452460D02*
X14225753Y-10461984D01*
X14225753Y-10461984D02*
X14216229Y-10452460D01*
X14216229Y-10452460D02*
X14225753Y-10442936D01*
X14225753Y-10442936D02*
X14225753Y-10461984D01*
X14349562Y-10347698D02*
X14330515Y-10338174D01*
X14330515Y-10338174D02*
X14320991Y-10328650D01*
X14320991Y-10328650D02*
X14311467Y-10309603D01*
X14311467Y-10309603D02*
X14311467Y-10300079D01*
X14311467Y-10300079D02*
X14320991Y-10281031D01*
X14320991Y-10281031D02*
X14330515Y-10271508D01*
X14330515Y-10271508D02*
X14349562Y-10261984D01*
X14349562Y-10261984D02*
X14387658Y-10261984D01*
X14387658Y-10261984D02*
X14406705Y-10271508D01*
X14406705Y-10271508D02*
X14416229Y-10281031D01*
X14416229Y-10281031D02*
X14425753Y-10300079D01*
X14425753Y-10300079D02*
X14425753Y-10309603D01*
X14425753Y-10309603D02*
X14416229Y-10328650D01*
X14416229Y-10328650D02*
X14406705Y-10338174D01*
X14406705Y-10338174D02*
X14387658Y-10347698D01*
X14387658Y-10347698D02*
X14349562Y-10347698D01*
X14349562Y-10347698D02*
X14330515Y-10357222D01*
X14330515Y-10357222D02*
X14320991Y-10366746D01*
X14320991Y-10366746D02*
X14311467Y-10385793D01*
X14311467Y-10385793D02*
X14311467Y-10423889D01*
X14311467Y-10423889D02*
X14320991Y-10442936D01*
X14320991Y-10442936D02*
X14330515Y-10452460D01*
X14330515Y-10452460D02*
X14349562Y-10461984D01*
X14349562Y-10461984D02*
X14387658Y-10461984D01*
X14387658Y-10461984D02*
X14406705Y-10452460D01*
X14406705Y-10452460D02*
X14416229Y-10442936D01*
X14416229Y-10442936D02*
X14425753Y-10423889D01*
X14425753Y-10423889D02*
X14425753Y-10385793D01*
X14425753Y-10385793D02*
X14416229Y-10366746D01*
X14416229Y-10366746D02*
X14406705Y-10357222D01*
X14406705Y-10357222D02*
X14387658Y-10347698D01*
X14549562Y-10261984D02*
X14568610Y-10261984D01*
X14568610Y-10261984D02*
X14587658Y-10271508D01*
X14587658Y-10271508D02*
X14597182Y-10281031D01*
X14597182Y-10281031D02*
X14606705Y-10300079D01*
X14606705Y-10300079D02*
X14616229Y-10338174D01*
X14616229Y-10338174D02*
X14616229Y-10385793D01*
X14616229Y-10385793D02*
X14606705Y-10423889D01*
X14606705Y-10423889D02*
X14597182Y-10442936D01*
X14597182Y-10442936D02*
X14587658Y-10452460D01*
X14587658Y-10452460D02*
X14568610Y-10461984D01*
X14568610Y-10461984D02*
X14549562Y-10461984D01*
X14549562Y-10461984D02*
X14530515Y-10452460D01*
X14530515Y-10452460D02*
X14520991Y-10442936D01*
X14520991Y-10442936D02*
X14511467Y-10423889D01*
X14511467Y-10423889D02*
X14501943Y-10385793D01*
X14501943Y-10385793D02*
X14501943Y-10338174D01*
X14501943Y-10338174D02*
X14511467Y-10300079D01*
X14511467Y-10300079D02*
X14520991Y-10281031D01*
X14520991Y-10281031D02*
X14530515Y-10271508D01*
X14530515Y-10271508D02*
X14549562Y-10261984D01*
X14740039Y-10261984D02*
X14759086Y-10261984D01*
X14759086Y-10261984D02*
X14778134Y-10271508D01*
X14778134Y-10271508D02*
X14787658Y-10281031D01*
X14787658Y-10281031D02*
X14797182Y-10300079D01*
X14797182Y-10300079D02*
X14806705Y-10338174D01*
X14806705Y-10338174D02*
X14806705Y-10385793D01*
X14806705Y-10385793D02*
X14797182Y-10423889D01*
X14797182Y-10423889D02*
X14787658Y-10442936D01*
X14787658Y-10442936D02*
X14778134Y-10452460D01*
X14778134Y-10452460D02*
X14759086Y-10461984D01*
X14759086Y-10461984D02*
X14740039Y-10461984D01*
X14740039Y-10461984D02*
X14720991Y-10452460D01*
X14720991Y-10452460D02*
X14711467Y-10442936D01*
X14711467Y-10442936D02*
X14701943Y-10423889D01*
X14701943Y-10423889D02*
X14692420Y-10385793D01*
X14692420Y-10385793D02*
X14692420Y-10338174D01*
X14692420Y-10338174D02*
X14701943Y-10300079D01*
X14701943Y-10300079D02*
X14711467Y-10281031D01*
X14711467Y-10281031D02*
X14720991Y-10271508D01*
X14720991Y-10271508D02*
X14740039Y-10261984D01*
X14892420Y-10461984D02*
X14892420Y-10328650D01*
X14892420Y-10347698D02*
X14901943Y-10338174D01*
X14901943Y-10338174D02*
X14920991Y-10328650D01*
X14920991Y-10328650D02*
X14949563Y-10328650D01*
X14949563Y-10328650D02*
X14968610Y-10338174D01*
X14968610Y-10338174D02*
X14978134Y-10357222D01*
X14978134Y-10357222D02*
X14978134Y-10461984D01*
X14978134Y-10357222D02*
X14987658Y-10338174D01*
X14987658Y-10338174D02*
X15006705Y-10328650D01*
X15006705Y-10328650D02*
X15035277Y-10328650D01*
X15035277Y-10328650D02*
X15054324Y-10338174D01*
X15054324Y-10338174D02*
X15063848Y-10357222D01*
X15063848Y-10357222D02*
X15063848Y-10461984D01*
X15159086Y-10461984D02*
X15159086Y-10328650D01*
X15159086Y-10347698D02*
X15168610Y-10338174D01*
X15168610Y-10338174D02*
X15187658Y-10328650D01*
X15187658Y-10328650D02*
X15216229Y-10328650D01*
X15216229Y-10328650D02*
X15235277Y-10338174D01*
X15235277Y-10338174D02*
X15244801Y-10357222D01*
X15244801Y-10357222D02*
X15244801Y-10461984D01*
X15244801Y-10357222D02*
X15254324Y-10338174D01*
X15254324Y-10338174D02*
X15273372Y-10328650D01*
X15273372Y-10328650D02*
X15301943Y-10328650D01*
X15301943Y-10328650D02*
X15320991Y-10338174D01*
X15320991Y-10338174D02*
X15330515Y-10357222D01*
X15330515Y-10357222D02*
X15330515Y-10461984D01*
X15720991Y-10252460D02*
X15549563Y-10509603D01*
X15978134Y-10261984D02*
X15997182Y-10261984D01*
X15997182Y-10261984D02*
X16016229Y-10271508D01*
X16016229Y-10271508D02*
X16025753Y-10281031D01*
X16025753Y-10281031D02*
X16035277Y-10300079D01*
X16035277Y-10300079D02*
X16044801Y-10338174D01*
X16044801Y-10338174D02*
X16044801Y-10385793D01*
X16044801Y-10385793D02*
X16035277Y-10423889D01*
X16035277Y-10423889D02*
X16025753Y-10442936D01*
X16025753Y-10442936D02*
X16016229Y-10452460D01*
X16016229Y-10452460D02*
X15997182Y-10461984D01*
X15997182Y-10461984D02*
X15978134Y-10461984D01*
X15978134Y-10461984D02*
X15959086Y-10452460D01*
X15959086Y-10452460D02*
X15949563Y-10442936D01*
X15949563Y-10442936D02*
X15940039Y-10423889D01*
X15940039Y-10423889D02*
X15930515Y-10385793D01*
X15930515Y-10385793D02*
X15930515Y-10338174D01*
X15930515Y-10338174D02*
X15940039Y-10300079D01*
X15940039Y-10300079D02*
X15949563Y-10281031D01*
X15949563Y-10281031D02*
X15959086Y-10271508D01*
X15959086Y-10271508D02*
X15978134Y-10261984D01*
X16130515Y-10442936D02*
X16140039Y-10452460D01*
X16140039Y-10452460D02*
X16130515Y-10461984D01*
X16130515Y-10461984D02*
X16120991Y-10452460D01*
X16120991Y-10452460D02*
X16130515Y-10442936D01*
X16130515Y-10442936D02*
X16130515Y-10461984D01*
X16263848Y-10261984D02*
X16282896Y-10261984D01*
X16282896Y-10261984D02*
X16301944Y-10271508D01*
X16301944Y-10271508D02*
X16311467Y-10281031D01*
X16311467Y-10281031D02*
X16320991Y-10300079D01*
X16320991Y-10300079D02*
X16330515Y-10338174D01*
X16330515Y-10338174D02*
X16330515Y-10385793D01*
X16330515Y-10385793D02*
X16320991Y-10423889D01*
X16320991Y-10423889D02*
X16311467Y-10442936D01*
X16311467Y-10442936D02*
X16301944Y-10452460D01*
X16301944Y-10452460D02*
X16282896Y-10461984D01*
X16282896Y-10461984D02*
X16263848Y-10461984D01*
X16263848Y-10461984D02*
X16244801Y-10452460D01*
X16244801Y-10452460D02*
X16235277Y-10442936D01*
X16235277Y-10442936D02*
X16225753Y-10423889D01*
X16225753Y-10423889D02*
X16216229Y-10385793D01*
X16216229Y-10385793D02*
X16216229Y-10338174D01*
X16216229Y-10338174D02*
X16225753Y-10300079D01*
X16225753Y-10300079D02*
X16235277Y-10281031D01*
X16235277Y-10281031D02*
X16244801Y-10271508D01*
X16244801Y-10271508D02*
X16263848Y-10261984D01*
X16397182Y-10261984D02*
X16520991Y-10261984D01*
X16520991Y-10261984D02*
X16454325Y-10338174D01*
X16454325Y-10338174D02*
X16482896Y-10338174D01*
X16482896Y-10338174D02*
X16501944Y-10347698D01*
X16501944Y-10347698D02*
X16511467Y-10357222D01*
X16511467Y-10357222D02*
X16520991Y-10376270D01*
X16520991Y-10376270D02*
X16520991Y-10423889D01*
X16520991Y-10423889D02*
X16511467Y-10442936D01*
X16511467Y-10442936D02*
X16501944Y-10452460D01*
X16501944Y-10452460D02*
X16482896Y-10461984D01*
X16482896Y-10461984D02*
X16425753Y-10461984D01*
X16425753Y-10461984D02*
X16406706Y-10452460D01*
X16406706Y-10452460D02*
X16397182Y-10442936D01*
X16711467Y-10461984D02*
X16597182Y-10461984D01*
X16654325Y-10461984D02*
X16654325Y-10261984D01*
X16654325Y-10261984D02*
X16635277Y-10290555D01*
X16635277Y-10290555D02*
X16616229Y-10309603D01*
X16616229Y-10309603D02*
X16597182Y-10319127D01*
X16892420Y-10261984D02*
X16797182Y-10261984D01*
X16797182Y-10261984D02*
X16787658Y-10357222D01*
X16787658Y-10357222D02*
X16797182Y-10347698D01*
X16797182Y-10347698D02*
X16816229Y-10338174D01*
X16816229Y-10338174D02*
X16863849Y-10338174D01*
X16863849Y-10338174D02*
X16882896Y-10347698D01*
X16882896Y-10347698D02*
X16892420Y-10357222D01*
X16892420Y-10357222D02*
X16901944Y-10376270D01*
X16901944Y-10376270D02*
X16901944Y-10423889D01*
X16901944Y-10423889D02*
X16892420Y-10442936D01*
X16892420Y-10442936D02*
X16882896Y-10452460D01*
X16882896Y-10452460D02*
X16863849Y-10461984D01*
X16863849Y-10461984D02*
X16816229Y-10461984D01*
X16816229Y-10461984D02*
X16797182Y-10452460D01*
X16797182Y-10452460D02*
X16787658Y-10442936D01*
X16978134Y-10261984D02*
X16978134Y-10300079D01*
X17054325Y-10261984D02*
X17054325Y-10300079D01*
X17349563Y-10538174D02*
X17340039Y-10528650D01*
X17340039Y-10528650D02*
X17320991Y-10500079D01*
X17320991Y-10500079D02*
X17311468Y-10481031D01*
X17311468Y-10481031D02*
X17301944Y-10452460D01*
X17301944Y-10452460D02*
X17292420Y-10404841D01*
X17292420Y-10404841D02*
X17292420Y-10366746D01*
X17292420Y-10366746D02*
X17301944Y-10319127D01*
X17301944Y-10319127D02*
X17311468Y-10290555D01*
X17311468Y-10290555D02*
X17320991Y-10271508D01*
X17320991Y-10271508D02*
X17340039Y-10242936D01*
X17340039Y-10242936D02*
X17349563Y-10233412D01*
X17530515Y-10461984D02*
X17416230Y-10461984D01*
X17473372Y-10461984D02*
X17473372Y-10261984D01*
X17473372Y-10261984D02*
X17454325Y-10290555D01*
X17454325Y-10290555D02*
X17435277Y-10309603D01*
X17435277Y-10309603D02*
X17416230Y-10319127D01*
X17606706Y-10281031D02*
X17616230Y-10271508D01*
X17616230Y-10271508D02*
X17635277Y-10261984D01*
X17635277Y-10261984D02*
X17682896Y-10261984D01*
X17682896Y-10261984D02*
X17701944Y-10271508D01*
X17701944Y-10271508D02*
X17711468Y-10281031D01*
X17711468Y-10281031D02*
X17720991Y-10300079D01*
X17720991Y-10300079D02*
X17720991Y-10319127D01*
X17720991Y-10319127D02*
X17711468Y-10347698D01*
X17711468Y-10347698D02*
X17597182Y-10461984D01*
X17597182Y-10461984D02*
X17720991Y-10461984D01*
X17959087Y-10461984D02*
X17959087Y-10261984D01*
X18044801Y-10461984D02*
X18044801Y-10357222D01*
X18044801Y-10357222D02*
X18035277Y-10338174D01*
X18035277Y-10338174D02*
X18016230Y-10328650D01*
X18016230Y-10328650D02*
X17987658Y-10328650D01*
X17987658Y-10328650D02*
X17968611Y-10338174D01*
X17968611Y-10338174D02*
X17959087Y-10347698D01*
X18168611Y-10461984D02*
X18149563Y-10452460D01*
X18149563Y-10452460D02*
X18140039Y-10442936D01*
X18140039Y-10442936D02*
X18130515Y-10423889D01*
X18130515Y-10423889D02*
X18130515Y-10366746D01*
X18130515Y-10366746D02*
X18140039Y-10347698D01*
X18140039Y-10347698D02*
X18149563Y-10338174D01*
X18149563Y-10338174D02*
X18168611Y-10328650D01*
X18168611Y-10328650D02*
X18197182Y-10328650D01*
X18197182Y-10328650D02*
X18216230Y-10338174D01*
X18216230Y-10338174D02*
X18225753Y-10347698D01*
X18225753Y-10347698D02*
X18235277Y-10366746D01*
X18235277Y-10366746D02*
X18235277Y-10423889D01*
X18235277Y-10423889D02*
X18225753Y-10442936D01*
X18225753Y-10442936D02*
X18216230Y-10452460D01*
X18216230Y-10452460D02*
X18197182Y-10461984D01*
X18197182Y-10461984D02*
X18168611Y-10461984D01*
X18349563Y-10461984D02*
X18330515Y-10452460D01*
X18330515Y-10452460D02*
X18320992Y-10433412D01*
X18320992Y-10433412D02*
X18320992Y-10261984D01*
X18501944Y-10452460D02*
X18482896Y-10461984D01*
X18482896Y-10461984D02*
X18444801Y-10461984D01*
X18444801Y-10461984D02*
X18425753Y-10452460D01*
X18425753Y-10452460D02*
X18416230Y-10433412D01*
X18416230Y-10433412D02*
X18416230Y-10357222D01*
X18416230Y-10357222D02*
X18425753Y-10338174D01*
X18425753Y-10338174D02*
X18444801Y-10328650D01*
X18444801Y-10328650D02*
X18482896Y-10328650D01*
X18482896Y-10328650D02*
X18501944Y-10338174D01*
X18501944Y-10338174D02*
X18511468Y-10357222D01*
X18511468Y-10357222D02*
X18511468Y-10376270D01*
X18511468Y-10376270D02*
X18416230Y-10395317D01*
X18587658Y-10452460D02*
X18606706Y-10461984D01*
X18606706Y-10461984D02*
X18644801Y-10461984D01*
X18644801Y-10461984D02*
X18663849Y-10452460D01*
X18663849Y-10452460D02*
X18673373Y-10433412D01*
X18673373Y-10433412D02*
X18673373Y-10423889D01*
X18673373Y-10423889D02*
X18663849Y-10404841D01*
X18663849Y-10404841D02*
X18644801Y-10395317D01*
X18644801Y-10395317D02*
X18616230Y-10395317D01*
X18616230Y-10395317D02*
X18597182Y-10385793D01*
X18597182Y-10385793D02*
X18587658Y-10366746D01*
X18587658Y-10366746D02*
X18587658Y-10357222D01*
X18587658Y-10357222D02*
X18597182Y-10338174D01*
X18597182Y-10338174D02*
X18616230Y-10328650D01*
X18616230Y-10328650D02*
X18644801Y-10328650D01*
X18644801Y-10328650D02*
X18663849Y-10338174D01*
X18740039Y-10538174D02*
X18749563Y-10528650D01*
X18749563Y-10528650D02*
X18768611Y-10500079D01*
X18768611Y-10500079D02*
X18778134Y-10481031D01*
X18778134Y-10481031D02*
X18787658Y-10452460D01*
X18787658Y-10452460D02*
X18797182Y-10404841D01*
X18797182Y-10404841D02*
X18797182Y-10366746D01*
X18797182Y-10366746D02*
X18787658Y-10319127D01*
X18787658Y-10319127D02*
X18778134Y-10290555D01*
X18778134Y-10290555D02*
X18768611Y-10271508D01*
X18768611Y-10271508D02*
X18749563Y-10242936D01*
X18749563Y-10242936D02*
X18740039Y-10233412D01*
D10*
X13724500Y-10584500D02*
X13724500Y-10684500D01*
X13674500Y-10634500D02*
X13774500Y-10634500D01*
D11*
X14140039Y-10725984D02*
X14025753Y-10725984D01*
X14082896Y-10725984D02*
X14082896Y-10525984D01*
X14082896Y-10525984D02*
X14063848Y-10554555D01*
X14063848Y-10554555D02*
X14044801Y-10573603D01*
X14044801Y-10573603D02*
X14025753Y-10583127D01*
X14225753Y-10706936D02*
X14235277Y-10716460D01*
X14235277Y-10716460D02*
X14225753Y-10725984D01*
X14225753Y-10725984D02*
X14216229Y-10716460D01*
X14216229Y-10716460D02*
X14225753Y-10706936D01*
X14225753Y-10706936D02*
X14225753Y-10725984D01*
X14359086Y-10525984D02*
X14378134Y-10525984D01*
X14378134Y-10525984D02*
X14397182Y-10535508D01*
X14397182Y-10535508D02*
X14406705Y-10545031D01*
X14406705Y-10545031D02*
X14416229Y-10564079D01*
X14416229Y-10564079D02*
X14425753Y-10602174D01*
X14425753Y-10602174D02*
X14425753Y-10649793D01*
X14425753Y-10649793D02*
X14416229Y-10687889D01*
X14416229Y-10687889D02*
X14406705Y-10706936D01*
X14406705Y-10706936D02*
X14397182Y-10716460D01*
X14397182Y-10716460D02*
X14378134Y-10725984D01*
X14378134Y-10725984D02*
X14359086Y-10725984D01*
X14359086Y-10725984D02*
X14340039Y-10716460D01*
X14340039Y-10716460D02*
X14330515Y-10706936D01*
X14330515Y-10706936D02*
X14320991Y-10687889D01*
X14320991Y-10687889D02*
X14311467Y-10649793D01*
X14311467Y-10649793D02*
X14311467Y-10602174D01*
X14311467Y-10602174D02*
X14320991Y-10564079D01*
X14320991Y-10564079D02*
X14330515Y-10545031D01*
X14330515Y-10545031D02*
X14340039Y-10535508D01*
X14340039Y-10535508D02*
X14359086Y-10525984D01*
X14549562Y-10525984D02*
X14568610Y-10525984D01*
X14568610Y-10525984D02*
X14587658Y-10535508D01*
X14587658Y-10535508D02*
X14597182Y-10545031D01*
X14597182Y-10545031D02*
X14606705Y-10564079D01*
X14606705Y-10564079D02*
X14616229Y-10602174D01*
X14616229Y-10602174D02*
X14616229Y-10649793D01*
X14616229Y-10649793D02*
X14606705Y-10687889D01*
X14606705Y-10687889D02*
X14597182Y-10706936D01*
X14597182Y-10706936D02*
X14587658Y-10716460D01*
X14587658Y-10716460D02*
X14568610Y-10725984D01*
X14568610Y-10725984D02*
X14549562Y-10725984D01*
X14549562Y-10725984D02*
X14530515Y-10716460D01*
X14530515Y-10716460D02*
X14520991Y-10706936D01*
X14520991Y-10706936D02*
X14511467Y-10687889D01*
X14511467Y-10687889D02*
X14501943Y-10649793D01*
X14501943Y-10649793D02*
X14501943Y-10602174D01*
X14501943Y-10602174D02*
X14511467Y-10564079D01*
X14511467Y-10564079D02*
X14520991Y-10545031D01*
X14520991Y-10545031D02*
X14530515Y-10535508D01*
X14530515Y-10535508D02*
X14549562Y-10525984D01*
X14740039Y-10525984D02*
X14759086Y-10525984D01*
X14759086Y-10525984D02*
X14778134Y-10535508D01*
X14778134Y-10535508D02*
X14787658Y-10545031D01*
X14787658Y-10545031D02*
X14797182Y-10564079D01*
X14797182Y-10564079D02*
X14806705Y-10602174D01*
X14806705Y-10602174D02*
X14806705Y-10649793D01*
X14806705Y-10649793D02*
X14797182Y-10687889D01*
X14797182Y-10687889D02*
X14787658Y-10706936D01*
X14787658Y-10706936D02*
X14778134Y-10716460D01*
X14778134Y-10716460D02*
X14759086Y-10725984D01*
X14759086Y-10725984D02*
X14740039Y-10725984D01*
X14740039Y-10725984D02*
X14720991Y-10716460D01*
X14720991Y-10716460D02*
X14711467Y-10706936D01*
X14711467Y-10706936D02*
X14701943Y-10687889D01*
X14701943Y-10687889D02*
X14692420Y-10649793D01*
X14692420Y-10649793D02*
X14692420Y-10602174D01*
X14692420Y-10602174D02*
X14701943Y-10564079D01*
X14701943Y-10564079D02*
X14711467Y-10545031D01*
X14711467Y-10545031D02*
X14720991Y-10535508D01*
X14720991Y-10535508D02*
X14740039Y-10525984D01*
X14892420Y-10725984D02*
X14892420Y-10592650D01*
X14892420Y-10611698D02*
X14901943Y-10602174D01*
X14901943Y-10602174D02*
X14920991Y-10592650D01*
X14920991Y-10592650D02*
X14949563Y-10592650D01*
X14949563Y-10592650D02*
X14968610Y-10602174D01*
X14968610Y-10602174D02*
X14978134Y-10621222D01*
X14978134Y-10621222D02*
X14978134Y-10725984D01*
X14978134Y-10621222D02*
X14987658Y-10602174D01*
X14987658Y-10602174D02*
X15006705Y-10592650D01*
X15006705Y-10592650D02*
X15035277Y-10592650D01*
X15035277Y-10592650D02*
X15054324Y-10602174D01*
X15054324Y-10602174D02*
X15063848Y-10621222D01*
X15063848Y-10621222D02*
X15063848Y-10725984D01*
X15159086Y-10725984D02*
X15159086Y-10592650D01*
X15159086Y-10611698D02*
X15168610Y-10602174D01*
X15168610Y-10602174D02*
X15187658Y-10592650D01*
X15187658Y-10592650D02*
X15216229Y-10592650D01*
X15216229Y-10592650D02*
X15235277Y-10602174D01*
X15235277Y-10602174D02*
X15244801Y-10621222D01*
X15244801Y-10621222D02*
X15244801Y-10725984D01*
X15244801Y-10621222D02*
X15254324Y-10602174D01*
X15254324Y-10602174D02*
X15273372Y-10592650D01*
X15273372Y-10592650D02*
X15301943Y-10592650D01*
X15301943Y-10592650D02*
X15320991Y-10602174D01*
X15320991Y-10602174D02*
X15330515Y-10621222D01*
X15330515Y-10621222D02*
X15330515Y-10725984D01*
X15720991Y-10516460D02*
X15549563Y-10773603D01*
X15978134Y-10525984D02*
X15997182Y-10525984D01*
X15997182Y-10525984D02*
X16016229Y-10535508D01*
X16016229Y-10535508D02*
X16025753Y-10545031D01*
X16025753Y-10545031D02*
X16035277Y-10564079D01*
X16035277Y-10564079D02*
X16044801Y-10602174D01*
X16044801Y-10602174D02*
X16044801Y-10649793D01*
X16044801Y-10649793D02*
X16035277Y-10687889D01*
X16035277Y-10687889D02*
X16025753Y-10706936D01*
X16025753Y-10706936D02*
X16016229Y-10716460D01*
X16016229Y-10716460D02*
X15997182Y-10725984D01*
X15997182Y-10725984D02*
X15978134Y-10725984D01*
X15978134Y-10725984D02*
X15959086Y-10716460D01*
X15959086Y-10716460D02*
X15949563Y-10706936D01*
X15949563Y-10706936D02*
X15940039Y-10687889D01*
X15940039Y-10687889D02*
X15930515Y-10649793D01*
X15930515Y-10649793D02*
X15930515Y-10602174D01*
X15930515Y-10602174D02*
X15940039Y-10564079D01*
X15940039Y-10564079D02*
X15949563Y-10545031D01*
X15949563Y-10545031D02*
X15959086Y-10535508D01*
X15959086Y-10535508D02*
X15978134Y-10525984D01*
X16130515Y-10706936D02*
X16140039Y-10716460D01*
X16140039Y-10716460D02*
X16130515Y-10725984D01*
X16130515Y-10725984D02*
X16120991Y-10716460D01*
X16120991Y-10716460D02*
X16130515Y-10706936D01*
X16130515Y-10706936D02*
X16130515Y-10725984D01*
X16263848Y-10525984D02*
X16282896Y-10525984D01*
X16282896Y-10525984D02*
X16301944Y-10535508D01*
X16301944Y-10535508D02*
X16311467Y-10545031D01*
X16311467Y-10545031D02*
X16320991Y-10564079D01*
X16320991Y-10564079D02*
X16330515Y-10602174D01*
X16330515Y-10602174D02*
X16330515Y-10649793D01*
X16330515Y-10649793D02*
X16320991Y-10687889D01*
X16320991Y-10687889D02*
X16311467Y-10706936D01*
X16311467Y-10706936D02*
X16301944Y-10716460D01*
X16301944Y-10716460D02*
X16282896Y-10725984D01*
X16282896Y-10725984D02*
X16263848Y-10725984D01*
X16263848Y-10725984D02*
X16244801Y-10716460D01*
X16244801Y-10716460D02*
X16235277Y-10706936D01*
X16235277Y-10706936D02*
X16225753Y-10687889D01*
X16225753Y-10687889D02*
X16216229Y-10649793D01*
X16216229Y-10649793D02*
X16216229Y-10602174D01*
X16216229Y-10602174D02*
X16225753Y-10564079D01*
X16225753Y-10564079D02*
X16235277Y-10545031D01*
X16235277Y-10545031D02*
X16244801Y-10535508D01*
X16244801Y-10535508D02*
X16263848Y-10525984D01*
X16397182Y-10525984D02*
X16520991Y-10525984D01*
X16520991Y-10525984D02*
X16454325Y-10602174D01*
X16454325Y-10602174D02*
X16482896Y-10602174D01*
X16482896Y-10602174D02*
X16501944Y-10611698D01*
X16501944Y-10611698D02*
X16511467Y-10621222D01*
X16511467Y-10621222D02*
X16520991Y-10640270D01*
X16520991Y-10640270D02*
X16520991Y-10687889D01*
X16520991Y-10687889D02*
X16511467Y-10706936D01*
X16511467Y-10706936D02*
X16501944Y-10716460D01*
X16501944Y-10716460D02*
X16482896Y-10725984D01*
X16482896Y-10725984D02*
X16425753Y-10725984D01*
X16425753Y-10725984D02*
X16406706Y-10716460D01*
X16406706Y-10716460D02*
X16397182Y-10706936D01*
X16616229Y-10725984D02*
X16654325Y-10725984D01*
X16654325Y-10725984D02*
X16673372Y-10716460D01*
X16673372Y-10716460D02*
X16682896Y-10706936D01*
X16682896Y-10706936D02*
X16701944Y-10678365D01*
X16701944Y-10678365D02*
X16711467Y-10640270D01*
X16711467Y-10640270D02*
X16711467Y-10564079D01*
X16711467Y-10564079D02*
X16701944Y-10545031D01*
X16701944Y-10545031D02*
X16692420Y-10535508D01*
X16692420Y-10535508D02*
X16673372Y-10525984D01*
X16673372Y-10525984D02*
X16635277Y-10525984D01*
X16635277Y-10525984D02*
X16616229Y-10535508D01*
X16616229Y-10535508D02*
X16606706Y-10545031D01*
X16606706Y-10545031D02*
X16597182Y-10564079D01*
X16597182Y-10564079D02*
X16597182Y-10611698D01*
X16597182Y-10611698D02*
X16606706Y-10630746D01*
X16606706Y-10630746D02*
X16616229Y-10640270D01*
X16616229Y-10640270D02*
X16635277Y-10649793D01*
X16635277Y-10649793D02*
X16673372Y-10649793D01*
X16673372Y-10649793D02*
X16692420Y-10640270D01*
X16692420Y-10640270D02*
X16701944Y-10630746D01*
X16701944Y-10630746D02*
X16711467Y-10611698D01*
X16882896Y-10592650D02*
X16882896Y-10725984D01*
X16835277Y-10516460D02*
X16787658Y-10659317D01*
X16787658Y-10659317D02*
X16911468Y-10659317D01*
X16978134Y-10525984D02*
X16978134Y-10564079D01*
X17054325Y-10525984D02*
X17054325Y-10564079D01*
X17349563Y-10802174D02*
X17340039Y-10792650D01*
X17340039Y-10792650D02*
X17320991Y-10764079D01*
X17320991Y-10764079D02*
X17311468Y-10745031D01*
X17311468Y-10745031D02*
X17301944Y-10716460D01*
X17301944Y-10716460D02*
X17292420Y-10668841D01*
X17292420Y-10668841D02*
X17292420Y-10630746D01*
X17292420Y-10630746D02*
X17301944Y-10583127D01*
X17301944Y-10583127D02*
X17311468Y-10554555D01*
X17311468Y-10554555D02*
X17320991Y-10535508D01*
X17320991Y-10535508D02*
X17340039Y-10506936D01*
X17340039Y-10506936D02*
X17349563Y-10497412D01*
X17454325Y-10611698D02*
X17435277Y-10602174D01*
X17435277Y-10602174D02*
X17425753Y-10592650D01*
X17425753Y-10592650D02*
X17416230Y-10573603D01*
X17416230Y-10573603D02*
X17416230Y-10564079D01*
X17416230Y-10564079D02*
X17425753Y-10545031D01*
X17425753Y-10545031D02*
X17435277Y-10535508D01*
X17435277Y-10535508D02*
X17454325Y-10525984D01*
X17454325Y-10525984D02*
X17492420Y-10525984D01*
X17492420Y-10525984D02*
X17511468Y-10535508D01*
X17511468Y-10535508D02*
X17520991Y-10545031D01*
X17520991Y-10545031D02*
X17530515Y-10564079D01*
X17530515Y-10564079D02*
X17530515Y-10573603D01*
X17530515Y-10573603D02*
X17520991Y-10592650D01*
X17520991Y-10592650D02*
X17511468Y-10602174D01*
X17511468Y-10602174D02*
X17492420Y-10611698D01*
X17492420Y-10611698D02*
X17454325Y-10611698D01*
X17454325Y-10611698D02*
X17435277Y-10621222D01*
X17435277Y-10621222D02*
X17425753Y-10630746D01*
X17425753Y-10630746D02*
X17416230Y-10649793D01*
X17416230Y-10649793D02*
X17416230Y-10687889D01*
X17416230Y-10687889D02*
X17425753Y-10706936D01*
X17425753Y-10706936D02*
X17435277Y-10716460D01*
X17435277Y-10716460D02*
X17454325Y-10725984D01*
X17454325Y-10725984D02*
X17492420Y-10725984D01*
X17492420Y-10725984D02*
X17511468Y-10716460D01*
X17511468Y-10716460D02*
X17520991Y-10706936D01*
X17520991Y-10706936D02*
X17530515Y-10687889D01*
X17530515Y-10687889D02*
X17530515Y-10649793D01*
X17530515Y-10649793D02*
X17520991Y-10630746D01*
X17520991Y-10630746D02*
X17511468Y-10621222D01*
X17511468Y-10621222D02*
X17492420Y-10611698D01*
X17768611Y-10725984D02*
X17768611Y-10525984D01*
X17854325Y-10725984D02*
X17854325Y-10621222D01*
X17854325Y-10621222D02*
X17844801Y-10602174D01*
X17844801Y-10602174D02*
X17825753Y-10592650D01*
X17825753Y-10592650D02*
X17797182Y-10592650D01*
X17797182Y-10592650D02*
X17778134Y-10602174D01*
X17778134Y-10602174D02*
X17768611Y-10611698D01*
X17978134Y-10725984D02*
X17959087Y-10716460D01*
X17959087Y-10716460D02*
X17949563Y-10706936D01*
X17949563Y-10706936D02*
X17940039Y-10687889D01*
X17940039Y-10687889D02*
X17940039Y-10630746D01*
X17940039Y-10630746D02*
X17949563Y-10611698D01*
X17949563Y-10611698D02*
X17959087Y-10602174D01*
X17959087Y-10602174D02*
X17978134Y-10592650D01*
X17978134Y-10592650D02*
X18006706Y-10592650D01*
X18006706Y-10592650D02*
X18025753Y-10602174D01*
X18025753Y-10602174D02*
X18035277Y-10611698D01*
X18035277Y-10611698D02*
X18044801Y-10630746D01*
X18044801Y-10630746D02*
X18044801Y-10687889D01*
X18044801Y-10687889D02*
X18035277Y-10706936D01*
X18035277Y-10706936D02*
X18025753Y-10716460D01*
X18025753Y-10716460D02*
X18006706Y-10725984D01*
X18006706Y-10725984D02*
X17978134Y-10725984D01*
X18159087Y-10725984D02*
X18140039Y-10716460D01*
X18140039Y-10716460D02*
X18130515Y-10697412D01*
X18130515Y-10697412D02*
X18130515Y-10525984D01*
X18311468Y-10716460D02*
X18292420Y-10725984D01*
X18292420Y-10725984D02*
X18254325Y-10725984D01*
X18254325Y-10725984D02*
X18235277Y-10716460D01*
X18235277Y-10716460D02*
X18225753Y-10697412D01*
X18225753Y-10697412D02*
X18225753Y-10621222D01*
X18225753Y-10621222D02*
X18235277Y-10602174D01*
X18235277Y-10602174D02*
X18254325Y-10592650D01*
X18254325Y-10592650D02*
X18292420Y-10592650D01*
X18292420Y-10592650D02*
X18311468Y-10602174D01*
X18311468Y-10602174D02*
X18320992Y-10621222D01*
X18320992Y-10621222D02*
X18320992Y-10640270D01*
X18320992Y-10640270D02*
X18225753Y-10659317D01*
X18397182Y-10716460D02*
X18416230Y-10725984D01*
X18416230Y-10725984D02*
X18454325Y-10725984D01*
X18454325Y-10725984D02*
X18473373Y-10716460D01*
X18473373Y-10716460D02*
X18482896Y-10697412D01*
X18482896Y-10697412D02*
X18482896Y-10687889D01*
X18482896Y-10687889D02*
X18473373Y-10668841D01*
X18473373Y-10668841D02*
X18454325Y-10659317D01*
X18454325Y-10659317D02*
X18425753Y-10659317D01*
X18425753Y-10659317D02*
X18406706Y-10649793D01*
X18406706Y-10649793D02*
X18397182Y-10630746D01*
X18397182Y-10630746D02*
X18397182Y-10621222D01*
X18397182Y-10621222D02*
X18406706Y-10602174D01*
X18406706Y-10602174D02*
X18425753Y-10592650D01*
X18425753Y-10592650D02*
X18454325Y-10592650D01*
X18454325Y-10592650D02*
X18473373Y-10602174D01*
X18549563Y-10802174D02*
X18559087Y-10792650D01*
X18559087Y-10792650D02*
X18578134Y-10764079D01*
X18578134Y-10764079D02*
X18587658Y-10745031D01*
X18587658Y-10745031D02*
X18597182Y-10716460D01*
X18597182Y-10716460D02*
X18606706Y-10668841D01*
X18606706Y-10668841D02*
X18606706Y-10630746D01*
X18606706Y-10630746D02*
X18597182Y-10583127D01*
X18597182Y-10583127D02*
X18587658Y-10554555D01*
X18587658Y-10554555D02*
X18578134Y-10535508D01*
X18578134Y-10535508D02*
X18559087Y-10506936D01*
X18559087Y-10506936D02*
X18549563Y-10497412D01*
M02*
