%TF.GenerationSoftware,KiCad,Pcbnew,7.0.8*%
%TF.CreationDate,2023-11-30T20:00:33+00:00*%
%TF.ProjectId,thermo_module,74686572-6d6f-45f6-9d6f-64756c652e6b,rev?*%
%TF.SameCoordinates,Original*%
%TF.FileFunction,Drillmap*%
%TF.FilePolarity,Positive*%
%FSLAX45Y45*%
G04 Gerber Fmt 4.5, Leading zero omitted, Abs format (unit mm)*
G04 Created by KiCad (PCBNEW 7.0.8) date 2023-11-30 20:00:33*
%MOMM*%
%LPD*%
G01*
G04 APERTURE LIST*
%ADD10C,0.100000*%
%ADD11C,0.200000*%
%ADD12C,0.070000*%
%ADD13C,0.080000*%
G04 APERTURE END LIST*
D10*
X13620750Y-4508500D02*
X16859250Y-4508500D01*
X16859250Y-8445500D01*
X13620750Y-8445500D01*
X13620750Y-4508500D01*
D11*
D12*
X14093750Y-6124500D02*
X14163750Y-6194500D01*
X14163750Y-6124500D02*
X14093750Y-6194500D01*
X14093750Y-6378500D02*
X14163750Y-6448500D01*
X14163750Y-6378500D02*
X14093750Y-6448500D01*
X14093750Y-6632500D02*
X14163750Y-6702500D01*
X14163750Y-6632500D02*
X14093750Y-6702500D01*
X14093750Y-7394500D02*
X14163750Y-7464500D01*
X14163750Y-7394500D02*
X14093750Y-7464500D01*
X14601750Y-7394500D02*
X14671750Y-7464500D01*
X14671750Y-7394500D02*
X14601750Y-7464500D01*
X14855750Y-6124500D02*
X14925750Y-6194500D01*
X14925750Y-6124500D02*
X14855750Y-6194500D01*
X14855750Y-6378500D02*
X14925750Y-6448500D01*
X14925750Y-6378500D02*
X14855750Y-6448500D01*
X15363750Y-7394500D02*
X15433750Y-7464500D01*
X15433750Y-7394500D02*
X15363750Y-7464500D01*
X15871750Y-6124500D02*
X15941750Y-6194500D01*
X15941750Y-6124500D02*
X15871750Y-6194500D01*
X15871750Y-6378500D02*
X15941750Y-6448500D01*
X15941750Y-6378500D02*
X15871750Y-6448500D01*
X16633750Y-6124500D02*
X16703750Y-6194500D01*
X16703750Y-6124500D02*
X16633750Y-6194500D01*
X16633750Y-6378500D02*
X16703750Y-6448500D01*
X16703750Y-6378500D02*
X16633750Y-6448500D01*
X16633750Y-6632500D02*
X16703750Y-6702500D01*
X16703750Y-6632500D02*
X16633750Y-6702500D01*
X16633750Y-7394500D02*
X16703750Y-7464500D01*
X16703750Y-7394500D02*
X16633750Y-7464500D01*
D13*
X14426750Y-6921500D02*
G75*
G03*
X14426750Y-6921500I-40000J0D01*
G01*
X14676750Y-6921500D02*
G75*
G03*
X14676750Y-6921500I-40000J0D01*
G01*
X15184750Y-4889500D02*
G75*
G03*
X15184750Y-4889500I-40000J0D01*
G01*
X15184750Y-6159500D02*
G75*
G03*
X15184750Y-6159500I-40000J0D01*
G01*
X15184750Y-6667500D02*
G75*
G03*
X15184750Y-6667500I-40000J0D01*
G01*
X15438750Y-4889500D02*
G75*
G03*
X15438750Y-4889500I-40000J0D01*
G01*
X15438750Y-6159500D02*
G75*
G03*
X15438750Y-6159500I-40000J0D01*
G01*
X15438750Y-6667500D02*
G75*
G03*
X15438750Y-6667500I-40000J0D01*
G01*
X15692750Y-4889500D02*
G75*
G03*
X15692750Y-4889500I-40000J0D01*
G01*
X15692750Y-6159500D02*
G75*
G03*
X15692750Y-6159500I-40000J0D01*
G01*
X15692750Y-6667500D02*
G75*
G03*
X15692750Y-6667500I-40000J0D01*
G01*
X15692750Y-7429500D02*
G75*
G03*
X15692750Y-7429500I-40000J0D01*
G01*
X15946750Y-7429500D02*
G75*
G03*
X15946750Y-7429500I-40000J0D01*
G01*
X16200750Y-6921500D02*
G75*
G03*
X16200750Y-6921500I-40000J0D01*
G01*
X16200750Y-7429500D02*
G75*
G03*
X16200750Y-7429500I-40000J0D01*
G01*
X16450750Y-6921500D02*
G75*
G03*
X16450750Y-6921500I-40000J0D01*
G01*
D10*
X14382750Y-7887500D02*
X14382750Y-7987500D01*
X14332750Y-7937500D02*
X14432750Y-7937500D01*
X14636750Y-7887500D02*
X14636750Y-7987500D01*
X14586750Y-7937500D02*
X14686750Y-7937500D01*
X14890750Y-7887500D02*
X14890750Y-7987500D01*
X14840750Y-7937500D02*
X14940750Y-7937500D01*
X15144750Y-7887500D02*
X15144750Y-7987500D01*
X15094750Y-7937500D02*
X15194750Y-7937500D01*
X15398750Y-7887500D02*
X15398750Y-7987500D01*
X15348750Y-7937500D02*
X15448750Y-7937500D01*
X15652750Y-7887500D02*
X15652750Y-7987500D01*
X15602750Y-7937500D02*
X15702750Y-7937500D01*
X15906750Y-7887500D02*
X15906750Y-7987500D01*
X15856750Y-7937500D02*
X15956750Y-7937500D01*
X16160750Y-7887500D02*
X16160750Y-7987500D01*
X16110750Y-7937500D02*
X16210750Y-7937500D01*
D11*
X13876527Y-8761984D02*
X13876527Y-8561984D01*
X13876527Y-8561984D02*
X13924146Y-8561984D01*
X13924146Y-8561984D02*
X13952717Y-8571508D01*
X13952717Y-8571508D02*
X13971765Y-8590555D01*
X13971765Y-8590555D02*
X13981289Y-8609603D01*
X13981289Y-8609603D02*
X13990812Y-8647698D01*
X13990812Y-8647698D02*
X13990812Y-8676270D01*
X13990812Y-8676270D02*
X13981289Y-8714365D01*
X13981289Y-8714365D02*
X13971765Y-8733412D01*
X13971765Y-8733412D02*
X13952717Y-8752460D01*
X13952717Y-8752460D02*
X13924146Y-8761984D01*
X13924146Y-8761984D02*
X13876527Y-8761984D01*
X14076527Y-8761984D02*
X14076527Y-8628650D01*
X14076527Y-8666746D02*
X14086051Y-8647698D01*
X14086051Y-8647698D02*
X14095574Y-8638174D01*
X14095574Y-8638174D02*
X14114622Y-8628650D01*
X14114622Y-8628650D02*
X14133670Y-8628650D01*
X14200336Y-8761984D02*
X14200336Y-8628650D01*
X14200336Y-8561984D02*
X14190812Y-8571508D01*
X14190812Y-8571508D02*
X14200336Y-8581031D01*
X14200336Y-8581031D02*
X14209860Y-8571508D01*
X14209860Y-8571508D02*
X14200336Y-8561984D01*
X14200336Y-8561984D02*
X14200336Y-8581031D01*
X14324146Y-8761984D02*
X14305098Y-8752460D01*
X14305098Y-8752460D02*
X14295574Y-8733412D01*
X14295574Y-8733412D02*
X14295574Y-8561984D01*
X14428908Y-8761984D02*
X14409860Y-8752460D01*
X14409860Y-8752460D02*
X14400336Y-8733412D01*
X14400336Y-8733412D02*
X14400336Y-8561984D01*
X14657479Y-8761984D02*
X14657479Y-8561984D01*
X14657479Y-8561984D02*
X14724146Y-8704841D01*
X14724146Y-8704841D02*
X14790812Y-8561984D01*
X14790812Y-8561984D02*
X14790812Y-8761984D01*
X14971765Y-8761984D02*
X14971765Y-8657222D01*
X14971765Y-8657222D02*
X14962241Y-8638174D01*
X14962241Y-8638174D02*
X14943193Y-8628650D01*
X14943193Y-8628650D02*
X14905098Y-8628650D01*
X14905098Y-8628650D02*
X14886051Y-8638174D01*
X14971765Y-8752460D02*
X14952717Y-8761984D01*
X14952717Y-8761984D02*
X14905098Y-8761984D01*
X14905098Y-8761984D02*
X14886051Y-8752460D01*
X14886051Y-8752460D02*
X14876527Y-8733412D01*
X14876527Y-8733412D02*
X14876527Y-8714365D01*
X14876527Y-8714365D02*
X14886051Y-8695317D01*
X14886051Y-8695317D02*
X14905098Y-8685793D01*
X14905098Y-8685793D02*
X14952717Y-8685793D01*
X14952717Y-8685793D02*
X14971765Y-8676270D01*
X15067003Y-8628650D02*
X15067003Y-8828650D01*
X15067003Y-8638174D02*
X15086051Y-8628650D01*
X15086051Y-8628650D02*
X15124146Y-8628650D01*
X15124146Y-8628650D02*
X15143193Y-8638174D01*
X15143193Y-8638174D02*
X15152717Y-8647698D01*
X15152717Y-8647698D02*
X15162241Y-8666746D01*
X15162241Y-8666746D02*
X15162241Y-8723889D01*
X15162241Y-8723889D02*
X15152717Y-8742936D01*
X15152717Y-8742936D02*
X15143193Y-8752460D01*
X15143193Y-8752460D02*
X15124146Y-8761984D01*
X15124146Y-8761984D02*
X15086051Y-8761984D01*
X15086051Y-8761984D02*
X15067003Y-8752460D01*
X15247955Y-8742936D02*
X15257479Y-8752460D01*
X15257479Y-8752460D02*
X15247955Y-8761984D01*
X15247955Y-8761984D02*
X15238432Y-8752460D01*
X15238432Y-8752460D02*
X15247955Y-8742936D01*
X15247955Y-8742936D02*
X15247955Y-8761984D01*
X15247955Y-8638174D02*
X15257479Y-8647698D01*
X15257479Y-8647698D02*
X15247955Y-8657222D01*
X15247955Y-8657222D02*
X15238432Y-8647698D01*
X15238432Y-8647698D02*
X15247955Y-8638174D01*
X15247955Y-8638174D02*
X15247955Y-8657222D01*
D12*
X13545750Y-9055500D02*
X13615750Y-9125500D01*
X13615750Y-9055500D02*
X13545750Y-9125500D01*
D11*
X13914622Y-8981984D02*
X13933670Y-8981984D01*
X13933670Y-8981984D02*
X13952717Y-8991508D01*
X13952717Y-8991508D02*
X13962241Y-9001031D01*
X13962241Y-9001031D02*
X13971765Y-9020079D01*
X13971765Y-9020079D02*
X13981289Y-9058174D01*
X13981289Y-9058174D02*
X13981289Y-9105793D01*
X13981289Y-9105793D02*
X13971765Y-9143889D01*
X13971765Y-9143889D02*
X13962241Y-9162936D01*
X13962241Y-9162936D02*
X13952717Y-9172460D01*
X13952717Y-9172460D02*
X13933670Y-9181984D01*
X13933670Y-9181984D02*
X13914622Y-9181984D01*
X13914622Y-9181984D02*
X13895574Y-9172460D01*
X13895574Y-9172460D02*
X13886051Y-9162936D01*
X13886051Y-9162936D02*
X13876527Y-9143889D01*
X13876527Y-9143889D02*
X13867003Y-9105793D01*
X13867003Y-9105793D02*
X13867003Y-9058174D01*
X13867003Y-9058174D02*
X13876527Y-9020079D01*
X13876527Y-9020079D02*
X13886051Y-9001031D01*
X13886051Y-9001031D02*
X13895574Y-8991508D01*
X13895574Y-8991508D02*
X13914622Y-8981984D01*
X14067003Y-9162936D02*
X14076527Y-9172460D01*
X14076527Y-9172460D02*
X14067003Y-9181984D01*
X14067003Y-9181984D02*
X14057479Y-9172460D01*
X14057479Y-9172460D02*
X14067003Y-9162936D01*
X14067003Y-9162936D02*
X14067003Y-9181984D01*
X14143193Y-8981984D02*
X14276527Y-8981984D01*
X14276527Y-8981984D02*
X14190812Y-9181984D01*
X14390812Y-8981984D02*
X14409860Y-8981984D01*
X14409860Y-8981984D02*
X14428908Y-8991508D01*
X14428908Y-8991508D02*
X14438432Y-9001031D01*
X14438432Y-9001031D02*
X14447955Y-9020079D01*
X14447955Y-9020079D02*
X14457479Y-9058174D01*
X14457479Y-9058174D02*
X14457479Y-9105793D01*
X14457479Y-9105793D02*
X14447955Y-9143889D01*
X14447955Y-9143889D02*
X14438432Y-9162936D01*
X14438432Y-9162936D02*
X14428908Y-9172460D01*
X14428908Y-9172460D02*
X14409860Y-9181984D01*
X14409860Y-9181984D02*
X14390812Y-9181984D01*
X14390812Y-9181984D02*
X14371765Y-9172460D01*
X14371765Y-9172460D02*
X14362241Y-9162936D01*
X14362241Y-9162936D02*
X14352717Y-9143889D01*
X14352717Y-9143889D02*
X14343193Y-9105793D01*
X14343193Y-9105793D02*
X14343193Y-9058174D01*
X14343193Y-9058174D02*
X14352717Y-9020079D01*
X14352717Y-9020079D02*
X14362241Y-9001031D01*
X14362241Y-9001031D02*
X14371765Y-8991508D01*
X14371765Y-8991508D02*
X14390812Y-8981984D01*
X14581289Y-8981984D02*
X14600336Y-8981984D01*
X14600336Y-8981984D02*
X14619384Y-8991508D01*
X14619384Y-8991508D02*
X14628908Y-9001031D01*
X14628908Y-9001031D02*
X14638432Y-9020079D01*
X14638432Y-9020079D02*
X14647955Y-9058174D01*
X14647955Y-9058174D02*
X14647955Y-9105793D01*
X14647955Y-9105793D02*
X14638432Y-9143889D01*
X14638432Y-9143889D02*
X14628908Y-9162936D01*
X14628908Y-9162936D02*
X14619384Y-9172460D01*
X14619384Y-9172460D02*
X14600336Y-9181984D01*
X14600336Y-9181984D02*
X14581289Y-9181984D01*
X14581289Y-9181984D02*
X14562241Y-9172460D01*
X14562241Y-9172460D02*
X14552717Y-9162936D01*
X14552717Y-9162936D02*
X14543193Y-9143889D01*
X14543193Y-9143889D02*
X14533670Y-9105793D01*
X14533670Y-9105793D02*
X14533670Y-9058174D01*
X14533670Y-9058174D02*
X14543193Y-9020079D01*
X14543193Y-9020079D02*
X14552717Y-9001031D01*
X14552717Y-9001031D02*
X14562241Y-8991508D01*
X14562241Y-8991508D02*
X14581289Y-8981984D01*
X14733670Y-9181984D02*
X14733670Y-9048650D01*
X14733670Y-9067698D02*
X14743193Y-9058174D01*
X14743193Y-9058174D02*
X14762241Y-9048650D01*
X14762241Y-9048650D02*
X14790813Y-9048650D01*
X14790813Y-9048650D02*
X14809860Y-9058174D01*
X14809860Y-9058174D02*
X14819384Y-9077222D01*
X14819384Y-9077222D02*
X14819384Y-9181984D01*
X14819384Y-9077222D02*
X14828908Y-9058174D01*
X14828908Y-9058174D02*
X14847955Y-9048650D01*
X14847955Y-9048650D02*
X14876527Y-9048650D01*
X14876527Y-9048650D02*
X14895574Y-9058174D01*
X14895574Y-9058174D02*
X14905098Y-9077222D01*
X14905098Y-9077222D02*
X14905098Y-9181984D01*
X15000336Y-9181984D02*
X15000336Y-9048650D01*
X15000336Y-9067698D02*
X15009860Y-9058174D01*
X15009860Y-9058174D02*
X15028908Y-9048650D01*
X15028908Y-9048650D02*
X15057479Y-9048650D01*
X15057479Y-9048650D02*
X15076527Y-9058174D01*
X15076527Y-9058174D02*
X15086051Y-9077222D01*
X15086051Y-9077222D02*
X15086051Y-9181984D01*
X15086051Y-9077222D02*
X15095574Y-9058174D01*
X15095574Y-9058174D02*
X15114622Y-9048650D01*
X15114622Y-9048650D02*
X15143193Y-9048650D01*
X15143193Y-9048650D02*
X15162241Y-9058174D01*
X15162241Y-9058174D02*
X15171765Y-9077222D01*
X15171765Y-9077222D02*
X15171765Y-9181984D01*
X15562241Y-8972460D02*
X15390813Y-9229603D01*
X15819384Y-8981984D02*
X15838432Y-8981984D01*
X15838432Y-8981984D02*
X15857479Y-8991508D01*
X15857479Y-8991508D02*
X15867003Y-9001031D01*
X15867003Y-9001031D02*
X15876527Y-9020079D01*
X15876527Y-9020079D02*
X15886051Y-9058174D01*
X15886051Y-9058174D02*
X15886051Y-9105793D01*
X15886051Y-9105793D02*
X15876527Y-9143889D01*
X15876527Y-9143889D02*
X15867003Y-9162936D01*
X15867003Y-9162936D02*
X15857479Y-9172460D01*
X15857479Y-9172460D02*
X15838432Y-9181984D01*
X15838432Y-9181984D02*
X15819384Y-9181984D01*
X15819384Y-9181984D02*
X15800336Y-9172460D01*
X15800336Y-9172460D02*
X15790813Y-9162936D01*
X15790813Y-9162936D02*
X15781289Y-9143889D01*
X15781289Y-9143889D02*
X15771765Y-9105793D01*
X15771765Y-9105793D02*
X15771765Y-9058174D01*
X15771765Y-9058174D02*
X15781289Y-9020079D01*
X15781289Y-9020079D02*
X15790813Y-9001031D01*
X15790813Y-9001031D02*
X15800336Y-8991508D01*
X15800336Y-8991508D02*
X15819384Y-8981984D01*
X15971765Y-9162936D02*
X15981289Y-9172460D01*
X15981289Y-9172460D02*
X15971765Y-9181984D01*
X15971765Y-9181984D02*
X15962241Y-9172460D01*
X15962241Y-9172460D02*
X15971765Y-9162936D01*
X15971765Y-9162936D02*
X15971765Y-9181984D01*
X16105098Y-8981984D02*
X16124146Y-8981984D01*
X16124146Y-8981984D02*
X16143194Y-8991508D01*
X16143194Y-8991508D02*
X16152717Y-9001031D01*
X16152717Y-9001031D02*
X16162241Y-9020079D01*
X16162241Y-9020079D02*
X16171765Y-9058174D01*
X16171765Y-9058174D02*
X16171765Y-9105793D01*
X16171765Y-9105793D02*
X16162241Y-9143889D01*
X16162241Y-9143889D02*
X16152717Y-9162936D01*
X16152717Y-9162936D02*
X16143194Y-9172460D01*
X16143194Y-9172460D02*
X16124146Y-9181984D01*
X16124146Y-9181984D02*
X16105098Y-9181984D01*
X16105098Y-9181984D02*
X16086051Y-9172460D01*
X16086051Y-9172460D02*
X16076527Y-9162936D01*
X16076527Y-9162936D02*
X16067003Y-9143889D01*
X16067003Y-9143889D02*
X16057479Y-9105793D01*
X16057479Y-9105793D02*
X16057479Y-9058174D01*
X16057479Y-9058174D02*
X16067003Y-9020079D01*
X16067003Y-9020079D02*
X16076527Y-9001031D01*
X16076527Y-9001031D02*
X16086051Y-8991508D01*
X16086051Y-8991508D02*
X16105098Y-8981984D01*
X16247956Y-9001031D02*
X16257479Y-8991508D01*
X16257479Y-8991508D02*
X16276527Y-8981984D01*
X16276527Y-8981984D02*
X16324146Y-8981984D01*
X16324146Y-8981984D02*
X16343194Y-8991508D01*
X16343194Y-8991508D02*
X16352717Y-9001031D01*
X16352717Y-9001031D02*
X16362241Y-9020079D01*
X16362241Y-9020079D02*
X16362241Y-9039127D01*
X16362241Y-9039127D02*
X16352717Y-9067698D01*
X16352717Y-9067698D02*
X16238432Y-9181984D01*
X16238432Y-9181984D02*
X16362241Y-9181984D01*
X16428908Y-8981984D02*
X16562241Y-8981984D01*
X16562241Y-8981984D02*
X16476527Y-9181984D01*
X16724146Y-8981984D02*
X16686051Y-8981984D01*
X16686051Y-8981984D02*
X16667003Y-8991508D01*
X16667003Y-8991508D02*
X16657479Y-9001031D01*
X16657479Y-9001031D02*
X16638432Y-9029603D01*
X16638432Y-9029603D02*
X16628908Y-9067698D01*
X16628908Y-9067698D02*
X16628908Y-9143889D01*
X16628908Y-9143889D02*
X16638432Y-9162936D01*
X16638432Y-9162936D02*
X16647956Y-9172460D01*
X16647956Y-9172460D02*
X16667003Y-9181984D01*
X16667003Y-9181984D02*
X16705098Y-9181984D01*
X16705098Y-9181984D02*
X16724146Y-9172460D01*
X16724146Y-9172460D02*
X16733670Y-9162936D01*
X16733670Y-9162936D02*
X16743194Y-9143889D01*
X16743194Y-9143889D02*
X16743194Y-9096270D01*
X16743194Y-9096270D02*
X16733670Y-9077222D01*
X16733670Y-9077222D02*
X16724146Y-9067698D01*
X16724146Y-9067698D02*
X16705098Y-9058174D01*
X16705098Y-9058174D02*
X16667003Y-9058174D01*
X16667003Y-9058174D02*
X16647956Y-9067698D01*
X16647956Y-9067698D02*
X16638432Y-9077222D01*
X16638432Y-9077222D02*
X16628908Y-9096270D01*
X16819384Y-8981984D02*
X16819384Y-9020079D01*
X16895575Y-8981984D02*
X16895575Y-9020079D01*
X17190813Y-9258174D02*
X17181289Y-9248650D01*
X17181289Y-9248650D02*
X17162241Y-9220079D01*
X17162241Y-9220079D02*
X17152718Y-9201031D01*
X17152718Y-9201031D02*
X17143194Y-9172460D01*
X17143194Y-9172460D02*
X17133670Y-9124841D01*
X17133670Y-9124841D02*
X17133670Y-9086746D01*
X17133670Y-9086746D02*
X17143194Y-9039127D01*
X17143194Y-9039127D02*
X17152718Y-9010555D01*
X17152718Y-9010555D02*
X17162241Y-8991508D01*
X17162241Y-8991508D02*
X17181289Y-8962936D01*
X17181289Y-8962936D02*
X17190813Y-8953412D01*
X17371765Y-9181984D02*
X17257480Y-9181984D01*
X17314622Y-9181984D02*
X17314622Y-8981984D01*
X17314622Y-8981984D02*
X17295575Y-9010555D01*
X17295575Y-9010555D02*
X17276527Y-9029603D01*
X17276527Y-9029603D02*
X17257480Y-9039127D01*
X17543194Y-9048650D02*
X17543194Y-9181984D01*
X17495575Y-8972460D02*
X17447956Y-9115317D01*
X17447956Y-9115317D02*
X17571765Y-9115317D01*
X17800337Y-9181984D02*
X17800337Y-8981984D01*
X17886051Y-9181984D02*
X17886051Y-9077222D01*
X17886051Y-9077222D02*
X17876527Y-9058174D01*
X17876527Y-9058174D02*
X17857480Y-9048650D01*
X17857480Y-9048650D02*
X17828908Y-9048650D01*
X17828908Y-9048650D02*
X17809861Y-9058174D01*
X17809861Y-9058174D02*
X17800337Y-9067698D01*
X18009861Y-9181984D02*
X17990813Y-9172460D01*
X17990813Y-9172460D02*
X17981289Y-9162936D01*
X17981289Y-9162936D02*
X17971765Y-9143889D01*
X17971765Y-9143889D02*
X17971765Y-9086746D01*
X17971765Y-9086746D02*
X17981289Y-9067698D01*
X17981289Y-9067698D02*
X17990813Y-9058174D01*
X17990813Y-9058174D02*
X18009861Y-9048650D01*
X18009861Y-9048650D02*
X18038432Y-9048650D01*
X18038432Y-9048650D02*
X18057480Y-9058174D01*
X18057480Y-9058174D02*
X18067003Y-9067698D01*
X18067003Y-9067698D02*
X18076527Y-9086746D01*
X18076527Y-9086746D02*
X18076527Y-9143889D01*
X18076527Y-9143889D02*
X18067003Y-9162936D01*
X18067003Y-9162936D02*
X18057480Y-9172460D01*
X18057480Y-9172460D02*
X18038432Y-9181984D01*
X18038432Y-9181984D02*
X18009861Y-9181984D01*
X18190813Y-9181984D02*
X18171765Y-9172460D01*
X18171765Y-9172460D02*
X18162242Y-9153412D01*
X18162242Y-9153412D02*
X18162242Y-8981984D01*
X18343194Y-9172460D02*
X18324146Y-9181984D01*
X18324146Y-9181984D02*
X18286051Y-9181984D01*
X18286051Y-9181984D02*
X18267003Y-9172460D01*
X18267003Y-9172460D02*
X18257480Y-9153412D01*
X18257480Y-9153412D02*
X18257480Y-9077222D01*
X18257480Y-9077222D02*
X18267003Y-9058174D01*
X18267003Y-9058174D02*
X18286051Y-9048650D01*
X18286051Y-9048650D02*
X18324146Y-9048650D01*
X18324146Y-9048650D02*
X18343194Y-9058174D01*
X18343194Y-9058174D02*
X18352718Y-9077222D01*
X18352718Y-9077222D02*
X18352718Y-9096270D01*
X18352718Y-9096270D02*
X18257480Y-9115317D01*
X18428908Y-9172460D02*
X18447956Y-9181984D01*
X18447956Y-9181984D02*
X18486051Y-9181984D01*
X18486051Y-9181984D02*
X18505099Y-9172460D01*
X18505099Y-9172460D02*
X18514623Y-9153412D01*
X18514623Y-9153412D02*
X18514623Y-9143889D01*
X18514623Y-9143889D02*
X18505099Y-9124841D01*
X18505099Y-9124841D02*
X18486051Y-9115317D01*
X18486051Y-9115317D02*
X18457480Y-9115317D01*
X18457480Y-9115317D02*
X18438432Y-9105793D01*
X18438432Y-9105793D02*
X18428908Y-9086746D01*
X18428908Y-9086746D02*
X18428908Y-9077222D01*
X18428908Y-9077222D02*
X18438432Y-9058174D01*
X18438432Y-9058174D02*
X18457480Y-9048650D01*
X18457480Y-9048650D02*
X18486051Y-9048650D01*
X18486051Y-9048650D02*
X18505099Y-9058174D01*
X18581289Y-9258174D02*
X18590813Y-9248650D01*
X18590813Y-9248650D02*
X18609861Y-9220079D01*
X18609861Y-9220079D02*
X18619384Y-9201031D01*
X18619384Y-9201031D02*
X18628908Y-9172460D01*
X18628908Y-9172460D02*
X18638432Y-9124841D01*
X18638432Y-9124841D02*
X18638432Y-9086746D01*
X18638432Y-9086746D02*
X18628908Y-9039127D01*
X18628908Y-9039127D02*
X18619384Y-9010555D01*
X18619384Y-9010555D02*
X18609861Y-8991508D01*
X18609861Y-8991508D02*
X18590813Y-8962936D01*
X18590813Y-8962936D02*
X18581289Y-8953412D01*
D13*
X13615750Y-9354500D02*
G75*
G03*
X13615750Y-9354500I-40000J0D01*
G01*
D11*
X13914622Y-9245984D02*
X13933670Y-9245984D01*
X13933670Y-9245984D02*
X13952717Y-9255508D01*
X13952717Y-9255508D02*
X13962241Y-9265031D01*
X13962241Y-9265031D02*
X13971765Y-9284079D01*
X13971765Y-9284079D02*
X13981289Y-9322174D01*
X13981289Y-9322174D02*
X13981289Y-9369793D01*
X13981289Y-9369793D02*
X13971765Y-9407889D01*
X13971765Y-9407889D02*
X13962241Y-9426936D01*
X13962241Y-9426936D02*
X13952717Y-9436460D01*
X13952717Y-9436460D02*
X13933670Y-9445984D01*
X13933670Y-9445984D02*
X13914622Y-9445984D01*
X13914622Y-9445984D02*
X13895574Y-9436460D01*
X13895574Y-9436460D02*
X13886051Y-9426936D01*
X13886051Y-9426936D02*
X13876527Y-9407889D01*
X13876527Y-9407889D02*
X13867003Y-9369793D01*
X13867003Y-9369793D02*
X13867003Y-9322174D01*
X13867003Y-9322174D02*
X13876527Y-9284079D01*
X13876527Y-9284079D02*
X13886051Y-9265031D01*
X13886051Y-9265031D02*
X13895574Y-9255508D01*
X13895574Y-9255508D02*
X13914622Y-9245984D01*
X14067003Y-9426936D02*
X14076527Y-9436460D01*
X14076527Y-9436460D02*
X14067003Y-9445984D01*
X14067003Y-9445984D02*
X14057479Y-9436460D01*
X14057479Y-9436460D02*
X14067003Y-9426936D01*
X14067003Y-9426936D02*
X14067003Y-9445984D01*
X14190812Y-9331698D02*
X14171765Y-9322174D01*
X14171765Y-9322174D02*
X14162241Y-9312650D01*
X14162241Y-9312650D02*
X14152717Y-9293603D01*
X14152717Y-9293603D02*
X14152717Y-9284079D01*
X14152717Y-9284079D02*
X14162241Y-9265031D01*
X14162241Y-9265031D02*
X14171765Y-9255508D01*
X14171765Y-9255508D02*
X14190812Y-9245984D01*
X14190812Y-9245984D02*
X14228908Y-9245984D01*
X14228908Y-9245984D02*
X14247955Y-9255508D01*
X14247955Y-9255508D02*
X14257479Y-9265031D01*
X14257479Y-9265031D02*
X14267003Y-9284079D01*
X14267003Y-9284079D02*
X14267003Y-9293603D01*
X14267003Y-9293603D02*
X14257479Y-9312650D01*
X14257479Y-9312650D02*
X14247955Y-9322174D01*
X14247955Y-9322174D02*
X14228908Y-9331698D01*
X14228908Y-9331698D02*
X14190812Y-9331698D01*
X14190812Y-9331698D02*
X14171765Y-9341222D01*
X14171765Y-9341222D02*
X14162241Y-9350746D01*
X14162241Y-9350746D02*
X14152717Y-9369793D01*
X14152717Y-9369793D02*
X14152717Y-9407889D01*
X14152717Y-9407889D02*
X14162241Y-9426936D01*
X14162241Y-9426936D02*
X14171765Y-9436460D01*
X14171765Y-9436460D02*
X14190812Y-9445984D01*
X14190812Y-9445984D02*
X14228908Y-9445984D01*
X14228908Y-9445984D02*
X14247955Y-9436460D01*
X14247955Y-9436460D02*
X14257479Y-9426936D01*
X14257479Y-9426936D02*
X14267003Y-9407889D01*
X14267003Y-9407889D02*
X14267003Y-9369793D01*
X14267003Y-9369793D02*
X14257479Y-9350746D01*
X14257479Y-9350746D02*
X14247955Y-9341222D01*
X14247955Y-9341222D02*
X14228908Y-9331698D01*
X14390812Y-9245984D02*
X14409860Y-9245984D01*
X14409860Y-9245984D02*
X14428908Y-9255508D01*
X14428908Y-9255508D02*
X14438432Y-9265031D01*
X14438432Y-9265031D02*
X14447955Y-9284079D01*
X14447955Y-9284079D02*
X14457479Y-9322174D01*
X14457479Y-9322174D02*
X14457479Y-9369793D01*
X14457479Y-9369793D02*
X14447955Y-9407889D01*
X14447955Y-9407889D02*
X14438432Y-9426936D01*
X14438432Y-9426936D02*
X14428908Y-9436460D01*
X14428908Y-9436460D02*
X14409860Y-9445984D01*
X14409860Y-9445984D02*
X14390812Y-9445984D01*
X14390812Y-9445984D02*
X14371765Y-9436460D01*
X14371765Y-9436460D02*
X14362241Y-9426936D01*
X14362241Y-9426936D02*
X14352717Y-9407889D01*
X14352717Y-9407889D02*
X14343193Y-9369793D01*
X14343193Y-9369793D02*
X14343193Y-9322174D01*
X14343193Y-9322174D02*
X14352717Y-9284079D01*
X14352717Y-9284079D02*
X14362241Y-9265031D01*
X14362241Y-9265031D02*
X14371765Y-9255508D01*
X14371765Y-9255508D02*
X14390812Y-9245984D01*
X14581289Y-9245984D02*
X14600336Y-9245984D01*
X14600336Y-9245984D02*
X14619384Y-9255508D01*
X14619384Y-9255508D02*
X14628908Y-9265031D01*
X14628908Y-9265031D02*
X14638432Y-9284079D01*
X14638432Y-9284079D02*
X14647955Y-9322174D01*
X14647955Y-9322174D02*
X14647955Y-9369793D01*
X14647955Y-9369793D02*
X14638432Y-9407889D01*
X14638432Y-9407889D02*
X14628908Y-9426936D01*
X14628908Y-9426936D02*
X14619384Y-9436460D01*
X14619384Y-9436460D02*
X14600336Y-9445984D01*
X14600336Y-9445984D02*
X14581289Y-9445984D01*
X14581289Y-9445984D02*
X14562241Y-9436460D01*
X14562241Y-9436460D02*
X14552717Y-9426936D01*
X14552717Y-9426936D02*
X14543193Y-9407889D01*
X14543193Y-9407889D02*
X14533670Y-9369793D01*
X14533670Y-9369793D02*
X14533670Y-9322174D01*
X14533670Y-9322174D02*
X14543193Y-9284079D01*
X14543193Y-9284079D02*
X14552717Y-9265031D01*
X14552717Y-9265031D02*
X14562241Y-9255508D01*
X14562241Y-9255508D02*
X14581289Y-9245984D01*
X14733670Y-9445984D02*
X14733670Y-9312650D01*
X14733670Y-9331698D02*
X14743193Y-9322174D01*
X14743193Y-9322174D02*
X14762241Y-9312650D01*
X14762241Y-9312650D02*
X14790813Y-9312650D01*
X14790813Y-9312650D02*
X14809860Y-9322174D01*
X14809860Y-9322174D02*
X14819384Y-9341222D01*
X14819384Y-9341222D02*
X14819384Y-9445984D01*
X14819384Y-9341222D02*
X14828908Y-9322174D01*
X14828908Y-9322174D02*
X14847955Y-9312650D01*
X14847955Y-9312650D02*
X14876527Y-9312650D01*
X14876527Y-9312650D02*
X14895574Y-9322174D01*
X14895574Y-9322174D02*
X14905098Y-9341222D01*
X14905098Y-9341222D02*
X14905098Y-9445984D01*
X15000336Y-9445984D02*
X15000336Y-9312650D01*
X15000336Y-9331698D02*
X15009860Y-9322174D01*
X15009860Y-9322174D02*
X15028908Y-9312650D01*
X15028908Y-9312650D02*
X15057479Y-9312650D01*
X15057479Y-9312650D02*
X15076527Y-9322174D01*
X15076527Y-9322174D02*
X15086051Y-9341222D01*
X15086051Y-9341222D02*
X15086051Y-9445984D01*
X15086051Y-9341222D02*
X15095574Y-9322174D01*
X15095574Y-9322174D02*
X15114622Y-9312650D01*
X15114622Y-9312650D02*
X15143193Y-9312650D01*
X15143193Y-9312650D02*
X15162241Y-9322174D01*
X15162241Y-9322174D02*
X15171765Y-9341222D01*
X15171765Y-9341222D02*
X15171765Y-9445984D01*
X15562241Y-9236460D02*
X15390813Y-9493603D01*
X15819384Y-9245984D02*
X15838432Y-9245984D01*
X15838432Y-9245984D02*
X15857479Y-9255508D01*
X15857479Y-9255508D02*
X15867003Y-9265031D01*
X15867003Y-9265031D02*
X15876527Y-9284079D01*
X15876527Y-9284079D02*
X15886051Y-9322174D01*
X15886051Y-9322174D02*
X15886051Y-9369793D01*
X15886051Y-9369793D02*
X15876527Y-9407889D01*
X15876527Y-9407889D02*
X15867003Y-9426936D01*
X15867003Y-9426936D02*
X15857479Y-9436460D01*
X15857479Y-9436460D02*
X15838432Y-9445984D01*
X15838432Y-9445984D02*
X15819384Y-9445984D01*
X15819384Y-9445984D02*
X15800336Y-9436460D01*
X15800336Y-9436460D02*
X15790813Y-9426936D01*
X15790813Y-9426936D02*
X15781289Y-9407889D01*
X15781289Y-9407889D02*
X15771765Y-9369793D01*
X15771765Y-9369793D02*
X15771765Y-9322174D01*
X15771765Y-9322174D02*
X15781289Y-9284079D01*
X15781289Y-9284079D02*
X15790813Y-9265031D01*
X15790813Y-9265031D02*
X15800336Y-9255508D01*
X15800336Y-9255508D02*
X15819384Y-9245984D01*
X15971765Y-9426936D02*
X15981289Y-9436460D01*
X15981289Y-9436460D02*
X15971765Y-9445984D01*
X15971765Y-9445984D02*
X15962241Y-9436460D01*
X15962241Y-9436460D02*
X15971765Y-9426936D01*
X15971765Y-9426936D02*
X15971765Y-9445984D01*
X16105098Y-9245984D02*
X16124146Y-9245984D01*
X16124146Y-9245984D02*
X16143194Y-9255508D01*
X16143194Y-9255508D02*
X16152717Y-9265031D01*
X16152717Y-9265031D02*
X16162241Y-9284079D01*
X16162241Y-9284079D02*
X16171765Y-9322174D01*
X16171765Y-9322174D02*
X16171765Y-9369793D01*
X16171765Y-9369793D02*
X16162241Y-9407889D01*
X16162241Y-9407889D02*
X16152717Y-9426936D01*
X16152717Y-9426936D02*
X16143194Y-9436460D01*
X16143194Y-9436460D02*
X16124146Y-9445984D01*
X16124146Y-9445984D02*
X16105098Y-9445984D01*
X16105098Y-9445984D02*
X16086051Y-9436460D01*
X16086051Y-9436460D02*
X16076527Y-9426936D01*
X16076527Y-9426936D02*
X16067003Y-9407889D01*
X16067003Y-9407889D02*
X16057479Y-9369793D01*
X16057479Y-9369793D02*
X16057479Y-9322174D01*
X16057479Y-9322174D02*
X16067003Y-9284079D01*
X16067003Y-9284079D02*
X16076527Y-9265031D01*
X16076527Y-9265031D02*
X16086051Y-9255508D01*
X16086051Y-9255508D02*
X16105098Y-9245984D01*
X16238432Y-9245984D02*
X16362241Y-9245984D01*
X16362241Y-9245984D02*
X16295575Y-9322174D01*
X16295575Y-9322174D02*
X16324146Y-9322174D01*
X16324146Y-9322174D02*
X16343194Y-9331698D01*
X16343194Y-9331698D02*
X16352717Y-9341222D01*
X16352717Y-9341222D02*
X16362241Y-9360270D01*
X16362241Y-9360270D02*
X16362241Y-9407889D01*
X16362241Y-9407889D02*
X16352717Y-9426936D01*
X16352717Y-9426936D02*
X16343194Y-9436460D01*
X16343194Y-9436460D02*
X16324146Y-9445984D01*
X16324146Y-9445984D02*
X16267003Y-9445984D01*
X16267003Y-9445984D02*
X16247956Y-9436460D01*
X16247956Y-9436460D02*
X16238432Y-9426936D01*
X16552717Y-9445984D02*
X16438432Y-9445984D01*
X16495575Y-9445984D02*
X16495575Y-9245984D01*
X16495575Y-9245984D02*
X16476527Y-9274555D01*
X16476527Y-9274555D02*
X16457479Y-9293603D01*
X16457479Y-9293603D02*
X16438432Y-9303127D01*
X16733670Y-9245984D02*
X16638432Y-9245984D01*
X16638432Y-9245984D02*
X16628908Y-9341222D01*
X16628908Y-9341222D02*
X16638432Y-9331698D01*
X16638432Y-9331698D02*
X16657479Y-9322174D01*
X16657479Y-9322174D02*
X16705098Y-9322174D01*
X16705098Y-9322174D02*
X16724146Y-9331698D01*
X16724146Y-9331698D02*
X16733670Y-9341222D01*
X16733670Y-9341222D02*
X16743194Y-9360270D01*
X16743194Y-9360270D02*
X16743194Y-9407889D01*
X16743194Y-9407889D02*
X16733670Y-9426936D01*
X16733670Y-9426936D02*
X16724146Y-9436460D01*
X16724146Y-9436460D02*
X16705098Y-9445984D01*
X16705098Y-9445984D02*
X16657479Y-9445984D01*
X16657479Y-9445984D02*
X16638432Y-9436460D01*
X16638432Y-9436460D02*
X16628908Y-9426936D01*
X16819384Y-9245984D02*
X16819384Y-9284079D01*
X16895575Y-9245984D02*
X16895575Y-9284079D01*
X17190813Y-9522174D02*
X17181289Y-9512650D01*
X17181289Y-9512650D02*
X17162241Y-9484079D01*
X17162241Y-9484079D02*
X17152718Y-9465031D01*
X17152718Y-9465031D02*
X17143194Y-9436460D01*
X17143194Y-9436460D02*
X17133670Y-9388841D01*
X17133670Y-9388841D02*
X17133670Y-9350746D01*
X17133670Y-9350746D02*
X17143194Y-9303127D01*
X17143194Y-9303127D02*
X17152718Y-9274555D01*
X17152718Y-9274555D02*
X17162241Y-9255508D01*
X17162241Y-9255508D02*
X17181289Y-9226936D01*
X17181289Y-9226936D02*
X17190813Y-9217412D01*
X17371765Y-9445984D02*
X17257480Y-9445984D01*
X17314622Y-9445984D02*
X17314622Y-9245984D01*
X17314622Y-9245984D02*
X17295575Y-9274555D01*
X17295575Y-9274555D02*
X17276527Y-9293603D01*
X17276527Y-9293603D02*
X17257480Y-9303127D01*
X17543194Y-9245984D02*
X17505099Y-9245984D01*
X17505099Y-9245984D02*
X17486051Y-9255508D01*
X17486051Y-9255508D02*
X17476527Y-9265031D01*
X17476527Y-9265031D02*
X17457480Y-9293603D01*
X17457480Y-9293603D02*
X17447956Y-9331698D01*
X17447956Y-9331698D02*
X17447956Y-9407889D01*
X17447956Y-9407889D02*
X17457480Y-9426936D01*
X17457480Y-9426936D02*
X17467003Y-9436460D01*
X17467003Y-9436460D02*
X17486051Y-9445984D01*
X17486051Y-9445984D02*
X17524146Y-9445984D01*
X17524146Y-9445984D02*
X17543194Y-9436460D01*
X17543194Y-9436460D02*
X17552718Y-9426936D01*
X17552718Y-9426936D02*
X17562241Y-9407889D01*
X17562241Y-9407889D02*
X17562241Y-9360270D01*
X17562241Y-9360270D02*
X17552718Y-9341222D01*
X17552718Y-9341222D02*
X17543194Y-9331698D01*
X17543194Y-9331698D02*
X17524146Y-9322174D01*
X17524146Y-9322174D02*
X17486051Y-9322174D01*
X17486051Y-9322174D02*
X17467003Y-9331698D01*
X17467003Y-9331698D02*
X17457480Y-9341222D01*
X17457480Y-9341222D02*
X17447956Y-9360270D01*
X17800337Y-9445984D02*
X17800337Y-9245984D01*
X17886051Y-9445984D02*
X17886051Y-9341222D01*
X17886051Y-9341222D02*
X17876527Y-9322174D01*
X17876527Y-9322174D02*
X17857480Y-9312650D01*
X17857480Y-9312650D02*
X17828908Y-9312650D01*
X17828908Y-9312650D02*
X17809861Y-9322174D01*
X17809861Y-9322174D02*
X17800337Y-9331698D01*
X18009861Y-9445984D02*
X17990813Y-9436460D01*
X17990813Y-9436460D02*
X17981289Y-9426936D01*
X17981289Y-9426936D02*
X17971765Y-9407889D01*
X17971765Y-9407889D02*
X17971765Y-9350746D01*
X17971765Y-9350746D02*
X17981289Y-9331698D01*
X17981289Y-9331698D02*
X17990813Y-9322174D01*
X17990813Y-9322174D02*
X18009861Y-9312650D01*
X18009861Y-9312650D02*
X18038432Y-9312650D01*
X18038432Y-9312650D02*
X18057480Y-9322174D01*
X18057480Y-9322174D02*
X18067003Y-9331698D01*
X18067003Y-9331698D02*
X18076527Y-9350746D01*
X18076527Y-9350746D02*
X18076527Y-9407889D01*
X18076527Y-9407889D02*
X18067003Y-9426936D01*
X18067003Y-9426936D02*
X18057480Y-9436460D01*
X18057480Y-9436460D02*
X18038432Y-9445984D01*
X18038432Y-9445984D02*
X18009861Y-9445984D01*
X18190813Y-9445984D02*
X18171765Y-9436460D01*
X18171765Y-9436460D02*
X18162242Y-9417412D01*
X18162242Y-9417412D02*
X18162242Y-9245984D01*
X18343194Y-9436460D02*
X18324146Y-9445984D01*
X18324146Y-9445984D02*
X18286051Y-9445984D01*
X18286051Y-9445984D02*
X18267003Y-9436460D01*
X18267003Y-9436460D02*
X18257480Y-9417412D01*
X18257480Y-9417412D02*
X18257480Y-9341222D01*
X18257480Y-9341222D02*
X18267003Y-9322174D01*
X18267003Y-9322174D02*
X18286051Y-9312650D01*
X18286051Y-9312650D02*
X18324146Y-9312650D01*
X18324146Y-9312650D02*
X18343194Y-9322174D01*
X18343194Y-9322174D02*
X18352718Y-9341222D01*
X18352718Y-9341222D02*
X18352718Y-9360270D01*
X18352718Y-9360270D02*
X18257480Y-9379317D01*
X18428908Y-9436460D02*
X18447956Y-9445984D01*
X18447956Y-9445984D02*
X18486051Y-9445984D01*
X18486051Y-9445984D02*
X18505099Y-9436460D01*
X18505099Y-9436460D02*
X18514623Y-9417412D01*
X18514623Y-9417412D02*
X18514623Y-9407889D01*
X18514623Y-9407889D02*
X18505099Y-9388841D01*
X18505099Y-9388841D02*
X18486051Y-9379317D01*
X18486051Y-9379317D02*
X18457480Y-9379317D01*
X18457480Y-9379317D02*
X18438432Y-9369793D01*
X18438432Y-9369793D02*
X18428908Y-9350746D01*
X18428908Y-9350746D02*
X18428908Y-9341222D01*
X18428908Y-9341222D02*
X18438432Y-9322174D01*
X18438432Y-9322174D02*
X18457480Y-9312650D01*
X18457480Y-9312650D02*
X18486051Y-9312650D01*
X18486051Y-9312650D02*
X18505099Y-9322174D01*
X18581289Y-9522174D02*
X18590813Y-9512650D01*
X18590813Y-9512650D02*
X18609861Y-9484079D01*
X18609861Y-9484079D02*
X18619384Y-9465031D01*
X18619384Y-9465031D02*
X18628908Y-9436460D01*
X18628908Y-9436460D02*
X18638432Y-9388841D01*
X18638432Y-9388841D02*
X18638432Y-9350746D01*
X18638432Y-9350746D02*
X18628908Y-9303127D01*
X18628908Y-9303127D02*
X18619384Y-9274555D01*
X18619384Y-9274555D02*
X18609861Y-9255508D01*
X18609861Y-9255508D02*
X18590813Y-9226936D01*
X18590813Y-9226936D02*
X18581289Y-9217412D01*
D10*
X13565750Y-9568500D02*
X13565750Y-9668500D01*
X13515750Y-9618500D02*
X13615750Y-9618500D01*
D11*
X13981289Y-9709984D02*
X13867003Y-9709984D01*
X13924146Y-9709984D02*
X13924146Y-9509984D01*
X13924146Y-9509984D02*
X13905098Y-9538555D01*
X13905098Y-9538555D02*
X13886051Y-9557603D01*
X13886051Y-9557603D02*
X13867003Y-9567127D01*
X14067003Y-9690936D02*
X14076527Y-9700460D01*
X14076527Y-9700460D02*
X14067003Y-9709984D01*
X14067003Y-9709984D02*
X14057479Y-9700460D01*
X14057479Y-9700460D02*
X14067003Y-9690936D01*
X14067003Y-9690936D02*
X14067003Y-9709984D01*
X14200336Y-9509984D02*
X14219384Y-9509984D01*
X14219384Y-9509984D02*
X14238432Y-9519508D01*
X14238432Y-9519508D02*
X14247955Y-9529031D01*
X14247955Y-9529031D02*
X14257479Y-9548079D01*
X14257479Y-9548079D02*
X14267003Y-9586174D01*
X14267003Y-9586174D02*
X14267003Y-9633793D01*
X14267003Y-9633793D02*
X14257479Y-9671889D01*
X14257479Y-9671889D02*
X14247955Y-9690936D01*
X14247955Y-9690936D02*
X14238432Y-9700460D01*
X14238432Y-9700460D02*
X14219384Y-9709984D01*
X14219384Y-9709984D02*
X14200336Y-9709984D01*
X14200336Y-9709984D02*
X14181289Y-9700460D01*
X14181289Y-9700460D02*
X14171765Y-9690936D01*
X14171765Y-9690936D02*
X14162241Y-9671889D01*
X14162241Y-9671889D02*
X14152717Y-9633793D01*
X14152717Y-9633793D02*
X14152717Y-9586174D01*
X14152717Y-9586174D02*
X14162241Y-9548079D01*
X14162241Y-9548079D02*
X14171765Y-9529031D01*
X14171765Y-9529031D02*
X14181289Y-9519508D01*
X14181289Y-9519508D02*
X14200336Y-9509984D01*
X14390812Y-9509984D02*
X14409860Y-9509984D01*
X14409860Y-9509984D02*
X14428908Y-9519508D01*
X14428908Y-9519508D02*
X14438432Y-9529031D01*
X14438432Y-9529031D02*
X14447955Y-9548079D01*
X14447955Y-9548079D02*
X14457479Y-9586174D01*
X14457479Y-9586174D02*
X14457479Y-9633793D01*
X14457479Y-9633793D02*
X14447955Y-9671889D01*
X14447955Y-9671889D02*
X14438432Y-9690936D01*
X14438432Y-9690936D02*
X14428908Y-9700460D01*
X14428908Y-9700460D02*
X14409860Y-9709984D01*
X14409860Y-9709984D02*
X14390812Y-9709984D01*
X14390812Y-9709984D02*
X14371765Y-9700460D01*
X14371765Y-9700460D02*
X14362241Y-9690936D01*
X14362241Y-9690936D02*
X14352717Y-9671889D01*
X14352717Y-9671889D02*
X14343193Y-9633793D01*
X14343193Y-9633793D02*
X14343193Y-9586174D01*
X14343193Y-9586174D02*
X14352717Y-9548079D01*
X14352717Y-9548079D02*
X14362241Y-9529031D01*
X14362241Y-9529031D02*
X14371765Y-9519508D01*
X14371765Y-9519508D02*
X14390812Y-9509984D01*
X14581289Y-9509984D02*
X14600336Y-9509984D01*
X14600336Y-9509984D02*
X14619384Y-9519508D01*
X14619384Y-9519508D02*
X14628908Y-9529031D01*
X14628908Y-9529031D02*
X14638432Y-9548079D01*
X14638432Y-9548079D02*
X14647955Y-9586174D01*
X14647955Y-9586174D02*
X14647955Y-9633793D01*
X14647955Y-9633793D02*
X14638432Y-9671889D01*
X14638432Y-9671889D02*
X14628908Y-9690936D01*
X14628908Y-9690936D02*
X14619384Y-9700460D01*
X14619384Y-9700460D02*
X14600336Y-9709984D01*
X14600336Y-9709984D02*
X14581289Y-9709984D01*
X14581289Y-9709984D02*
X14562241Y-9700460D01*
X14562241Y-9700460D02*
X14552717Y-9690936D01*
X14552717Y-9690936D02*
X14543193Y-9671889D01*
X14543193Y-9671889D02*
X14533670Y-9633793D01*
X14533670Y-9633793D02*
X14533670Y-9586174D01*
X14533670Y-9586174D02*
X14543193Y-9548079D01*
X14543193Y-9548079D02*
X14552717Y-9529031D01*
X14552717Y-9529031D02*
X14562241Y-9519508D01*
X14562241Y-9519508D02*
X14581289Y-9509984D01*
X14733670Y-9709984D02*
X14733670Y-9576650D01*
X14733670Y-9595698D02*
X14743193Y-9586174D01*
X14743193Y-9586174D02*
X14762241Y-9576650D01*
X14762241Y-9576650D02*
X14790813Y-9576650D01*
X14790813Y-9576650D02*
X14809860Y-9586174D01*
X14809860Y-9586174D02*
X14819384Y-9605222D01*
X14819384Y-9605222D02*
X14819384Y-9709984D01*
X14819384Y-9605222D02*
X14828908Y-9586174D01*
X14828908Y-9586174D02*
X14847955Y-9576650D01*
X14847955Y-9576650D02*
X14876527Y-9576650D01*
X14876527Y-9576650D02*
X14895574Y-9586174D01*
X14895574Y-9586174D02*
X14905098Y-9605222D01*
X14905098Y-9605222D02*
X14905098Y-9709984D01*
X15000336Y-9709984D02*
X15000336Y-9576650D01*
X15000336Y-9595698D02*
X15009860Y-9586174D01*
X15009860Y-9586174D02*
X15028908Y-9576650D01*
X15028908Y-9576650D02*
X15057479Y-9576650D01*
X15057479Y-9576650D02*
X15076527Y-9586174D01*
X15076527Y-9586174D02*
X15086051Y-9605222D01*
X15086051Y-9605222D02*
X15086051Y-9709984D01*
X15086051Y-9605222D02*
X15095574Y-9586174D01*
X15095574Y-9586174D02*
X15114622Y-9576650D01*
X15114622Y-9576650D02*
X15143193Y-9576650D01*
X15143193Y-9576650D02*
X15162241Y-9586174D01*
X15162241Y-9586174D02*
X15171765Y-9605222D01*
X15171765Y-9605222D02*
X15171765Y-9709984D01*
X15562241Y-9500460D02*
X15390813Y-9757603D01*
X15819384Y-9509984D02*
X15838432Y-9509984D01*
X15838432Y-9509984D02*
X15857479Y-9519508D01*
X15857479Y-9519508D02*
X15867003Y-9529031D01*
X15867003Y-9529031D02*
X15876527Y-9548079D01*
X15876527Y-9548079D02*
X15886051Y-9586174D01*
X15886051Y-9586174D02*
X15886051Y-9633793D01*
X15886051Y-9633793D02*
X15876527Y-9671889D01*
X15876527Y-9671889D02*
X15867003Y-9690936D01*
X15867003Y-9690936D02*
X15857479Y-9700460D01*
X15857479Y-9700460D02*
X15838432Y-9709984D01*
X15838432Y-9709984D02*
X15819384Y-9709984D01*
X15819384Y-9709984D02*
X15800336Y-9700460D01*
X15800336Y-9700460D02*
X15790813Y-9690936D01*
X15790813Y-9690936D02*
X15781289Y-9671889D01*
X15781289Y-9671889D02*
X15771765Y-9633793D01*
X15771765Y-9633793D02*
X15771765Y-9586174D01*
X15771765Y-9586174D02*
X15781289Y-9548079D01*
X15781289Y-9548079D02*
X15790813Y-9529031D01*
X15790813Y-9529031D02*
X15800336Y-9519508D01*
X15800336Y-9519508D02*
X15819384Y-9509984D01*
X15971765Y-9690936D02*
X15981289Y-9700460D01*
X15981289Y-9700460D02*
X15971765Y-9709984D01*
X15971765Y-9709984D02*
X15962241Y-9700460D01*
X15962241Y-9700460D02*
X15971765Y-9690936D01*
X15971765Y-9690936D02*
X15971765Y-9709984D01*
X16105098Y-9509984D02*
X16124146Y-9509984D01*
X16124146Y-9509984D02*
X16143194Y-9519508D01*
X16143194Y-9519508D02*
X16152717Y-9529031D01*
X16152717Y-9529031D02*
X16162241Y-9548079D01*
X16162241Y-9548079D02*
X16171765Y-9586174D01*
X16171765Y-9586174D02*
X16171765Y-9633793D01*
X16171765Y-9633793D02*
X16162241Y-9671889D01*
X16162241Y-9671889D02*
X16152717Y-9690936D01*
X16152717Y-9690936D02*
X16143194Y-9700460D01*
X16143194Y-9700460D02*
X16124146Y-9709984D01*
X16124146Y-9709984D02*
X16105098Y-9709984D01*
X16105098Y-9709984D02*
X16086051Y-9700460D01*
X16086051Y-9700460D02*
X16076527Y-9690936D01*
X16076527Y-9690936D02*
X16067003Y-9671889D01*
X16067003Y-9671889D02*
X16057479Y-9633793D01*
X16057479Y-9633793D02*
X16057479Y-9586174D01*
X16057479Y-9586174D02*
X16067003Y-9548079D01*
X16067003Y-9548079D02*
X16076527Y-9529031D01*
X16076527Y-9529031D02*
X16086051Y-9519508D01*
X16086051Y-9519508D02*
X16105098Y-9509984D01*
X16238432Y-9509984D02*
X16362241Y-9509984D01*
X16362241Y-9509984D02*
X16295575Y-9586174D01*
X16295575Y-9586174D02*
X16324146Y-9586174D01*
X16324146Y-9586174D02*
X16343194Y-9595698D01*
X16343194Y-9595698D02*
X16352717Y-9605222D01*
X16352717Y-9605222D02*
X16362241Y-9624270D01*
X16362241Y-9624270D02*
X16362241Y-9671889D01*
X16362241Y-9671889D02*
X16352717Y-9690936D01*
X16352717Y-9690936D02*
X16343194Y-9700460D01*
X16343194Y-9700460D02*
X16324146Y-9709984D01*
X16324146Y-9709984D02*
X16267003Y-9709984D01*
X16267003Y-9709984D02*
X16247956Y-9700460D01*
X16247956Y-9700460D02*
X16238432Y-9690936D01*
X16457479Y-9709984D02*
X16495575Y-9709984D01*
X16495575Y-9709984D02*
X16514622Y-9700460D01*
X16514622Y-9700460D02*
X16524146Y-9690936D01*
X16524146Y-9690936D02*
X16543194Y-9662365D01*
X16543194Y-9662365D02*
X16552717Y-9624270D01*
X16552717Y-9624270D02*
X16552717Y-9548079D01*
X16552717Y-9548079D02*
X16543194Y-9529031D01*
X16543194Y-9529031D02*
X16533670Y-9519508D01*
X16533670Y-9519508D02*
X16514622Y-9509984D01*
X16514622Y-9509984D02*
X16476527Y-9509984D01*
X16476527Y-9509984D02*
X16457479Y-9519508D01*
X16457479Y-9519508D02*
X16447956Y-9529031D01*
X16447956Y-9529031D02*
X16438432Y-9548079D01*
X16438432Y-9548079D02*
X16438432Y-9595698D01*
X16438432Y-9595698D02*
X16447956Y-9614746D01*
X16447956Y-9614746D02*
X16457479Y-9624270D01*
X16457479Y-9624270D02*
X16476527Y-9633793D01*
X16476527Y-9633793D02*
X16514622Y-9633793D01*
X16514622Y-9633793D02*
X16533670Y-9624270D01*
X16533670Y-9624270D02*
X16543194Y-9614746D01*
X16543194Y-9614746D02*
X16552717Y-9595698D01*
X16724146Y-9576650D02*
X16724146Y-9709984D01*
X16676527Y-9500460D02*
X16628908Y-9643317D01*
X16628908Y-9643317D02*
X16752717Y-9643317D01*
X16819384Y-9509984D02*
X16819384Y-9548079D01*
X16895575Y-9509984D02*
X16895575Y-9548079D01*
X17190813Y-9786174D02*
X17181289Y-9776650D01*
X17181289Y-9776650D02*
X17162241Y-9748079D01*
X17162241Y-9748079D02*
X17152718Y-9729031D01*
X17152718Y-9729031D02*
X17143194Y-9700460D01*
X17143194Y-9700460D02*
X17133670Y-9652841D01*
X17133670Y-9652841D02*
X17133670Y-9614746D01*
X17133670Y-9614746D02*
X17143194Y-9567127D01*
X17143194Y-9567127D02*
X17152718Y-9538555D01*
X17152718Y-9538555D02*
X17162241Y-9519508D01*
X17162241Y-9519508D02*
X17181289Y-9490936D01*
X17181289Y-9490936D02*
X17190813Y-9481412D01*
X17295575Y-9595698D02*
X17276527Y-9586174D01*
X17276527Y-9586174D02*
X17267003Y-9576650D01*
X17267003Y-9576650D02*
X17257480Y-9557603D01*
X17257480Y-9557603D02*
X17257480Y-9548079D01*
X17257480Y-9548079D02*
X17267003Y-9529031D01*
X17267003Y-9529031D02*
X17276527Y-9519508D01*
X17276527Y-9519508D02*
X17295575Y-9509984D01*
X17295575Y-9509984D02*
X17333670Y-9509984D01*
X17333670Y-9509984D02*
X17352718Y-9519508D01*
X17352718Y-9519508D02*
X17362241Y-9529031D01*
X17362241Y-9529031D02*
X17371765Y-9548079D01*
X17371765Y-9548079D02*
X17371765Y-9557603D01*
X17371765Y-9557603D02*
X17362241Y-9576650D01*
X17362241Y-9576650D02*
X17352718Y-9586174D01*
X17352718Y-9586174D02*
X17333670Y-9595698D01*
X17333670Y-9595698D02*
X17295575Y-9595698D01*
X17295575Y-9595698D02*
X17276527Y-9605222D01*
X17276527Y-9605222D02*
X17267003Y-9614746D01*
X17267003Y-9614746D02*
X17257480Y-9633793D01*
X17257480Y-9633793D02*
X17257480Y-9671889D01*
X17257480Y-9671889D02*
X17267003Y-9690936D01*
X17267003Y-9690936D02*
X17276527Y-9700460D01*
X17276527Y-9700460D02*
X17295575Y-9709984D01*
X17295575Y-9709984D02*
X17333670Y-9709984D01*
X17333670Y-9709984D02*
X17352718Y-9700460D01*
X17352718Y-9700460D02*
X17362241Y-9690936D01*
X17362241Y-9690936D02*
X17371765Y-9671889D01*
X17371765Y-9671889D02*
X17371765Y-9633793D01*
X17371765Y-9633793D02*
X17362241Y-9614746D01*
X17362241Y-9614746D02*
X17352718Y-9605222D01*
X17352718Y-9605222D02*
X17333670Y-9595698D01*
X17609861Y-9709984D02*
X17609861Y-9509984D01*
X17695575Y-9709984D02*
X17695575Y-9605222D01*
X17695575Y-9605222D02*
X17686051Y-9586174D01*
X17686051Y-9586174D02*
X17667003Y-9576650D01*
X17667003Y-9576650D02*
X17638432Y-9576650D01*
X17638432Y-9576650D02*
X17619384Y-9586174D01*
X17619384Y-9586174D02*
X17609861Y-9595698D01*
X17819384Y-9709984D02*
X17800337Y-9700460D01*
X17800337Y-9700460D02*
X17790813Y-9690936D01*
X17790813Y-9690936D02*
X17781289Y-9671889D01*
X17781289Y-9671889D02*
X17781289Y-9614746D01*
X17781289Y-9614746D02*
X17790813Y-9595698D01*
X17790813Y-9595698D02*
X17800337Y-9586174D01*
X17800337Y-9586174D02*
X17819384Y-9576650D01*
X17819384Y-9576650D02*
X17847956Y-9576650D01*
X17847956Y-9576650D02*
X17867003Y-9586174D01*
X17867003Y-9586174D02*
X17876527Y-9595698D01*
X17876527Y-9595698D02*
X17886051Y-9614746D01*
X17886051Y-9614746D02*
X17886051Y-9671889D01*
X17886051Y-9671889D02*
X17876527Y-9690936D01*
X17876527Y-9690936D02*
X17867003Y-9700460D01*
X17867003Y-9700460D02*
X17847956Y-9709984D01*
X17847956Y-9709984D02*
X17819384Y-9709984D01*
X18000337Y-9709984D02*
X17981289Y-9700460D01*
X17981289Y-9700460D02*
X17971765Y-9681412D01*
X17971765Y-9681412D02*
X17971765Y-9509984D01*
X18152718Y-9700460D02*
X18133670Y-9709984D01*
X18133670Y-9709984D02*
X18095575Y-9709984D01*
X18095575Y-9709984D02*
X18076527Y-9700460D01*
X18076527Y-9700460D02*
X18067003Y-9681412D01*
X18067003Y-9681412D02*
X18067003Y-9605222D01*
X18067003Y-9605222D02*
X18076527Y-9586174D01*
X18076527Y-9586174D02*
X18095575Y-9576650D01*
X18095575Y-9576650D02*
X18133670Y-9576650D01*
X18133670Y-9576650D02*
X18152718Y-9586174D01*
X18152718Y-9586174D02*
X18162242Y-9605222D01*
X18162242Y-9605222D02*
X18162242Y-9624270D01*
X18162242Y-9624270D02*
X18067003Y-9643317D01*
X18238432Y-9700460D02*
X18257480Y-9709984D01*
X18257480Y-9709984D02*
X18295575Y-9709984D01*
X18295575Y-9709984D02*
X18314623Y-9700460D01*
X18314623Y-9700460D02*
X18324146Y-9681412D01*
X18324146Y-9681412D02*
X18324146Y-9671889D01*
X18324146Y-9671889D02*
X18314623Y-9652841D01*
X18314623Y-9652841D02*
X18295575Y-9643317D01*
X18295575Y-9643317D02*
X18267003Y-9643317D01*
X18267003Y-9643317D02*
X18247956Y-9633793D01*
X18247956Y-9633793D02*
X18238432Y-9614746D01*
X18238432Y-9614746D02*
X18238432Y-9605222D01*
X18238432Y-9605222D02*
X18247956Y-9586174D01*
X18247956Y-9586174D02*
X18267003Y-9576650D01*
X18267003Y-9576650D02*
X18295575Y-9576650D01*
X18295575Y-9576650D02*
X18314623Y-9586174D01*
X18390813Y-9786174D02*
X18400337Y-9776650D01*
X18400337Y-9776650D02*
X18419384Y-9748079D01*
X18419384Y-9748079D02*
X18428908Y-9729031D01*
X18428908Y-9729031D02*
X18438432Y-9700460D01*
X18438432Y-9700460D02*
X18447956Y-9652841D01*
X18447956Y-9652841D02*
X18447956Y-9614746D01*
X18447956Y-9614746D02*
X18438432Y-9567127D01*
X18438432Y-9567127D02*
X18428908Y-9538555D01*
X18428908Y-9538555D02*
X18419384Y-9519508D01*
X18419384Y-9519508D02*
X18400337Y-9490936D01*
X18400337Y-9490936D02*
X18390813Y-9481412D01*
M02*
