M48
; DRILL file {KiCad 7.0.8} date Thu Nov 30 19:20:51 2023
; FORMAT={-:-/ absolute / metric / decimal}
; #@! TF.CreationDate,2023-11-30T19:20:51+00:00
; #@! TF.GenerationSoftware,Kicad,Pcbnew,7.0.8
; #@! TF.FileFunction,Plated,1,2,PTH
FMAT,2
METRIC
; #@! TA.AperFunction,Plated,PTH,ComponentDrill
T1C0.700
; #@! TA.AperFunction,Plated,PTH,ComponentDrill
T2C0.750
; #@! TA.AperFunction,Plated,PTH,ComponentDrill
T3C0.800
; #@! TA.AperFunction,Plated,PTH,ComponentDrill
T4C1.000
; #@! TA.AperFunction,Plated,PTH,ComponentDrill
T5C1.100
%
G90
G05
T1
X129.89Y-108.87
X129.89Y-116.49
X157.83Y-110.14
X165.45Y-110.14
X167.99Y-68.23
X167.99Y-70.77
X167.99Y-73.31
X167.99Y-75.85
X175.61Y-68.23
X175.61Y-70.77
X175.61Y-73.31
X175.61Y-75.85
T2
X124.81Y-111.41
X124.81Y-119.03
X127.35Y-119.03
X134.97Y-119.03
T3
X114.65Y-88.55
X114.65Y-103.79
X117.19Y-60.527
X117.19Y-75.767
X117.19Y-88.55
X117.19Y-103.79
X119.73Y-60.527
X119.73Y-75.767
X119.73Y-88.55
X119.73Y-103.79
X119.77Y-108.87
X122.27Y-60.527
X122.27Y-75.767
X122.27Y-88.55
X122.27Y-103.79
X122.27Y-108.87
X124.81Y-60.527
X124.81Y-75.767
X124.81Y-88.55
X124.81Y-103.79
X127.35Y-60.527
X127.35Y-75.767
X127.35Y-88.55
X127.35Y-103.79
X127.35Y-108.91
X127.35Y-113.91
X127.39Y-121.57
X129.89Y-60.527
X129.89Y-75.767
X129.89Y-88.55
X129.89Y-103.79
X132.39Y-121.57
X132.43Y-60.527
X132.43Y-75.767
X132.43Y-88.55
X132.43Y-103.79
X132.43Y-108.91
X132.43Y-113.91
X134.97Y-60.527
X134.97Y-75.767
X134.97Y-88.55
X134.97Y-103.79
X135.05Y-108.87
X137.51Y-60.527
X137.51Y-75.767
X137.51Y-88.55
X137.51Y-103.79
X137.51Y-113.925
X140.05Y-88.55
X140.05Y-103.79
X140.05Y-108.87
X140.05Y-113.925
X142.59Y-60.527
X142.59Y-75.767
X142.59Y-88.55
X142.59Y-103.79
X142.59Y-113.925
X143.9Y-108.87
X145.13Y-60.527
X145.13Y-75.767
X145.13Y-88.55
X145.13Y-103.79
X145.13Y-113.925
X147.67Y-60.527
X147.67Y-75.767
X147.67Y-88.55
X147.67Y-103.79
X147.67Y-113.925
X147.67Y-119.03
X147.67Y-126.65
X148.9Y-108.87
X150.21Y-60.527
X150.21Y-75.767
X150.21Y-88.55
X150.21Y-103.79
X150.21Y-113.925
X150.21Y-119.03
X150.21Y-126.65
X152.75Y-60.527
X152.75Y-75.767
X152.75Y-88.55
X152.75Y-103.79
X152.75Y-113.925
X152.75Y-119.03
X152.75Y-126.65
X155.29Y-60.527
X155.29Y-75.767
X155.29Y-88.55
X155.29Y-103.79
X155.29Y-113.925
X155.29Y-119.03
X155.29Y-126.65
X157.83Y-60.527
X157.83Y-75.767
X157.83Y-88.55
X157.83Y-103.79
X157.83Y-107.6
X157.83Y-119.03
X157.83Y-126.65
X160.37Y-60.527
X160.37Y-75.767
X160.37Y-88.55
X160.37Y-103.79
X160.37Y-119.03
X160.37Y-126.65
X162.83Y-107.6
X162.91Y-60.527
X162.91Y-75.767
X162.91Y-88.55
X162.91Y-103.79
X162.91Y-119.03
X162.91Y-126.65
X167.99Y-88.59
X167.99Y-119.03
X167.99Y-124.03
X172.99Y-88.59
T4
X167.99Y-80.93
X167.99Y-83.47
X170.53Y-80.93
X170.53Y-83.47
X173.07Y-80.93
X173.07Y-83.47
X175.61Y-80.93
X175.61Y-83.47
T5
X167.99Y-93.63
X167.99Y-103.79
T0
M30
