%TF.GenerationSoftware,KiCad,Pcbnew,7.0.8*%
%TF.CreationDate,2023-11-30T19:20:53+00:00*%
%TF.ProjectId,mainboard,6d61696e-626f-4617-9264-2e6b69636164,rev?*%
%TF.SameCoordinates,Original*%
%TF.FileFunction,Drillmap*%
%TF.FilePolarity,Positive*%
%FSLAX45Y45*%
G04 Gerber Fmt 4.5, Leading zero omitted, Abs format (unit mm)*
G04 Created by KiCad (PCBNEW 7.0.8) date 2023-11-30 19:20:53*
%MOMM*%
%LPD*%
G01*
G04 APERTURE LIST*
%ADD10C,0.100000*%
%ADD11C,0.200000*%
%ADD12C,0.300000*%
G04 APERTURE END LIST*
D10*
X10703000Y-5680000D02*
X17815000Y-5680000D01*
X17815000Y-12919000D01*
X10703000Y-12919000D01*
X10703000Y-5680000D01*
D11*
D12*
X10934000Y-5911000D02*
X11234000Y-6211000D01*
X11234000Y-5911000D02*
X10934000Y-6211000D01*
X10934000Y-12388000D02*
X11234000Y-12688000D01*
X11234000Y-12388000D02*
X10934000Y-12688000D01*
X13347000Y-8197000D02*
X13647000Y-8497000D01*
X13647000Y-8197000D02*
X13347000Y-8497000D01*
X15631500Y-8197000D02*
X15931500Y-8497000D01*
X15931500Y-8197000D02*
X15631500Y-8497000D01*
X17284000Y-5911000D02*
X17584000Y-6211000D01*
X17584000Y-5911000D02*
X17284000Y-6211000D01*
X17284000Y-12388000D02*
X17584000Y-12688000D01*
X17584000Y-12388000D02*
X17284000Y-12688000D01*
D11*
X10958777Y-13235484D02*
X10958777Y-13035484D01*
X10958777Y-13035484D02*
X11006396Y-13035484D01*
X11006396Y-13035484D02*
X11034967Y-13045008D01*
X11034967Y-13045008D02*
X11054015Y-13064055D01*
X11054015Y-13064055D02*
X11063539Y-13083103D01*
X11063539Y-13083103D02*
X11073063Y-13121198D01*
X11073063Y-13121198D02*
X11073063Y-13149769D01*
X11073063Y-13149769D02*
X11063539Y-13187865D01*
X11063539Y-13187865D02*
X11054015Y-13206912D01*
X11054015Y-13206912D02*
X11034967Y-13225960D01*
X11034967Y-13225960D02*
X11006396Y-13235484D01*
X11006396Y-13235484D02*
X10958777Y-13235484D01*
X11158777Y-13235484D02*
X11158777Y-13102150D01*
X11158777Y-13140246D02*
X11168301Y-13121198D01*
X11168301Y-13121198D02*
X11177824Y-13111674D01*
X11177824Y-13111674D02*
X11196872Y-13102150D01*
X11196872Y-13102150D02*
X11215920Y-13102150D01*
X11282586Y-13235484D02*
X11282586Y-13102150D01*
X11282586Y-13035484D02*
X11273062Y-13045008D01*
X11273062Y-13045008D02*
X11282586Y-13054531D01*
X11282586Y-13054531D02*
X11292110Y-13045008D01*
X11292110Y-13045008D02*
X11282586Y-13035484D01*
X11282586Y-13035484D02*
X11282586Y-13054531D01*
X11406396Y-13235484D02*
X11387348Y-13225960D01*
X11387348Y-13225960D02*
X11377824Y-13206912D01*
X11377824Y-13206912D02*
X11377824Y-13035484D01*
X11511158Y-13235484D02*
X11492110Y-13225960D01*
X11492110Y-13225960D02*
X11482586Y-13206912D01*
X11482586Y-13206912D02*
X11482586Y-13035484D01*
X11739729Y-13235484D02*
X11739729Y-13035484D01*
X11739729Y-13035484D02*
X11806396Y-13178341D01*
X11806396Y-13178341D02*
X11873062Y-13035484D01*
X11873062Y-13035484D02*
X11873062Y-13235484D01*
X12054015Y-13235484D02*
X12054015Y-13130722D01*
X12054015Y-13130722D02*
X12044491Y-13111674D01*
X12044491Y-13111674D02*
X12025443Y-13102150D01*
X12025443Y-13102150D02*
X11987348Y-13102150D01*
X11987348Y-13102150D02*
X11968301Y-13111674D01*
X12054015Y-13225960D02*
X12034967Y-13235484D01*
X12034967Y-13235484D02*
X11987348Y-13235484D01*
X11987348Y-13235484D02*
X11968301Y-13225960D01*
X11968301Y-13225960D02*
X11958777Y-13206912D01*
X11958777Y-13206912D02*
X11958777Y-13187865D01*
X11958777Y-13187865D02*
X11968301Y-13168817D01*
X11968301Y-13168817D02*
X11987348Y-13159293D01*
X11987348Y-13159293D02*
X12034967Y-13159293D01*
X12034967Y-13159293D02*
X12054015Y-13149769D01*
X12149253Y-13102150D02*
X12149253Y-13302150D01*
X12149253Y-13111674D02*
X12168301Y-13102150D01*
X12168301Y-13102150D02*
X12206396Y-13102150D01*
X12206396Y-13102150D02*
X12225443Y-13111674D01*
X12225443Y-13111674D02*
X12234967Y-13121198D01*
X12234967Y-13121198D02*
X12244491Y-13140246D01*
X12244491Y-13140246D02*
X12244491Y-13197388D01*
X12244491Y-13197388D02*
X12234967Y-13216436D01*
X12234967Y-13216436D02*
X12225443Y-13225960D01*
X12225443Y-13225960D02*
X12206396Y-13235484D01*
X12206396Y-13235484D02*
X12168301Y-13235484D01*
X12168301Y-13235484D02*
X12149253Y-13225960D01*
X12330205Y-13216436D02*
X12339729Y-13225960D01*
X12339729Y-13225960D02*
X12330205Y-13235484D01*
X12330205Y-13235484D02*
X12320682Y-13225960D01*
X12320682Y-13225960D02*
X12330205Y-13216436D01*
X12330205Y-13216436D02*
X12330205Y-13235484D01*
X12330205Y-13111674D02*
X12339729Y-13121198D01*
X12339729Y-13121198D02*
X12330205Y-13130722D01*
X12330205Y-13130722D02*
X12320682Y-13121198D01*
X12320682Y-13121198D02*
X12330205Y-13111674D01*
X12330205Y-13111674D02*
X12330205Y-13130722D01*
X10498000Y-13464000D02*
X10698000Y-13664000D01*
X10698000Y-13464000D02*
X10498000Y-13664000D01*
X10939729Y-13455484D02*
X11063539Y-13455484D01*
X11063539Y-13455484D02*
X10996872Y-13531674D01*
X10996872Y-13531674D02*
X11025444Y-13531674D01*
X11025444Y-13531674D02*
X11044491Y-13541198D01*
X11044491Y-13541198D02*
X11054015Y-13550722D01*
X11054015Y-13550722D02*
X11063539Y-13569769D01*
X11063539Y-13569769D02*
X11063539Y-13617388D01*
X11063539Y-13617388D02*
X11054015Y-13636436D01*
X11054015Y-13636436D02*
X11044491Y-13645960D01*
X11044491Y-13645960D02*
X11025444Y-13655484D01*
X11025444Y-13655484D02*
X10968301Y-13655484D01*
X10968301Y-13655484D02*
X10949253Y-13645960D01*
X10949253Y-13645960D02*
X10939729Y-13636436D01*
X11149253Y-13636436D02*
X11158777Y-13645960D01*
X11158777Y-13645960D02*
X11149253Y-13655484D01*
X11149253Y-13655484D02*
X11139729Y-13645960D01*
X11139729Y-13645960D02*
X11149253Y-13636436D01*
X11149253Y-13636436D02*
X11149253Y-13655484D01*
X11282586Y-13455484D02*
X11301634Y-13455484D01*
X11301634Y-13455484D02*
X11320682Y-13465008D01*
X11320682Y-13465008D02*
X11330205Y-13474531D01*
X11330205Y-13474531D02*
X11339729Y-13493579D01*
X11339729Y-13493579D02*
X11349253Y-13531674D01*
X11349253Y-13531674D02*
X11349253Y-13579293D01*
X11349253Y-13579293D02*
X11339729Y-13617388D01*
X11339729Y-13617388D02*
X11330205Y-13636436D01*
X11330205Y-13636436D02*
X11320682Y-13645960D01*
X11320682Y-13645960D02*
X11301634Y-13655484D01*
X11301634Y-13655484D02*
X11282586Y-13655484D01*
X11282586Y-13655484D02*
X11263539Y-13645960D01*
X11263539Y-13645960D02*
X11254015Y-13636436D01*
X11254015Y-13636436D02*
X11244491Y-13617388D01*
X11244491Y-13617388D02*
X11234967Y-13579293D01*
X11234967Y-13579293D02*
X11234967Y-13531674D01*
X11234967Y-13531674D02*
X11244491Y-13493579D01*
X11244491Y-13493579D02*
X11254015Y-13474531D01*
X11254015Y-13474531D02*
X11263539Y-13465008D01*
X11263539Y-13465008D02*
X11282586Y-13455484D01*
X11473062Y-13455484D02*
X11492110Y-13455484D01*
X11492110Y-13455484D02*
X11511158Y-13465008D01*
X11511158Y-13465008D02*
X11520682Y-13474531D01*
X11520682Y-13474531D02*
X11530205Y-13493579D01*
X11530205Y-13493579D02*
X11539729Y-13531674D01*
X11539729Y-13531674D02*
X11539729Y-13579293D01*
X11539729Y-13579293D02*
X11530205Y-13617388D01*
X11530205Y-13617388D02*
X11520682Y-13636436D01*
X11520682Y-13636436D02*
X11511158Y-13645960D01*
X11511158Y-13645960D02*
X11492110Y-13655484D01*
X11492110Y-13655484D02*
X11473062Y-13655484D01*
X11473062Y-13655484D02*
X11454015Y-13645960D01*
X11454015Y-13645960D02*
X11444491Y-13636436D01*
X11444491Y-13636436D02*
X11434967Y-13617388D01*
X11434967Y-13617388D02*
X11425443Y-13579293D01*
X11425443Y-13579293D02*
X11425443Y-13531674D01*
X11425443Y-13531674D02*
X11434967Y-13493579D01*
X11434967Y-13493579D02*
X11444491Y-13474531D01*
X11444491Y-13474531D02*
X11454015Y-13465008D01*
X11454015Y-13465008D02*
X11473062Y-13455484D01*
X11663539Y-13455484D02*
X11682586Y-13455484D01*
X11682586Y-13455484D02*
X11701634Y-13465008D01*
X11701634Y-13465008D02*
X11711158Y-13474531D01*
X11711158Y-13474531D02*
X11720682Y-13493579D01*
X11720682Y-13493579D02*
X11730205Y-13531674D01*
X11730205Y-13531674D02*
X11730205Y-13579293D01*
X11730205Y-13579293D02*
X11720682Y-13617388D01*
X11720682Y-13617388D02*
X11711158Y-13636436D01*
X11711158Y-13636436D02*
X11701634Y-13645960D01*
X11701634Y-13645960D02*
X11682586Y-13655484D01*
X11682586Y-13655484D02*
X11663539Y-13655484D01*
X11663539Y-13655484D02*
X11644491Y-13645960D01*
X11644491Y-13645960D02*
X11634967Y-13636436D01*
X11634967Y-13636436D02*
X11625443Y-13617388D01*
X11625443Y-13617388D02*
X11615920Y-13579293D01*
X11615920Y-13579293D02*
X11615920Y-13531674D01*
X11615920Y-13531674D02*
X11625443Y-13493579D01*
X11625443Y-13493579D02*
X11634967Y-13474531D01*
X11634967Y-13474531D02*
X11644491Y-13465008D01*
X11644491Y-13465008D02*
X11663539Y-13455484D01*
X11815920Y-13655484D02*
X11815920Y-13522150D01*
X11815920Y-13541198D02*
X11825443Y-13531674D01*
X11825443Y-13531674D02*
X11844491Y-13522150D01*
X11844491Y-13522150D02*
X11873063Y-13522150D01*
X11873063Y-13522150D02*
X11892110Y-13531674D01*
X11892110Y-13531674D02*
X11901634Y-13550722D01*
X11901634Y-13550722D02*
X11901634Y-13655484D01*
X11901634Y-13550722D02*
X11911158Y-13531674D01*
X11911158Y-13531674D02*
X11930205Y-13522150D01*
X11930205Y-13522150D02*
X11958777Y-13522150D01*
X11958777Y-13522150D02*
X11977824Y-13531674D01*
X11977824Y-13531674D02*
X11987348Y-13550722D01*
X11987348Y-13550722D02*
X11987348Y-13655484D01*
X12082586Y-13655484D02*
X12082586Y-13522150D01*
X12082586Y-13541198D02*
X12092110Y-13531674D01*
X12092110Y-13531674D02*
X12111158Y-13522150D01*
X12111158Y-13522150D02*
X12139729Y-13522150D01*
X12139729Y-13522150D02*
X12158777Y-13531674D01*
X12158777Y-13531674D02*
X12168301Y-13550722D01*
X12168301Y-13550722D02*
X12168301Y-13655484D01*
X12168301Y-13550722D02*
X12177824Y-13531674D01*
X12177824Y-13531674D02*
X12196872Y-13522150D01*
X12196872Y-13522150D02*
X12225443Y-13522150D01*
X12225443Y-13522150D02*
X12244491Y-13531674D01*
X12244491Y-13531674D02*
X12254015Y-13550722D01*
X12254015Y-13550722D02*
X12254015Y-13655484D01*
X12644491Y-13445960D02*
X12473063Y-13703103D01*
X12901634Y-13455484D02*
X12920682Y-13455484D01*
X12920682Y-13455484D02*
X12939729Y-13465008D01*
X12939729Y-13465008D02*
X12949253Y-13474531D01*
X12949253Y-13474531D02*
X12958777Y-13493579D01*
X12958777Y-13493579D02*
X12968301Y-13531674D01*
X12968301Y-13531674D02*
X12968301Y-13579293D01*
X12968301Y-13579293D02*
X12958777Y-13617388D01*
X12958777Y-13617388D02*
X12949253Y-13636436D01*
X12949253Y-13636436D02*
X12939729Y-13645960D01*
X12939729Y-13645960D02*
X12920682Y-13655484D01*
X12920682Y-13655484D02*
X12901634Y-13655484D01*
X12901634Y-13655484D02*
X12882586Y-13645960D01*
X12882586Y-13645960D02*
X12873063Y-13636436D01*
X12873063Y-13636436D02*
X12863539Y-13617388D01*
X12863539Y-13617388D02*
X12854015Y-13579293D01*
X12854015Y-13579293D02*
X12854015Y-13531674D01*
X12854015Y-13531674D02*
X12863539Y-13493579D01*
X12863539Y-13493579D02*
X12873063Y-13474531D01*
X12873063Y-13474531D02*
X12882586Y-13465008D01*
X12882586Y-13465008D02*
X12901634Y-13455484D01*
X13054015Y-13636436D02*
X13063539Y-13645960D01*
X13063539Y-13645960D02*
X13054015Y-13655484D01*
X13054015Y-13655484D02*
X13044491Y-13645960D01*
X13044491Y-13645960D02*
X13054015Y-13636436D01*
X13054015Y-13636436D02*
X13054015Y-13655484D01*
X13254015Y-13655484D02*
X13139729Y-13655484D01*
X13196872Y-13655484D02*
X13196872Y-13455484D01*
X13196872Y-13455484D02*
X13177825Y-13484055D01*
X13177825Y-13484055D02*
X13158777Y-13503103D01*
X13158777Y-13503103D02*
X13139729Y-13512627D01*
X13444491Y-13655484D02*
X13330206Y-13655484D01*
X13387348Y-13655484D02*
X13387348Y-13455484D01*
X13387348Y-13455484D02*
X13368301Y-13484055D01*
X13368301Y-13484055D02*
X13349253Y-13503103D01*
X13349253Y-13503103D02*
X13330206Y-13512627D01*
X13558777Y-13541198D02*
X13539729Y-13531674D01*
X13539729Y-13531674D02*
X13530206Y-13522150D01*
X13530206Y-13522150D02*
X13520682Y-13503103D01*
X13520682Y-13503103D02*
X13520682Y-13493579D01*
X13520682Y-13493579D02*
X13530206Y-13474531D01*
X13530206Y-13474531D02*
X13539729Y-13465008D01*
X13539729Y-13465008D02*
X13558777Y-13455484D01*
X13558777Y-13455484D02*
X13596872Y-13455484D01*
X13596872Y-13455484D02*
X13615920Y-13465008D01*
X13615920Y-13465008D02*
X13625444Y-13474531D01*
X13625444Y-13474531D02*
X13634967Y-13493579D01*
X13634967Y-13493579D02*
X13634967Y-13503103D01*
X13634967Y-13503103D02*
X13625444Y-13522150D01*
X13625444Y-13522150D02*
X13615920Y-13531674D01*
X13615920Y-13531674D02*
X13596872Y-13541198D01*
X13596872Y-13541198D02*
X13558777Y-13541198D01*
X13558777Y-13541198D02*
X13539729Y-13550722D01*
X13539729Y-13550722D02*
X13530206Y-13560246D01*
X13530206Y-13560246D02*
X13520682Y-13579293D01*
X13520682Y-13579293D02*
X13520682Y-13617388D01*
X13520682Y-13617388D02*
X13530206Y-13636436D01*
X13530206Y-13636436D02*
X13539729Y-13645960D01*
X13539729Y-13645960D02*
X13558777Y-13655484D01*
X13558777Y-13655484D02*
X13596872Y-13655484D01*
X13596872Y-13655484D02*
X13615920Y-13645960D01*
X13615920Y-13645960D02*
X13625444Y-13636436D01*
X13625444Y-13636436D02*
X13634967Y-13617388D01*
X13634967Y-13617388D02*
X13634967Y-13579293D01*
X13634967Y-13579293D02*
X13625444Y-13560246D01*
X13625444Y-13560246D02*
X13615920Y-13550722D01*
X13615920Y-13550722D02*
X13596872Y-13541198D01*
X13825444Y-13655484D02*
X13711158Y-13655484D01*
X13768301Y-13655484D02*
X13768301Y-13455484D01*
X13768301Y-13455484D02*
X13749253Y-13484055D01*
X13749253Y-13484055D02*
X13730206Y-13503103D01*
X13730206Y-13503103D02*
X13711158Y-13512627D01*
X13901634Y-13455484D02*
X13901634Y-13493579D01*
X13977825Y-13455484D02*
X13977825Y-13493579D01*
X14273063Y-13731674D02*
X14263539Y-13722150D01*
X14263539Y-13722150D02*
X14244491Y-13693579D01*
X14244491Y-13693579D02*
X14234968Y-13674531D01*
X14234968Y-13674531D02*
X14225444Y-13645960D01*
X14225444Y-13645960D02*
X14215920Y-13598341D01*
X14215920Y-13598341D02*
X14215920Y-13560246D01*
X14215920Y-13560246D02*
X14225444Y-13512627D01*
X14225444Y-13512627D02*
X14234968Y-13484055D01*
X14234968Y-13484055D02*
X14244491Y-13465008D01*
X14244491Y-13465008D02*
X14263539Y-13436436D01*
X14263539Y-13436436D02*
X14273063Y-13426912D01*
X14434968Y-13455484D02*
X14396872Y-13455484D01*
X14396872Y-13455484D02*
X14377825Y-13465008D01*
X14377825Y-13465008D02*
X14368301Y-13474531D01*
X14368301Y-13474531D02*
X14349253Y-13503103D01*
X14349253Y-13503103D02*
X14339729Y-13541198D01*
X14339729Y-13541198D02*
X14339729Y-13617388D01*
X14339729Y-13617388D02*
X14349253Y-13636436D01*
X14349253Y-13636436D02*
X14358777Y-13645960D01*
X14358777Y-13645960D02*
X14377825Y-13655484D01*
X14377825Y-13655484D02*
X14415920Y-13655484D01*
X14415920Y-13655484D02*
X14434968Y-13645960D01*
X14434968Y-13645960D02*
X14444491Y-13636436D01*
X14444491Y-13636436D02*
X14454015Y-13617388D01*
X14454015Y-13617388D02*
X14454015Y-13569769D01*
X14454015Y-13569769D02*
X14444491Y-13550722D01*
X14444491Y-13550722D02*
X14434968Y-13541198D01*
X14434968Y-13541198D02*
X14415920Y-13531674D01*
X14415920Y-13531674D02*
X14377825Y-13531674D01*
X14377825Y-13531674D02*
X14358777Y-13541198D01*
X14358777Y-13541198D02*
X14349253Y-13550722D01*
X14349253Y-13550722D02*
X14339729Y-13569769D01*
X14692110Y-13655484D02*
X14692110Y-13455484D01*
X14777825Y-13655484D02*
X14777825Y-13550722D01*
X14777825Y-13550722D02*
X14768301Y-13531674D01*
X14768301Y-13531674D02*
X14749253Y-13522150D01*
X14749253Y-13522150D02*
X14720682Y-13522150D01*
X14720682Y-13522150D02*
X14701634Y-13531674D01*
X14701634Y-13531674D02*
X14692110Y-13541198D01*
X14901634Y-13655484D02*
X14882587Y-13645960D01*
X14882587Y-13645960D02*
X14873063Y-13636436D01*
X14873063Y-13636436D02*
X14863539Y-13617388D01*
X14863539Y-13617388D02*
X14863539Y-13560246D01*
X14863539Y-13560246D02*
X14873063Y-13541198D01*
X14873063Y-13541198D02*
X14882587Y-13531674D01*
X14882587Y-13531674D02*
X14901634Y-13522150D01*
X14901634Y-13522150D02*
X14930206Y-13522150D01*
X14930206Y-13522150D02*
X14949253Y-13531674D01*
X14949253Y-13531674D02*
X14958777Y-13541198D01*
X14958777Y-13541198D02*
X14968301Y-13560246D01*
X14968301Y-13560246D02*
X14968301Y-13617388D01*
X14968301Y-13617388D02*
X14958777Y-13636436D01*
X14958777Y-13636436D02*
X14949253Y-13645960D01*
X14949253Y-13645960D02*
X14930206Y-13655484D01*
X14930206Y-13655484D02*
X14901634Y-13655484D01*
X15082587Y-13655484D02*
X15063539Y-13645960D01*
X15063539Y-13645960D02*
X15054015Y-13626912D01*
X15054015Y-13626912D02*
X15054015Y-13455484D01*
X15234968Y-13645960D02*
X15215920Y-13655484D01*
X15215920Y-13655484D02*
X15177825Y-13655484D01*
X15177825Y-13655484D02*
X15158777Y-13645960D01*
X15158777Y-13645960D02*
X15149253Y-13626912D01*
X15149253Y-13626912D02*
X15149253Y-13550722D01*
X15149253Y-13550722D02*
X15158777Y-13531674D01*
X15158777Y-13531674D02*
X15177825Y-13522150D01*
X15177825Y-13522150D02*
X15215920Y-13522150D01*
X15215920Y-13522150D02*
X15234968Y-13531674D01*
X15234968Y-13531674D02*
X15244491Y-13550722D01*
X15244491Y-13550722D02*
X15244491Y-13569769D01*
X15244491Y-13569769D02*
X15149253Y-13588817D01*
X15320682Y-13645960D02*
X15339730Y-13655484D01*
X15339730Y-13655484D02*
X15377825Y-13655484D01*
X15377825Y-13655484D02*
X15396872Y-13645960D01*
X15396872Y-13645960D02*
X15406396Y-13626912D01*
X15406396Y-13626912D02*
X15406396Y-13617388D01*
X15406396Y-13617388D02*
X15396872Y-13598341D01*
X15396872Y-13598341D02*
X15377825Y-13588817D01*
X15377825Y-13588817D02*
X15349253Y-13588817D01*
X15349253Y-13588817D02*
X15330206Y-13579293D01*
X15330206Y-13579293D02*
X15320682Y-13560246D01*
X15320682Y-13560246D02*
X15320682Y-13550722D01*
X15320682Y-13550722D02*
X15330206Y-13531674D01*
X15330206Y-13531674D02*
X15349253Y-13522150D01*
X15349253Y-13522150D02*
X15377825Y-13522150D01*
X15377825Y-13522150D02*
X15396872Y-13531674D01*
X15473063Y-13731674D02*
X15482587Y-13722150D01*
X15482587Y-13722150D02*
X15501634Y-13693579D01*
X15501634Y-13693579D02*
X15511158Y-13674531D01*
X15511158Y-13674531D02*
X15520682Y-13645960D01*
X15520682Y-13645960D02*
X15530206Y-13598341D01*
X15530206Y-13598341D02*
X15530206Y-13560246D01*
X15530206Y-13560246D02*
X15520682Y-13512627D01*
X15520682Y-13512627D02*
X15511158Y-13484055D01*
X15511158Y-13484055D02*
X15501634Y-13465008D01*
X15501634Y-13465008D02*
X15482587Y-13436436D01*
X15482587Y-13436436D02*
X15473063Y-13426912D01*
X15834968Y-13731674D02*
X15825444Y-13722150D01*
X15825444Y-13722150D02*
X15806396Y-13693579D01*
X15806396Y-13693579D02*
X15796872Y-13674531D01*
X15796872Y-13674531D02*
X15787349Y-13645960D01*
X15787349Y-13645960D02*
X15777825Y-13598341D01*
X15777825Y-13598341D02*
X15777825Y-13560246D01*
X15777825Y-13560246D02*
X15787349Y-13512627D01*
X15787349Y-13512627D02*
X15796872Y-13484055D01*
X15796872Y-13484055D02*
X15806396Y-13465008D01*
X15806396Y-13465008D02*
X15825444Y-13436436D01*
X15825444Y-13436436D02*
X15834968Y-13426912D01*
X15911158Y-13522150D02*
X15911158Y-13655484D01*
X15911158Y-13541198D02*
X15920682Y-13531674D01*
X15920682Y-13531674D02*
X15939730Y-13522150D01*
X15939730Y-13522150D02*
X15968301Y-13522150D01*
X15968301Y-13522150D02*
X15987349Y-13531674D01*
X15987349Y-13531674D02*
X15996872Y-13550722D01*
X15996872Y-13550722D02*
X15996872Y-13655484D01*
X16120682Y-13655484D02*
X16101634Y-13645960D01*
X16101634Y-13645960D02*
X16092111Y-13636436D01*
X16092111Y-13636436D02*
X16082587Y-13617388D01*
X16082587Y-13617388D02*
X16082587Y-13560246D01*
X16082587Y-13560246D02*
X16092111Y-13541198D01*
X16092111Y-13541198D02*
X16101634Y-13531674D01*
X16101634Y-13531674D02*
X16120682Y-13522150D01*
X16120682Y-13522150D02*
X16149253Y-13522150D01*
X16149253Y-13522150D02*
X16168301Y-13531674D01*
X16168301Y-13531674D02*
X16177825Y-13541198D01*
X16177825Y-13541198D02*
X16187349Y-13560246D01*
X16187349Y-13560246D02*
X16187349Y-13617388D01*
X16187349Y-13617388D02*
X16177825Y-13636436D01*
X16177825Y-13636436D02*
X16168301Y-13645960D01*
X16168301Y-13645960D02*
X16149253Y-13655484D01*
X16149253Y-13655484D02*
X16120682Y-13655484D01*
X16244492Y-13522150D02*
X16320682Y-13522150D01*
X16273063Y-13455484D02*
X16273063Y-13626912D01*
X16273063Y-13626912D02*
X16282587Y-13645960D01*
X16282587Y-13645960D02*
X16301634Y-13655484D01*
X16301634Y-13655484D02*
X16320682Y-13655484D01*
X16539730Y-13522150D02*
X16539730Y-13722150D01*
X16539730Y-13531674D02*
X16558777Y-13522150D01*
X16558777Y-13522150D02*
X16596873Y-13522150D01*
X16596873Y-13522150D02*
X16615920Y-13531674D01*
X16615920Y-13531674D02*
X16625444Y-13541198D01*
X16625444Y-13541198D02*
X16634968Y-13560246D01*
X16634968Y-13560246D02*
X16634968Y-13617388D01*
X16634968Y-13617388D02*
X16625444Y-13636436D01*
X16625444Y-13636436D02*
X16615920Y-13645960D01*
X16615920Y-13645960D02*
X16596873Y-13655484D01*
X16596873Y-13655484D02*
X16558777Y-13655484D01*
X16558777Y-13655484D02*
X16539730Y-13645960D01*
X16749253Y-13655484D02*
X16730206Y-13645960D01*
X16730206Y-13645960D02*
X16720682Y-13626912D01*
X16720682Y-13626912D02*
X16720682Y-13455484D01*
X16911158Y-13655484D02*
X16911158Y-13550722D01*
X16911158Y-13550722D02*
X16901635Y-13531674D01*
X16901635Y-13531674D02*
X16882587Y-13522150D01*
X16882587Y-13522150D02*
X16844492Y-13522150D01*
X16844492Y-13522150D02*
X16825444Y-13531674D01*
X16911158Y-13645960D02*
X16892111Y-13655484D01*
X16892111Y-13655484D02*
X16844492Y-13655484D01*
X16844492Y-13655484D02*
X16825444Y-13645960D01*
X16825444Y-13645960D02*
X16815920Y-13626912D01*
X16815920Y-13626912D02*
X16815920Y-13607865D01*
X16815920Y-13607865D02*
X16825444Y-13588817D01*
X16825444Y-13588817D02*
X16844492Y-13579293D01*
X16844492Y-13579293D02*
X16892111Y-13579293D01*
X16892111Y-13579293D02*
X16911158Y-13569769D01*
X16977825Y-13522150D02*
X17054015Y-13522150D01*
X17006396Y-13455484D02*
X17006396Y-13626912D01*
X17006396Y-13626912D02*
X17015920Y-13645960D01*
X17015920Y-13645960D02*
X17034968Y-13655484D01*
X17034968Y-13655484D02*
X17054015Y-13655484D01*
X17196873Y-13645960D02*
X17177825Y-13655484D01*
X17177825Y-13655484D02*
X17139730Y-13655484D01*
X17139730Y-13655484D02*
X17120682Y-13645960D01*
X17120682Y-13645960D02*
X17111158Y-13626912D01*
X17111158Y-13626912D02*
X17111158Y-13550722D01*
X17111158Y-13550722D02*
X17120682Y-13531674D01*
X17120682Y-13531674D02*
X17139730Y-13522150D01*
X17139730Y-13522150D02*
X17177825Y-13522150D01*
X17177825Y-13522150D02*
X17196873Y-13531674D01*
X17196873Y-13531674D02*
X17206396Y-13550722D01*
X17206396Y-13550722D02*
X17206396Y-13569769D01*
X17206396Y-13569769D02*
X17111158Y-13588817D01*
X17377825Y-13655484D02*
X17377825Y-13455484D01*
X17377825Y-13645960D02*
X17358777Y-13655484D01*
X17358777Y-13655484D02*
X17320682Y-13655484D01*
X17320682Y-13655484D02*
X17301635Y-13645960D01*
X17301635Y-13645960D02*
X17292111Y-13636436D01*
X17292111Y-13636436D02*
X17282587Y-13617388D01*
X17282587Y-13617388D02*
X17282587Y-13560246D01*
X17282587Y-13560246D02*
X17292111Y-13541198D01*
X17292111Y-13541198D02*
X17301635Y-13531674D01*
X17301635Y-13531674D02*
X17320682Y-13522150D01*
X17320682Y-13522150D02*
X17358777Y-13522150D01*
X17358777Y-13522150D02*
X17377825Y-13531674D01*
X17454016Y-13731674D02*
X17463539Y-13722150D01*
X17463539Y-13722150D02*
X17482587Y-13693579D01*
X17482587Y-13693579D02*
X17492111Y-13674531D01*
X17492111Y-13674531D02*
X17501635Y-13645960D01*
X17501635Y-13645960D02*
X17511158Y-13598341D01*
X17511158Y-13598341D02*
X17511158Y-13560246D01*
X17511158Y-13560246D02*
X17501635Y-13512627D01*
X17501635Y-13512627D02*
X17492111Y-13484055D01*
X17492111Y-13484055D02*
X17482587Y-13465008D01*
X17482587Y-13465008D02*
X17463539Y-13436436D01*
X17463539Y-13436436D02*
X17454016Y-13426912D01*
M02*
